<?xml version="1.0" standalone="no"?>
<!DOCTYPE svg PUBLIC "-//W3C//DTD SVG 1.1//EN" "http://www.w3.org/Graphics/SVG/1.1/DTD/svg11.dtd" >
<svg>
<metadata>
Created by FontForge 20090914 at Wed Apr  9 23:17:44 2014
 By www-data
Copyright (c) 1985, 1987, 1990, 1994 Adobe Systems Incorporated.  All Rights Reserved.ITC New Baskerville is a registered trademark of International Typeface Corporation.
</metadata>
<defs>
<font id="NewBaskerville-Roman" horiz-adv-x="520" >
  <font-face 
    font-family="ITC New Baskerville"
    font-weight="400"
    font-stretch="normal"
    units-per-em="1000"
    panose-1="2 0 5 4 8 0 0 2 0 4"
    ascent="800"
    descent="-200"
    x-height="427"
    cap-height="660.002"
    bbox="-205 -272.003 1207.01 906.003"
    underline-thickness="50"
    underline-position="-50"
    unicode-range="U+000D-U+FB02"
  />
<missing-glyph horiz-adv-x="260" 
 />
    <glyph glyph-name=".notdef" horiz-adv-x="260" 
 />
    <glyph glyph-name="NULL" horiz-adv-x="0" 
 />
    <glyph glyph-name="NULL" horiz-adv-x="0" 
 />
    <glyph glyph-name="nonmarkingreturn" unicode="&#xd;" horiz-adv-x="260" 
 />
    <glyph glyph-name="space" unicode=" " horiz-adv-x="260" 
 />
    <glyph glyph-name="exclam" unicode="!" horiz-adv-x="320" 
d="M147 157c1.33301 57.333 0.168945 114.332 -3.49805 170.999s-11.167 113.334 -22.5 170.001c-3.33301 15.333 -6.83301 33.333 -10.5 54s-5.5 38.667 -5.5 54c0 16 4.66699 31 14 45s22.666 21 39.999 21c19.333 0 33.166 -7.5 41.499 -22.5s12.5 -30.833 12.5 -47.5
c0 -6.66699 -0.5 -14.667 -1.5 -24s-2.33301 -18.666 -4 -27.999l-5 -28c-1.66699 -9.33301 -3.16699 -17.333 -4.5 -24c-11.333 -56.667 -19 -113.334 -23 -170.001s-5.33301 -113.667 -4 -171h-24zM160.003 -13.001c-15.333 0 -28.6641 5.5 -39.9971 16.5
s-17 24.167 -17 39.5s5.16699 28.833 15.5 40.5s23.166 17.5 38.499 17.5s29.166 -5 41.499 -15s18.5 -23.333 18.5 -40c0 -15.333 -5.33301 -29 -16 -41s-24.334 -18 -41.001 -18z" />
    <glyph glyph-name="quotedbl" unicode="&#x22;" horiz-adv-x="380" 
d="M56 638c-2 10.667 1.66699 20.667 11 30s20 14 32 14s22.667 -4.66699 32 -14s13 -19.333 11 -30l-33 -196h-20zM237 638c-2 10.667 1.66699 20.667 11 30s20 14 32 14s22.667 -4.66699 32 -14s13 -19.333 11 -30l-33 -196h-20z" />
    <glyph glyph-name="numbersign" unicode="#" 
d="M486 223h-123l-31 -223h-56l31 223h-126l-33 -223h-56l33 223h-123l7 46h125l21 147h-126l7 46h127l31 214h56l-31 -214h125l30 214h56l-30 -214h118l-7 -46h-119l-20 -147h121zM211 416l-21 -147h126l20 147h-125z" />
    <glyph glyph-name="dollar" unicode="$" 
d="M196 742l27.998 0.00683594v-76c7.33301 0.666992 14.333 1.16699 21 1.5s13.667 0.5 21 0.5c6 0 12.167 -0.166992 18.5 -0.5s12.5 -0.833008 18.5 -1.5v76h28v-75c12.667 -0.666992 26.834 -3.66699 42.501 -9s30.5 -12.333 44.5 -21s25.667 -19 35 -31
s14 -25.333 14 -40c0 -13.333 -3.83301 -24.166 -11.5 -32.499s-18.167 -12.5 -31.5 -12.5c-11.333 0 -20.5 3.83301 -27.5 11.5s-10.5 17.167 -10.5 28.5c0 6.66699 0.666992 13 2 19s2 12 2 18c0 7.33301 -2 13.666 -6 18.999s-8.83301 9.66602 -14.5 12.999s-12 6 -19 8
s-13.5 3.66699 -19.5 5v-267c20 -11.333 39.5 -23 58.5 -35s35.667 -25.5 50 -40.5s25.833 -32.167 34.5 -51.5s13 -42 13 -68c0 -24 -4.16699 -45.833 -12.5 -65.5s-19.5 -37.334 -33.5 -53.001s-30.5 -29.167 -49.5 -40.5s-39.167 -20.333 -60.5 -27v-143h-28v139
l-22.5 -2c-7.66699 -0.666992 -15.167 -1 -22.5 -1c-5.33301 0 -11 0.166992 -17 0.5s-11.667 0.833008 -17 1.5v-138h-28v138c-14 0.666992 -30.333 3 -49 7s-36.5 10 -53.5 18s-31.333 18.333 -43 31s-17.5 27.667 -17.5 45c0 13.333 4 24.166 12 32.499
s18.667 12.5 32 12.5c14 0 24.167 -4.33301 30.5 -13s9.5 -19.334 9.5 -32.001l-1 -17c0 -11.333 2.33301 -20.666 7 -27.999s10.834 -13.333 18.501 -18s16.334 -8.33398 26.001 -11.001s19.167 -4.33398 28.5 -5.00098v321c-18 6.66699 -35.833 15 -53.5 25
s-33.334 21.667 -47.001 35s-24.667 28.666 -33 45.999s-12.5 36.666 -12.5 57.999s3.83301 41 11.5 59s18.167 34 31.5 48s28.833 25.667 46.5 35s36.5 16.333 56.5 21v82zM195.998 636.007c-23.333 -9.33301 -42.668 -21.834 -58.001 -37.501s-23 -37.5 -23 -65.5
c0 -24.667 8.33301 -45.167 25 -61.5s35.334 -29.166 56.001 -38.499v203zM302.996 644.006c-6.66699 0.666992 -13.001 1 -19.001 1h-19h-20.5c-6.33301 0 -13.166 -0.333008 -20.499 -1v-223l79 -32v255zM330.995 23.0059c27.333 9.33301 48.833 25.5 64.5 48.5
s23.5 49.167 23.5 78.5c0 14 -2.5 26.5 -7.5 37.5s-11.5 21.333 -19.5 31s-17.333 18.5 -28 26.5s-21.667 15.667 -33 23v-245zM223.995 12.0059c4.66699 0 9.33203 -0.333008 13.999 -1s9.33398 -0.666992 14.001 0l25.5 2c8.33301 0.666992 16.833 1.66699 25.5 3v268
l-79 36v-308z" />
    <glyph glyph-name="percent" unicode="%" horiz-adv-x="900" 
d="M225 -73h-40.9971l423 714l-2 2c-18 -10 -36.333 -18.5 -55 -25.5s-39.334 -10.5 -62.001 -10.5c-13.333 0 -26.5 1.5 -39.5 4.5s-25.833 6.5 -38.5 10.5c4 -11.333 6.83301 -22.833 8.5 -34.5s2.5 -23.167 2.5 -34.5c0 -24 -4.16699 -50 -12.5 -78
s-20.166 -54 -35.499 -78s-34 -43.833 -56 -59.5s-47 -23.5 -75 -23.5c-22.667 0 -43.334 4 -62.001 12s-34.834 19 -48.501 33s-24.167 30.667 -31.5 50s-11 40.333 -11 63c0 26 5.16699 52.667 15.5 80s24.5 52.166 42.5 74.499s39.167 40.666 63.5 54.999
s50.5 21.5 78.5 21.5c24 0 42.833 -3.66699 56.5 -11s26.667 -15.166 39 -23.499s26 -16.166 41 -23.499s35.167 -11 60.5 -11c36.667 0 70.667 9.5 102 28.5s58.666 41.833 81.999 68.5h33zM309.003 676c-22.667 0 -42.998 -9.00293 -60.998 -27.0029
s-33.167 -39.5 -45.5 -64.5s-21.833 -51 -28.5 -78s-10 -49.833 -10 -68.5c0 -11.333 1.66699 -22.833 5 -34.5s8.16602 -22.167 14.499 -31.5s14.333 -16.833 24 -22.5s21.167 -8.5 34.5 -8.5c24.667 0 46.167 8 64.5 24s33.666 35.667 45.999 59s21.5 48 27.5 74
s9 49 9 69c0 12.667 -1.5 25.334 -4.5 38.001s-7.66699 24.334 -14 35.001s-14.5 19.334 -24.5 26.001s-22.333 10 -37 10zM627.005 -48.0029c-22 0 -42.332 3.83203 -60.999 11.499s-34.667 18.334 -48 32.001s-23.666 29.834 -30.999 48.501s-11 39 -11 61
c0 27.333 5.16699 55 15.5 83s24.5 53.167 42.5 75.5s39.5 40.666 64.5 54.999s52.167 21.5 81.5 21.5c20.667 0 39.167 -3.66699 55.5 -11s30 -17.5 41 -30.5s19.333 -28.167 25 -45.5s8.5 -36 8.5 -56c0 -26 -3.83301 -53.333 -11.5 -82s-19.334 -55 -35.001 -79
s-34.834 -44 -57.501 -60s-49 -24 -79 -24zM693.006 312.996c-22 0 -41.8311 -9 -59.498 -27s-32.5 -39.667 -44.5 -65s-21.333 -51.333 -28 -78s-10 -49 -10 -67c0 -12 1.66699 -23.833 5 -35.5s8.16602 -22 14.499 -31s14.5 -16.333 24.5 -22s21.667 -8.5 35 -8.5
c24 0 45.167 8 63.5 24s33.833 35.667 46.5 59s22.167 47.833 28.5 73.5s9.5 48.5 9.5 68.5c0 12.667 -1.66699 25.5 -5 38.5s-8.5 24.667 -15.5 35s-15.833 18.833 -26.5 25.5s-23.334 10 -38.001 10z" />
    <glyph glyph-name="ampersand" unicode="&#x26;" horiz-adv-x="740" 
d="M282 370c27.333 18 48.5 41.332 63.5 69.999s22.5 59.334 22.5 92.001c0 12.667 -1.5 25.667 -4.5 39s-7.66699 25.5 -14 36.5s-14.833 20 -25.5 27s-23.667 10.5 -39 10.5c-28.667 0 -49.834 -9.33301 -63.501 -28s-20.5 -40.667 -20.5 -66c0 -16.667 2.5 -33 7.5 -49
s11.333 -31.833 19 -47.5s16.334 -30.5 26.001 -44.5zM224 293.999l-33.002 -29.5c-10.667 -9.66699 -20 -19.667 -28 -30s-14.5 -22 -19.5 -35s-7.5 -27.833 -7.5 -44.5c0 -16 2.66699 -31.333 8 -46s12.833 -27.667 22.5 -39s21.334 -20.333 35.001 -27
s29.167 -10 46.5 -10c25.333 0 49.333 7.16699 72 21.5s42.334 30.5 59.001 48.5l-5 5zM440.998 178.999l51.999 87.0049l24 44c8.66699 15.333 18.5 29.5 29.5 42.5s23.667 23.667 38 32s30.5 12.5 48.5 12.5c18.667 0 35.334 -6.33301 50.001 -19s22 -28.667 22 -48
c0 -14 -5 -26.667 -15 -38s-22.333 -17 -37 -17s-25.834 4.66699 -33.501 14s-11.5 20.666 -11.5 33.999v18.5c0 7.66699 -3.33301 11.5 -10 11.5c-7.33301 0 -14.833 -3.83301 -22.5 -11.5s-15 -16.5 -22 -26.5s-13.167 -20 -18.5 -30l-12 -22l-53 -91l-9 -14l33.5 -34
c13 -13.333 26.667 -26 41 -38s29.166 -22.167 44.499 -30.5s30 -12.5 44 -12.5c18 0 33.333 5 46 15s24.667 21.333 36 34l17 -16c-19.333 -25.333 -40.833 -46 -64.5 -62s-52.5 -24 -86.5 -24c-18.667 0 -35.834 2.66699 -51.501 8s-30.5 12.333 -44.5 21
s-27.333 18.667 -40 30l-38 35c-27.333 -30 -58.166 -53.667 -92.499 -71s-72.5 -26 -114.5 -26c-17.333 0 -34.666 2.83301 -51.999 8.5s-32.833 13.667 -46.5 24s-24.834 23 -33.501 38s-13 32.167 -13 51.5c0 25.333 4.83301 48.166 14.5 68.499
s22.334 38.833 38.001 55.5s33.334 31.667 53.001 45s39.5 25.666 59.5 36.999c-20 28 -36.667 58.167 -50 90.5s-20 66.166 -20 101.499c0 22 3.83301 43 11.5 63s18.167 37.5 31.5 52.5s29.5 27 48.5 36s40.167 13.5 63.5 13.5c20 0 38.333 -3 55 -9s31 -14.833 43 -26.5
s21.333 -25.5 28 -41.5s10 -34 10 -54s-4 -39.333 -12 -58s-18.5 -36.167 -31.5 -52.5s-27.333 -31.333 -43 -45s-31.5 -25.834 -47.5 -36.501z" />
    <glyph glyph-name="quotesingle" unicode="'" horiz-adv-x="220" 
d="M67 638c-2 10.667 1.66699 20.667 11 30s20 14 32 14s22.667 -4.66699 32 -14s13 -19.333 11 -30l-33 -196h-20z" />
    <glyph glyph-name="parenleft" unicode="(" horiz-adv-x="440" 
d="M363 663c-26.667 -36 -49.1699 -68.999 -67.5029 -98.999s-33.333 -60.5 -45 -91.5s-20 -64 -25 -99s-7.5 -75.5 -7.5 -121.5c0 -82.667 11.167 -158.834 33.5 -228.501s61.833 -135.5 118.5 -197.5l-22 -20c-30.667 30 -58.667 61.833 -84 95.5s-47.166 69 -65.499 106
s-32.5 75.5 -42.5 115.5s-15 81.667 -15 125c0 42 4.83301 82.833 14.5 122.5s23.334 77.667 41.001 114s38.834 71 63.501 104s51.667 64.167 81 93.5z" />
    <glyph glyph-name="parenright" unicode=")" horiz-adv-x="440" 
d="M77 -174c26.667 35.333 49.1689 68.1699 67.502 98.5029s33.166 61.166 44.499 92.499s19.5 64.5 24.5 99.5s7.5 75.167 7.5 120.5c0 82 -11.167 158.167 -33.5 228.5s-61.5 136.166 -117.5 197.499l21 19c30.667 -29.333 58.667 -60.833 84 -94.5
s47.166 -69 65.499 -106s32.5 -75.667 42.5 -116s15 -81.833 15 -124.5c0 -50.667 -5 -94.834 -15 -132.501s-23.667 -72.667 -41 -105s-38.333 -64 -63 -95l-80 -102.5z" />
    <glyph glyph-name="asterisk" unicode="*" horiz-adv-x="500" 
d="M439 555c0 -14 -3.99805 -23.9951 -11.998 -29.9951s-18.333 -10.333 -31 -13s-26.834 -5.5 -42.501 -8.5s-30.834 -8.5 -45.501 -16.5l-18.5 -9c-8.33301 -4 -12.5 -7.66699 -12.5 -11s3.66699 -6.83301 11 -10.5s15.666 -8.16699 24.999 -13.5
c13.333 -7.33301 27.333 -12.166 42 -14.499s28.334 -4.83301 41.001 -7.5s23 -6.83398 31 -12.501s12 -15.5 12 -29.5c0 -10.667 -4 -19.667 -12 -27s-17 -11 -27 -11c-11.333 0 -20.333 3.16699 -27 9.5s-13.5 14.333 -20.5 24s-15 19.667 -24 30s-20.833 19.5 -35.5 27.5
c-2.66699 1.33301 -7.16699 4 -13.5 8s-11.166 6 -14.499 6c-4 0 -6 -4.83301 -6 -14.5s0.333008 -18.167 1 -25.5c0.666992 -14 2.33398 -25.667 5.00098 -35s5.66699 -17.833 9 -25.5l9 -21.5c2.66699 -6.66699 4.33398 -14.667 5.00098 -24
c-0.666992 -11.333 -4 -21.333 -10 -30s-15.333 -13 -28 -13c-11.333 0 -20.5 4.16699 -27.5 12.5s-10.5 17.833 -10.5 28.5c0 8.66699 1.5 16.834 4.5 24.501l9.5 24.5c3.33301 8.66699 6.5 18 9.5 28s4.5 21.667 4.5 35c0 0.666992 0.166992 3 0.5 7
s0.333008 8.16699 0 12.5s-0.833008 8.16602 -1.5 11.499s-2 5 -4 5c-2.66699 0 -6.66699 -1.33301 -12 -4s-8.66602 -4.66699 -9.99902 -6c-17.333 -9.33301 -30.833 -19.5 -40.5 -30.5s-18 -21.167 -25 -30.5s-13.833 -17.333 -20.5 -24s-15.667 -10 -27 -10
c-10 0 -19 3.66699 -27 11s-12 16.333 -12 27c0 13.333 4.16699 23.166 12.5 29.499s18.166 10.833 29.499 13.5c12 2.66699 21.167 4.16699 27.5 4.5s11.833 0.833008 16.5 1.5s9.66699 1.83398 15 3.50098s13 5.16699 23 10.5l24.5 13c9 4.66699 13.5 8.66699 13.5 12
s-3.83301 6.83301 -11.5 10.5s-16.5 8.16699 -26.5 13.5s-22.167 9.16602 -36.5 11.499s-28 5 -41 8s-24 7.5 -33 13.5s-13.5 16 -13.5 30c0 10.667 4 19.667 12 27s17 11 27 11c10.667 0 19.667 -3.33301 27 -10s14.666 -14.667 21.999 -24l24 -30
c8.66699 -10.667 20 -20 34 -28c2 -1.33301 6.5 -3.83301 13.5 -7.5s11.833 -5.5 14.5 -5.5c2 0 3.33301 1.33301 4 4s1.16699 5.66699 1.5 9s0.333008 6.66602 0 9.99902s-0.5 5.66602 -0.5 6.99902c0 17.333 -1.5 31.666 -4.5 42.999s-6.16699 21.166 -9.5 29.499
s-6.5 15.833 -9.5 22.5s-4.5 14.334 -4.5 23.001c0 11.333 3.5 21 10.5 29s16.167 12 27.5 12s20.5 -4 27.5 -12s10.5 -17.667 10.5 -29c0 -8 -1.5 -15.833 -4.5 -23.5l-9.5 -24.5c-3.33301 -8.66699 -6.5 -18.167 -9.5 -28.5s-4.5 -22.166 -4.5 -35.499
c0 -1.33301 -0.166992 -3.83301 -0.5 -7.5s-0.333008 -7.66699 0 -12s0.833008 -8.16602 1.5 -11.499s2 -5 4 -5c2.66699 0 7 1.66699 13 5l20 11c13.333 7.33301 24.166 16.166 32.499 26.499s15.666 20.166 21.999 29.499s13 17.166 20 23.499s16.167 9.5 27.5 9.5
c10 0 19 -3.66699 27 -11s12 -16 12 -26z" />
    <glyph glyph-name="plus" unicode="+" 
d="M237 505h46v-228h204v-46h-204v-231h-46v231h-204v46h204v228z" />
    <glyph glyph-name="comma" unicode="," horiz-adv-x="260" 
d="M60 -135l35 26.499c12.667 9.66699 24 20.5 34 32.5s17.833 24.833 23.5 38.5s7.5 28.5 5.5 44.5c-5.33301 -3.33301 -10.333 -6 -15 -8s-10 -3 -16 -3c-15.333 0 -28 4.83301 -38 14.5s-15 22.167 -15 37.5s5.33301 28.166 16 38.499s23.667 15.5 39 15.5
c12 0 22.5 -2.5 31.5 -7.5s16.5 -11.5 22.5 -19.5s10.5 -17.167 13.5 -27.5s4.5 -20.833 4.5 -31.5c0 -23.333 -3.5 -43.166 -10.5 -59.499s-16.5 -30.666 -28.5 -42.999s-25.833 -23.833 -41.5 -34.5l-49.5 -33z" />
    <glyph glyph-name="hyphen" unicode="-" horiz-adv-x="240" 
d="M0 191v67h241v-67h-241z" />
    <glyph glyph-name="period" unicode="." horiz-adv-x="260" 
d="M130 -13c-15.333 0 -28.6641 5.5 -39.9971 16.5s-17 24.167 -17 39.5s5.16699 28.833 15.5 40.5s23.166 17.5 38.499 17.5s29.166 -5 41.499 -15s18.5 -23.333 18.5 -40c0 -15.333 -5.33301 -29 -16 -41s-24.334 -18 -41.001 -18z" />
    <glyph glyph-name="slash" unicode="/" horiz-adv-x="580" 
d="M37 -135l438 817h45l-441 -817h-42z" />
    <glyph glyph-name="zero" unicode="0" 
d="M264 672c26 0 49.498 -5.33008 70.498 -15.9971s39.5 -25 55.5 -43s29.833 -38.667 41.5 -62s21.167 -47.5 28.5 -72.5s12.833 -49.833 16.5 -74.5s5.5 -47.334 5.5 -68.001c0 -32.667 -4.16699 -69.167 -12.5 -109.5s-21.666 -78.333 -39.999 -114
s-42.166 -65.5 -71.499 -89.5s-64.666 -36 -105.999 -36c-24.667 0 -47.167 5.66699 -67.5 17s-38.333 26.166 -54 44.499s-29.334 39.166 -41.001 62.499s-21.334 47.333 -29.001 72s-13.334 49 -17.001 73s-5.5 45.667 -5.5 65c0 20.667 1.83301 43.667 5.5 69
s9.5 51 17.5 77s18 51.333 30 76s26.333 46.5 43 65.5s35.834 34.333 57.501 46s45.834 17.5 72.501 17.5zM381.998 363.003c0 12.667 -0.166992 28.668 -0.5 48.001s-1.66602 39.5 -3.99902 60.5s-5.83301 42.167 -10.5 63.5s-11.167 40.333 -19.5 57
s-19 30.334 -32 41.001s-28.833 16 -47.5 16c-20 0 -36.667 -4.66699 -50 -14s-24.333 -21.333 -33 -36s-15.5 -30.5 -20.5 -47.5s-8.83301 -33.5 -11.5 -49.5l-15 -199c0 -13.333 0.166992 -29.833 0.5 -49.5s1.33301 -40.334 3 -62.001s4.83398 -43.334 9.50098 -65.001
s11.167 -41.167 19.5 -58.5s19.166 -31.333 32.499 -42s29.666 -16 48.999 -16c20.667 0 38 5 52 15s25.333 22.833 34 38.5s15.167 32.667 19.5 51s7.83301 35.833 10.5 52.5z" />
    <glyph glyph-name="one" unicode="1" 
d="M311 148c0 -14 0.333008 -30.3271 1 -48.9941s2.66699 -34.667 6 -48c2 -8 6.83301 -14 14.5 -18s16.334 -6.83301 26.001 -8.5s19.334 -2.5 29.001 -2.5s18.167 -0.333008 25.5 -1v-23l-75 2l-75 2l-76.5 -2l-76.5 -2v23c6.66699 0 15.167 0.166992 25.5 0.5
s20.666 1.16602 30.999 2.49902s19.833 3.5 28.5 6.5s14.667 7.83301 18 14.5c2 4.66699 3.66699 11.667 5 21s2.33301 19.166 3 29.499s1 20.166 1 29.499v23v356v20.5c0 8.33301 -0.333008 16.666 -1 24.999s-1.83398 16.5 -3.50098 24.5s-3.83398 14.333 -6.50098 19
c-5.33301 9.33301 -14.333 14.666 -27 15.999s-24.667 2 -36 2h-58v20c20.667 1.33301 40.334 2.83301 59.001 4.5s37 4.16699 55 7.5s35.667 8.16602 53 14.499s35.333 14.5 54 24.5v-534z" />
    <glyph glyph-name="two" unicode="2" 
d="M461 85l-27.9961 -141.001h-22l2 36c1.33301 11.333 -0.833984 17.5 -6.50098 18.5s-13.167 1.5 -22.5 1.5h-289h-51c19.333 36 42.166 69.667 68.499 101s54.166 62 83.499 92l63.5 64c21 21.333 39.833 43.833 56.5 67.5s30.167 49 40.5 76s15.5 57.167 15.5 90.5
c0 20 -2.5 39.5 -7.5 58.5s-12.833 35.833 -23.5 50.5s-24.167 26.5 -40.5 35.5s-35.833 13.5 -58.5 13.5c-17.333 0 -33.333 -2.66699 -48 -8s-27.667 -13 -39 -23s-20.166 -22.167 -26.499 -36.5s-9.5 -30.5 -9.5 -48.5c0 -12 2.16699 -24 6.5 -36
s10.333 -22.833 18 -32.5s16.834 -17.334 27.501 -23.001s22.667 -8.5 36 -8.5c11.333 0 21.666 2.83301 30.999 8.5s17.666 12.5 24.999 20.5c-1.33301 -11.333 -5 -21.666 -11 -30.999s-13.5 -17.333 -22.5 -24s-19 -11.667 -30 -15s-21.833 -5 -32.5 -5
c-36.667 0 -65 11.833 -85 35.5s-30 53.167 -30 88.5c0 27.333 6 51 18 71s27.667 36.667 47 50s41 23.333 65 30s48 10 72 10c28.667 0 56.167 -3.83301 82.5 -11.5s49.5 -19.334 69.5 -35.001s36 -35.167 48 -58.5s18 -50.666 18 -81.999
c0 -29.333 -4.66699 -55.166 -14 -77.499s-21.833 -42.833 -37.5 -61.5s-33.334 -36 -53.001 -52l-60.5 -48c-31.333 -23.333 -61.833 -48 -91.5 -74s-56.167 -55 -79.5 -87h325z" />
    <glyph glyph-name="three" unicode="3" 
d="M273 346c-18 0 -31.999 -3.8252 -41.999 -11.4922s-18.5 -16 -25.5 -25s-13.667 -17.167 -20 -24.5s-14.833 -11 -25.5 -11c-5.33301 0 -9.83301 1.66699 -13.5 5s-5.5 7.66602 -5.5 12.999c0 6 2.16699 11.5 6.5 16.5s9.5 9.66699 15.5 14s12.167 8.16602 18.5 11.499
s11.5 6.33301 15.5 9c19.333 12 37.666 24 54.999 36s32.5 25.333 45.5 40s23.333 31.334 31 50.001s11.5 40.667 11.5 66c0 30 -7.33301 55 -22 75s-39 30 -73 30c-14 0 -27.333 -2 -40 -6s-24 -9.83301 -34 -17.5s-17.833 -17.167 -23.5 -28.5s-8.5 -24.333 -8.5 -39
c0 -17.333 5.33301 -33.333 16 -48s25.667 -22 45 -22c12 0 22.5 2.16699 31.5 6.5s18.167 10.166 27.5 17.499c-6.66699 -21.333 -18.5 -37.333 -35.5 -48s-36.5 -16 -58.5 -16c-24.667 0 -45.5 7.66699 -62.5 23s-25.5 35.666 -25.5 60.999c0 24.667 6 46.167 18 64.5
s27.5 33.833 46.5 46.5s40 22.167 63 28.5s45.167 9.5 66.5 9.5c20 0 39.833 -2.5 59.5 -7.5s37.334 -12.667 53.001 -23s28.334 -23.5 38.001 -39.5s14.5 -35.333 14.5 -58c0 -23.333 -5.16699 -44 -15.5 -62s-23.5 -34 -39.5 -48s-33.667 -26.167 -53 -36.5
s-38 -19.833 -56 -28.5l2 -2c5.33301 0.666992 10.5 1 15.5 1s10.167 0.333008 15.5 1c24 0 46.5 -3.16699 67.5 -9.5s39.333 -16 55 -29s28.167 -29 37.5 -48s14 -41.5 14 -67.5c0 -35.333 -7.83301 -67 -23.5 -95s-36 -51.833 -61 -71.5s-53.333 -34.834 -85 -45.501
s-63.834 -16 -96.501 -16c-14 0 -30.5 1.5 -49.5 4.5s-36.833 8.16699 -53.5 15.5s-30.834 17.166 -42.501 29.499s-17.5 27.833 -17.5 46.5c0 11.333 4.33301 20.666 13 27.999s18.667 11 30 11c13.333 0 23.333 -2.83301 30 -8.5s11.834 -12.5 15.501 -20.5s7 -17 10 -27
s7.66699 -19 14 -27s15.166 -14.833 26.499 -20.5s27.333 -8.5 48 -8.5c27.333 0 50 5.16699 68 15.5s32.5 24 43.5 41s18.833 36.5 23.5 58.5s7 44.667 7 68c0 18 -1.33301 36.167 -4 54.5s-7.66699 34.666 -15 48.999s-18 26.166 -32 35.499s-32.333 14 -55 14z" />
    <glyph glyph-name="four" unicode="4" 
d="M389 214l-0.00292969 -64.999c0 -14 0.333008 -30.5 1 -49.5s3 -35.167 7 -48.5c2.66699 -9.33301 7.83398 -16 15.501 -20s16.167 -6.66699 25.5 -8s18.833 -1.83301 28.5 -1.5s18.167 0.166016 25.5 -0.500977v-23l-71 2l-70 2l-76.5 -2l-76.5 -2v23
c5.33301 0 12.333 0.166992 21 0.5s17.334 1 26.001 2s16.834 2.66699 24.501 5s13.167 5.5 16.5 9.5c4.66699 4.66699 8.16699 11.834 10.5 21.501s4 20 5 31s1.66699 21.667 2 32s0.5 19.166 0.5 26.499v65h-267v35l328 427h24v-426h116v-36h-116zM303.997 250.001v299h-2
l-227 -299h229z" />
    <glyph glyph-name="five" unicode="5" 
d="M124 351l1.99414 -1.99707c17.333 24 40 41.833 68 53.5s57 17.5 87 17.5c27.333 0 52.5 -4.5 75.5 -13.5s42.833 -21.5 59.5 -37.5s29.667 -35.333 39 -58s14 -47.667 14 -75c0 -38 -7.33301 -72.333 -22 -103s-34.5 -56.834 -59.5 -78.501
s-53.833 -38.334 -86.5 -50.001s-67 -17.5 -103 -17.5c-14 0 -30.167 1.5 -48.5 4.5s-35.666 8.16699 -51.999 15.5s-30.333 17 -42 29s-17.5 27 -17.5 45c0 11.333 3.83301 21.166 11.5 29.499s17.834 12.5 30.501 12.5c12 0 21 -2.83301 27 -8.5s10.833 -12.667 14.5 -21
s7 -17.333 10 -27s7.5 -18.667 13.5 -27s14.333 -15.333 25 -21s25.334 -8.5 44.001 -8.5c31.333 0 57 6.66699 77 20s35.833 30.5 47.5 51.5s19.667 44.667 24 71s6.5 52.5 6.5 78.5c0 19.333 -1.66699 38.333 -5 57s-9.5 35.5 -18.5 50.5s-21 27 -36 36
s-34.167 13.5 -57.5 13.5c-10 0 -21.667 -1.83301 -35 -5.5s-26.166 -9 -38.499 -16s-22.666 -15.333 -30.999 -25s-12.5 -20.5 -12.5 -32.5c0 -4 0.333008 -9.16699 1 -15.5s0.833984 -12.5 0.500977 -18.5s-1.83301 -11.333 -4.5 -16s-7.33398 -7 -14.001 -7
c-8.66699 0 -15 2.66699 -19 8s-6 12 -6 20l15 402c19.333 -18.667 42.5 -33.167 69.5 -43.5s53.833 -15.5 80.5 -15.5c34 0 62.167 5.5 84.5 16.5s45.5 28.5 69.5 52.5c-3.33301 -24.667 -10.666 -46.5 -21.999 -65.5s-25.5 -34.833 -42.5 -47.5
s-36.167 -22.167 -57.5 -28.5s-44 -9.5 -68 -9.5c-15.333 0 -30.833 1.16699 -46.5 3.5s-31.5 5.5 -47.5 9.5z" />
    <glyph glyph-name="six" unicode="6" 
d="M495 217c0 -30 -5.49902 -59 -16.499 -87s-26.333 -52.5 -46 -73.5s-43 -37.833 -70 -50.5s-56.167 -19 -87.5 -19c-41.333 0 -76.333 9.33301 -105 28s-52 42.5 -70 71.5s-31 61.333 -39 97s-12 70.5 -12 104.5c0 26.667 1.83301 54.667 5.5 84
s9.83398 58.333 18.501 87s19.834 55.834 33.501 81.501s30.167 48.167 49.5 67.5s42.166 34.833 68.499 46.5s56.166 17.5 89.499 17.5c11.333 0 24.333 -1.33301 39 -4s28.667 -7 42 -13s24.666 -14 33.999 -24s14 -22.333 14 -37c0 -11.333 -4 -21.333 -12 -30
s-18 -13 -30 -13c-15.333 0 -26.666 4.83301 -33.999 14.5s-14 20.5 -20 32.5s-13.167 22.833 -21.5 32.5s-21.833 14.5 -40.5 14.5c-22.667 0 -41.667 -5.33301 -57 -16s-28 -24.667 -38 -42s-17.5 -37 -22.5 -59s-8.83301 -44.333 -11.5 -67
s-4.33398 -44.334 -5.00098 -65.001s-1.33398 -38.667 -2.00098 -54l2 -2c19.333 26 40.333 47 63 63s51.334 24 86.001 24c30 0 57 -5.66699 81 -17s44.5 -26.5 61.5 -45.5s30 -41.333 39 -67s13.5 -52.5 13.5 -80.5zM149.001 241c0 -21.333 1 -45.333 3 -72
s7.16699 -51.834 15.5 -75.501s21 -43.5 38 -59.5s40.167 -24 69.5 -24c27.333 0 49 6.33301 65 19s28 28.834 36 48.501s13.167 41 15.5 64s3.5 45.167 3.5 66.5c0 20 -0.833008 41 -2.5 63s-6.33398 42.167 -14.001 60.5s-19 33.5 -34 45.5s-35.833 18 -62.5 18
c-14.667 0 -28.5 -2.66699 -41.5 -8s-25 -12.5 -36 -21.5s-21.167 -19.167 -30.5 -30.5s-17.666 -23 -24.999 -35v-59z" />
    <glyph glyph-name="seven" unicode="7" 
d="M436 571l-221.002 -0.000976562c-21.333 0 -38.666 -0.166992 -51.999 -0.5s-24.166 -2.83301 -32.499 -7.5s-15.333 -12.334 -21 -23.001s-11.834 -26 -18.501 -46l-11 -34h-24l58 274h26l-2 -10c-1.33301 -5.33301 -2.66602 -12.166 -3.99902 -20.499
s-2 -15.166 -2 -20.499c0 -8 1.5 -14 4.5 -18s7.5 -6.66699 13.5 -8s13.167 -1.83301 21.5 -1.5s17.833 0.5 28.5 0.5h295v-17c-86.667 -167.333 -150.667 -343 -192 -527l-7.5 -36c-3 -14 -7.16699 -27.667 -12.5 -41s-12.333 -24.666 -21 -33.999s-19.667 -14 -33 -14
s-24.666 4.83301 -33.999 14.5s-14 21.167 -14 34.5c0 9.33301 2.66699 22.166 8 38.499s12.166 34.333 20.499 54s17.5 40.167 27.5 61.5s20.167 41.833 30.5 61.5l28.5 54.5l21 40z" />
    <glyph glyph-name="eight" unicode="8" 
d="M208 325c-32 -17.333 -55.5 -40.835 -70.5 -70.502s-22.5 -62.5 -22.5 -98.5c0 -47.333 13.667 -83.5 41 -108.5s64.333 -37.5 111 -37.5c19.333 0 37.833 3.16699 55.5 9.5s33.167 15.333 46.5 27s24 25.834 32 42.501s12 35 12 55
c0 20.667 -3.83301 38.334 -11.5 53.001s-17.5 27.5 -29.5 38.5s-25.667 20.5 -41 28.5l-47 24zM344 365.998c18.667 -9.33301 36.167 -20 52.5 -32s30.666 -25.667 42.999 -41s22 -32.166 29 -50.499s10.5 -38.833 10.5 -61.5c0 -30 -6.16699 -57 -18.5 -81
s-28.666 -44.333 -48.999 -61s-43.666 -29.5 -69.999 -38.5s-53.833 -13.5 -82.5 -13.5c-24 0 -49 3.33301 -75 10s-49.5 16.834 -70.5 30.501s-38.333 30.667 -52 51s-20.5 44.5 -20.5 72.5c0 23.333 4 44.333 12 63s18.5 35.5 31.5 50.5s28.167 28.333 45.5 40
s35.666 22.167 54.999 31.5c-16.667 8.66699 -32.334 18.334 -47.001 29.001s-27.5 22.667 -38.5 36s-19.667 28.166 -26 44.499s-9.5 34.833 -9.5 55.5c0 23.333 5 45.666 15 66.999s23.667 40 41 56c19.333 17.333 41 29.666 65 36.999s48.667 11 74 11
c22 0 44.333 -2.83301 67 -8.5s43.334 -14.834 62.001 -27.501c19.333 -13.333 35.166 -30 47.499 -50s18.5 -41.667 18.5 -65c0 -19.333 -2.83301 -36.5 -8.5 -51.5s-13.5 -28.667 -23.5 -41s-21.667 -23.666 -35 -33.999s-27.666 -19.833 -42.999 -28.5zM323 374.998
c19.333 19.333 34.667 39.1699 46 59.5029s17 44.5 17 72.5c0 20 -2.83301 38.5 -8.5 55.5s-14 32 -25 45s-24.667 23.167 -41 30.5s-34.833 11 -55.5 11c-16.667 0 -32.667 -2.33301 -48 -7s-29 -11.834 -41 -21.501s-21.5 -21.334 -28.5 -35.001s-10.5 -29.5 -10.5 -47.5
s3.83301 -33.833 11.5 -47.5s17.667 -25.5 30 -35.5s26 -18.833 41 -26.5s29.833 -14.834 44.5 -21.501z" />
    <glyph glyph-name="nine" unicode="9" 
d="M476 371c0 -26.667 -1.83203 -54.665 -5.49902 -83.998s-9.83398 -58.333 -18.501 -87s-19.834 -55.834 -33.501 -81.501s-30.334 -48.167 -50.001 -67.5s-42.5 -34.833 -68.5 -46.5s-55.667 -17.5 -89 -17.5c-11.333 0 -24.5 1.33301 -39.5 4s-29.167 7 -42.5 13
s-24.5 14 -33.5 24s-13.5 22.333 -13.5 37c0 11.333 3.83301 21.333 11.5 30s17.834 13 30.501 13c15.333 0 26.5 -4.83301 33.5 -14.5s13.5 -20.5 19.5 -32.5s13.333 -22.833 22 -32.5s22.334 -14.5 41.001 -14.5c22.667 0 41.667 5.33301 57 16s27.833 24.834 37.5 42.501
s17.167 37.5 22.5 59.5s9.16602 44.167 11.499 66.5s3.83301 44.166 4.5 65.499s1.66699 39.666 3 54.999h-2c-19.333 -26 -40.5 -46.833 -63.5 -62.5s-51.5 -23.5 -85.5 -23.5c-30 0 -57 5.66699 -81 17s-44.5 26.5 -61.5 45.5s-30.167 41.167 -39.5 66.5s-14 52 -14 80
c0 30 5.5 59 16.5 87s26.333 52.5 46 73.5s43 37.833 70 50.5s56.5 19 88.5 19c40.667 0 75.334 -9.33301 104.001 -28s52 -42.5 70 -71.5s31.167 -61.333 39.5 -97s12.5 -70.5 12.5 -104.5zM376.001 417.002c0 21.333 -1.00098 45.501 -3.00098 72.501
s-7.16699 52.333 -15.5 76s-21 43.5 -38 59.5s-40.167 24 -69.5 24c-27.333 0 -49 -6.33301 -65 -19s-28.167 -28.834 -36.5 -48.501s-13.666 -41.167 -15.999 -64.5s-3.5 -45.333 -3.5 -66c0 -20 0.833008 -41 2.5 -63s6.33398 -42.167 14.001 -60.5s19 -33.333 34 -45
s35.833 -17.5 62.5 -17.5c14.667 0 28.667 2.66699 42 8s25.5 12.5 36.5 21.5s21.167 19 30.5 30s17.666 22.5 24.999 34.5v58z" />
    <glyph glyph-name="colon" unicode=":" horiz-adv-x="260" 
d="M130 323c-15.333 0 -28.6641 5.5 -39.9971 16.5s-17 24.167 -17 39.5s5.16699 28.833 15.5 40.5s23.166 17.5 38.499 17.5s29.166 -5 41.499 -15s18.5 -23.333 18.5 -40c0 -15.333 -5.33301 -29 -16 -41s-24.334 -18 -41.001 -18zM130.002 -13
c-15.333 0 -28.6641 5.5 -39.9971 16.5s-17 24.167 -17 39.5s5.16699 28.833 15.5 40.5s23.166 17.5 38.499 17.5s29.166 -5 41.499 -15s18.5 -23.333 18.5 -40c0 -15.333 -5.33301 -29 -16 -41s-24.334 -18 -41.001 -18z" />
    <glyph glyph-name="semicolon" unicode=";" horiz-adv-x="260" 
d="M60 -138l35 26.499c12.667 9.66699 24 20.5 34 32.5s17.833 24.833 23.5 38.5s7.5 28.5 5.5 44.5c-5.33301 -3.33301 -10.333 -6 -15 -8s-10 -3 -16 -3c-15.333 0 -28 4.83301 -38 14.5s-15 22.167 -15 37.5s5.33301 28.166 16 38.499s23.667 15.5 39 15.5
c12 0 22.5 -2.5 31.5 -7.5s16.5 -11.5 22.5 -19.5s10.5 -17.167 13.5 -27.5s4.5 -20.833 4.5 -31.5c0 -23.333 -3.5 -43.166 -10.5 -59.499s-16.5 -30.666 -28.5 -42.999s-25.833 -23.833 -41.5 -34.5l-49.5 -33zM132 322.999c-15.333 0 -28.6641 5.5 -39.9971 16.5
s-17 24.167 -17 39.5s5.16699 28.833 15.5 40.5s23.166 17.5 38.499 17.5s29.166 -5 41.499 -15s18.5 -23.333 18.5 -40c0 -15.333 -5.33301 -29 -16 -41s-24.334 -18 -41.001 -18z" />
    <glyph glyph-name="less" unicode="&#x3c;" 
d="M489 31v-51l-458 232v64l458 232v-53l-416 -211z" />
    <glyph glyph-name="equal" unicode="=" 
d="M487 313h-454v46h454v-46zM487 147h-454v46h454v-46z" />
    <glyph glyph-name="greater" unicode="&#x3e;" 
d="M447 244l-416 211v53l458 -232v-64l-458 -232v51z" />
    <glyph glyph-name="question" unicode="?" horiz-adv-x="400" 
d="M111 161l-0.00195312 187.001h61c18.667 0 36.167 1.83301 52.5 5.5s30.666 9.66699 42.999 18s22 19.5 29 33.5s10.5 31.333 10.5 52c0 16.667 -2.83301 33.5 -8.5 50.5s-13.667 32.167 -24 45.5s-23 24.166 -38 32.499s-31.833 12.5 -50.5 12.5
c-15.333 0 -30.166 -1.83301 -44.499 -5.5s-28.833 -5.5 -43.5 -5.5c-12 0 -23.5 3.16699 -34.5 9.5s-16.5 16.5 -16.5 30.5c0 16 6 27.5 18 34.5s25 10.5 39 10.5c31.333 0 61.166 -6.83301 89.499 -20.5s53.333 -32 75 -55s38.834 -49.167 51.501 -78.5s19 -59.333 19 -90
s-5.33301 -56.667 -16 -78s-25.167 -38.5 -43.5 -51.5s-39.666 -22.333 -63.999 -28s-50.166 -8.5 -77.499 -8.5v-101h-27zM129.998 -12.999c-15.333 0 -28.6641 5.5 -39.9971 16.5s-17 24.167 -17 39.5s5.16699 28.833 15.5 40.5s23.166 17.5 38.499 17.5
s29.166 -5 41.499 -15s18.5 -23.333 18.5 -40c0 -15.333 -5.33301 -29 -16 -41s-24.334 -18 -41.001 -18z" />
    <glyph glyph-name="at" unicode="@" horiz-adv-x="820" 
d="M500 409l5.5 14.502c1.66699 4.33301 2.5 9.16602 2.5 14.499c0 16.667 -4.83301 31.667 -14.5 45s-24.834 20 -45.501 20c-17.333 0 -33.666 -5.5 -48.999 -16.5s-29.5 -25.167 -42.5 -42.5s-24.667 -37 -35 -59s-19 -43.833 -26 -65.5s-12.333 -42.334 -16 -62.001
s-5.5 -36.167 -5.5 -49.5c0 -15.333 5.16699 -28.333 15.5 -39s24.166 -16 41.499 -16c16 0 30.333 4 43 12s23.834 18 33.501 30s18 25 25 39s12.833 27 17.5 39zM541 516.002l85.001 0.00390625l-94 -253c-2 -4.66699 -4.33301 -10.834 -7 -18.501
s-5.33398 -15.834 -8.00098 -24.501s-5 -16.834 -7 -24.501s-3 -13.834 -3 -18.501c0 -7.33301 2.33301 -12.666 7 -15.999s10.667 -5 18 -5c9.33301 0 19.333 1.5 30 4.5s21.167 6.66699 31.5 11s20.166 9.33301 29.499 15s17.333 11.5 24 17.5
c25.333 21.333 45.166 47 59.499 77s21.5 65.333 21.5 106c0 31.333 -6.83301 62.166 -20.5 92.499s-33.5 57.333 -59.5 81s-57.5 42.834 -94.5 57.501s-78.833 22 -125.5 22c-45.333 0 -86.666 -8.16699 -123.999 -24.5s-69.666 -38.5 -96.999 -66.5
s-48.5 -60.5 -63.5 -97.5s-22.5 -76.167 -22.5 -117.5c0 -42 7.33301 -82.167 22 -120.5s35.167 -71.833 61.5 -100.5s58.333 -51.5 96 -68.5s79.5 -25.5 125.5 -25.5c32 0 62.667 4 92 12s56.5 19.167 81.5 33.5s47.333 31.5 67 51.5s36.5 41.667 50.5 65h33
c-12.667 -30 -30.334 -57 -53.001 -81s-48.5 -44.333 -77.5 -61s-60.167 -29.5 -93.5 -38.5s-67 -13.5 -101 -13.5c-51.333 0 -99.166 9 -143.499 27s-83 42.5 -116 73.5s-58.833 67.333 -77.5 109s-28 86.167 -28 133.5c0 46 9.5 89.667 28.5 131
s44.833 77.666 77.5 108.999s71 56.166 115 74.499s91.333 27.5 142 27.5c44.667 0 87.5 -6.83301 128.5 -20.5s76.833 -33 107.5 -58s55.167 -55.167 73.5 -90.5s27.5 -74.666 27.5 -117.999c0 -31.333 -6.33301 -62.666 -19 -93.999s-29.334 -59 -50.001 -83
c-20.667 -23.333 -46 -42.833 -76 -58.5s-62 -23.5 -96 -23.5c-8.66699 0 -17.667 1 -27 3s-17.833 5.16699 -25.5 9.5s-14.167 9.83301 -19.5 16.5s-8.66602 14.334 -9.99902 23.001c-15.333 -14.667 -33.833 -27 -55.5 -37s-43.5 -15 -65.5 -15
c-19.333 0 -36.5 3.5 -51.5 10.5s-27.5 16.5 -37.5 28.5s-17.667 25.667 -23 41s-8 31.333 -8 48c0 29.333 5.33301 60.166 16 92.499s26 62.166 46 89.499s44.167 49.833 72.5 67.5s60.5 26.5 96.5 26.5c10 0 20.333 -1 31 -3s20.667 -5.33301 30 -10
s17.5 -10.5 24.5 -17.5s11.833 -15.5 14.5 -25.5h2z" />
    <glyph glyph-name="A" unicode="A" horiz-adv-x="660" 
d="M158 215l-13.9951 -33.9971c-5.33301 -13.333 -10.5 -27 -15.5 -41s-9.33301 -27.667 -13 -41s-5.5 -25 -5.5 -35c0 -10.667 2.83301 -18.834 8.5 -24.501s12.667 -9.66699 21 -12s17.166 -3.83301 26.499 -4.5s17.666 -1.33398 24.999 -2.00098v-23l-55 2l-55 2l-52 -2
l-52 -2v23c13.333 1.33301 25 3.5 35 6.5s18.667 7.33301 26 13s13.666 12.667 18.999 21s10.666 18.5 15.999 30.5l41.5 95.5l41.5 95.5l153 393h34l202 -508l10.5 -25l13.5 -31l14 -30.5c4.66699 -9.66699 9.33398 -17.5 14.001 -23.5
c11.333 -14.667 24.166 -24 38.499 -28s30.166 -7 47.499 -9v-23l-71 2l-71 2l-72.5 -2l-72.5 -2v23c6.66699 0 14.5 0.166992 23.5 0.5s17.5 1.66602 25.5 3.99902s14.667 6 20 11s8 12.5 8 22.5c0 12.667 -2.16699 26 -6.5 40s-8.83301 26.667 -13.5 38l-39 103h-247z
M401.005 272.003l-110 282l-111 -282h221z" />
    <glyph glyph-name="B" unicode="B" horiz-adv-x="640" 
d="M225 359l32.001 0.000976562c22 0 42.5 0.666992 61.5 2s38.167 7.66602 57.5 18.999c21.333 13.333 35.166 30.333 41.499 51s9.5 43 9.5 67c0 44.667 -11.667 78 -35 100s-57.333 33 -102 33h-13.5h-17.5c-6 0 -11.667 -0.333008 -17 -1s-9 -2 -11 -4
c-2 -1.33301 -3.33301 -4 -4 -8s-1.16699 -8.16699 -1.5 -12.5s-0.5 -8.5 -0.5 -12.5v-9v-225zM225.001 193.001v-29.998c0 -11.333 0.5 -22.833 1.5 -34.5s2.16699 -23 3.5 -34s3.66602 -20.167 6.99902 -27.5c4 -10.667 10 -18.834 18 -24.501
s16.833 -9.83398 26.5 -12.501s19.834 -4.16699 30.501 -4.5s20.667 -0.5 30 -0.5c49.333 0 85.333 13.5 108 40.5s34 64.5 34 112.5c0 28.667 -5.5 54.5 -16.5 77.5s-29.5 41.5 -55.5 55.5c-23.333 12 -48.833 18.5 -76.5 19.5s-54.167 1.5 -79.5 1.5h-31v-139z
M122.001 470.003v30.499c0 12.333 -0.333008 25 -1 38s-1.66699 25.333 -3 37s-3 20.834 -5 27.501c-2.66699 8.66699 -7.16699 15.334 -13.5 20.001s-13.5 8 -21.5 10s-16.333 3.16699 -25 3.5s-17 0.5 -25 0.5v23l71.5 -2l71.5 -2l59.5 2l59.5 2
c26 0.666992 53.5 -0.833008 82.5 -4.5s55.667 -11.334 80 -23.001s44.333 -27.834 60 -48.501s23.5 -47.667 23.5 -81c0 -22.667 -4.33301 -42.334 -13 -59.001s-20 -31 -34 -43s-30 -22 -48 -30s-36.333 -15 -55 -21v-2c28 -2.66699 54.5 -6.83398 79.5 -12.501
s47.167 -15.167 66.5 -28.5c23.333 -16 42 -35.667 56 -59s21 -49.666 21 -78.999c0 -33.333 -9.16699 -62 -27.5 -86s-41.5 -43.667 -69.5 -59c-27.333 -14 -57.5 -21.833 -90.5 -23.5s-64.167 -2.5 -93.5 -2.5l-65.5 2l-65.5 2l-84.5 -2l-84.5 -2v23
c8 0 16.333 0.166992 25 0.5s17 1.5 25 3.5s15.167 5.33301 21.5 10s10.833 11.334 13.5 20.001c2 6.66699 3.66699 15.834 5 27.501s2.33301 24 3 37s1 25.667 1 38v30.5v282z" />
    <glyph glyph-name="C" unicode="C" horiz-adv-x="680" 
d="M616 657l14.999 0.00195312l8 -197h-23c-4 28 -11.833 53.5 -23.5 76.5s-26.5 42.833 -44.5 59.5s-39.167 29.667 -63.5 39s-50.833 14 -79.5 14c-44.667 0 -82 -10 -112 -30s-54 -45.833 -72 -77.5s-30.667 -66.834 -38 -105.501s-11 -76.667 -11 -114
c0 -38 4 -75.5 12 -112.5s21.167 -70.333 39.5 -100s42.5 -53.667 72.5 -72s67 -27.5 111 -27.5c34.667 0 64.334 5.83301 89.001 17.5s45.5 27.5 62.5 47.5s31 43.333 42 70s20.167 55 27.5 85h18v-219h-13l-24 51c-34 -26.667 -68.5 -45.834 -103.5 -57.501
s-74.167 -17.5 -117.5 -17.5c-50.667 0 -97 7.83301 -139 23.5s-78 38.167 -108 67.5s-53.167 64.5 -69.5 105.5s-24.5 87.167 -24.5 138.5c0 50.667 8.66699 97.5 26 140.5s41.5 80 72.5 111s68 55.167 111 72.5s89.833 26 140.5 26c20.667 0 39.5 -1.16699 56.5 -3.5
s33.5 -6 49.5 -11s31.833 -11.5 47.5 -19.5s32.167 -17.333 49.5 -28z" />
    <glyph glyph-name="D" unicode="D" horiz-adv-x="740" 
d="M122 468l-0.00195312 30.4951c0 12.333 -0.333008 25 -1 38s-1.66699 25.333 -3 37s-3 20.834 -5 27.501c-2.66699 8.66699 -7.16699 15.334 -13.5 20.001s-13.5 8 -21.5 10s-16.333 3.16699 -25 3.5s-17 0.5 -25 0.5v25l62.5 -2l63.5 -2l81 2l81 2
c52.667 0.666992 101.667 -6.66602 147 -21.999s84.5 -37.833 117.5 -67.5s59 -66.167 78 -109.5s28.5 -92 28.5 -146c0 -53.333 -8.33301 -100 -25 -140s-40.167 -73.333 -70.5 -100s-66.666 -46.5 -108.999 -59.5s-89.166 -18.833 -140.499 -17.5l-89 2l-89 2l-68.5 -2
l-67.5 -2v23c8 0 16.333 0.166992 25 0.5s17 1.5 25 3.5s15.167 5.33301 21.5 10s10.833 11.334 13.5 20.001c2 6.66699 3.66699 15.834 5 27.501s2.33301 24 3 37s1 25.667 1 38v30.5v280zM224.998 173.995c0 -17.333 0.166016 -36.498 0.499023 -57.498
s5.5 -38.833 15.5 -53.5c6 -8.66699 13.333 -15.5 22 -20.5s18.167 -8.83301 28.5 -11.5s20.833 -4.33398 31.5 -5.00098s20.667 -1 30 -1c44 0 79.5 7.33301 106.5 22s48.167 34.5 63.5 59.5s25.666 54 30.999 87s8 68.167 8 105.5c0 49.333 -4.16699 94.5 -12.5 135.5
s-22.666 76.167 -42.999 105.5s-48 52.166 -83 68.499s-79.167 24.5 -132.5 24.5h-13.5c-5.66699 0 -11.5 -0.166992 -17.5 -0.5s-11.833 -1 -17.5 -2s-9.5 -2.5 -11.5 -4.5c-3.33301 -3.33301 -5.16602 -8.33301 -5.49902 -15s-0.5 -12 -0.5 -16v-421z" />
    <glyph glyph-name="E" unicode="E" horiz-adv-x="620" 
d="M122 466v30.4951c0 12.333 -0.333008 25 -1 38s-1.66699 25.333 -3 37s-3.33301 20.834 -6 27.501c-3.33301 8.66699 -8.16602 15.334 -14.499 20.001s-13.5 8 -21.5 10s-16.333 3.16699 -25 3.5s-17 0.5 -25 0.5v27h497v-151h-23c-4.66699 29.333 -11.5 52.333 -20.5 69
s-20.667 29 -35 37s-31.5 13 -51.5 15s-43.333 3 -70 3h-72h-17c-4 0 -6.66699 -1.33301 -8 -4c-1.33301 -2 -1.83301 -5.83301 -1.5 -11.5s0.5 -14.167 0.5 -25.5v-237c34 -1.33301 61.333 0.833984 82 6.50098s36.834 14.167 48.501 25.5s19.667 24.833 24 40.5
s7.16602 32.5 8.49902 50.5h23c-0.666992 -22.667 -1.16699 -45.334 -1.5 -68.001s-1.16602 -45.334 -2.49902 -68.001c1.33301 -20.667 2.16602 -41.334 2.49902 -62.001s0.833008 -41.334 1.5 -62.001h-23c-3.33301 26 -9.33301 46.5 -18 61.5s-19.667 26 -33 33
s-29.333 11.333 -48 13s-40 2.5 -64 2.5v-164c0 -7.33301 0.166992 -15.666 0.5 -24.999s1 -18.666 2 -27.999s2.66699 -18.166 5 -26.499s5.83301 -15.5 10.5 -21.5c6.66699 -8.66699 15.167 -15.5 25.5 -20.5s21.5 -8.66699 33.5 -11s24 -3.66602 36 -3.99902
s23 -0.5 33 -0.5c26 0.666992 49.667 2.33398 71 5.00098s39.833 8.66699 55.5 18s28.5 22.666 38.5 39.999s16.667 41 20 71h23l-9 -161h-544v23c8 0 16.333 0.166992 25 0.5s17 1.5 25 3.5s15.167 5.33301 21.5 10s11.166 11.334 14.499 20.001
c2.66699 6.66699 4.66699 15.834 6 27.501s2.33301 24 3 37s1 25.667 1 38v30.5v276z" />
    <glyph glyph-name="F" unicode="F" horiz-adv-x="540" 
d="M535 503l-23 0.00488281l-9.5 31.5c-3 10.333 -6.83301 20.166 -11.5 29.499s-10.667 17.666 -18 24.999s-16.666 13.333 -27.999 18c-21.333 9.33301 -45.333 14.666 -72 15.999s-52 2 -76 2h-46c-10.667 0 -19 -1.66699 -25 -5c-5.33301 -3.33301 -8 -20.333 -8 -51
v-224c34 -1.33301 61.333 0.833984 82 6.50098s36.834 14 48.501 25s19.667 24.167 24 39.5s7.16602 32 8.49902 50h23c-0.666992 -22.667 -1.16699 -45.334 -1.5 -68.001s-1.16602 -45.334 -2.49902 -68.001c1.33301 -20.667 2.16602 -41.334 2.49902 -62.001
s0.833008 -41.334 1.5 -62.001h-23c-3.33301 26 -9.33301 46.333 -18 61s-19.667 25.334 -33 32.001s-29.333 10.667 -48 12s-40 2 -64 2v-126v-30c0 -12 0.333008 -24.5 1 -37.5s1.66699 -25.333 3 -37s3.33301 -20.834 6 -27.501c4 -10 9.66699 -17.333 17 -22
s15.666 -7.83398 24.999 -9.50098s19 -2.33398 29 -2.00098s19.333 0.166016 28 -0.500977v-23l-77 2l-77 2l-76 -2l-78 -2v23c8 0 16.333 0.166992 25 0.5s17 1.5 25 3.5s15.167 5.33301 21.5 10s11.166 11.334 14.499 20.001c2.66699 6.66699 4.66699 15.834 6 27.501
s2.33301 24 3 37s1 25.667 1 38v30.5v282v30.5c0 12.333 -0.333008 25 -1 38s-1.66699 25.333 -3 37s-3.33301 20.834 -6 27.501c-3.33301 8.66699 -8.16602 15.334 -14.499 20.001s-13.5 8 -21.5 10s-16.333 3.16699 -25 3.5s-17 0.5 -25 0.5v23l90 -2l89 -2l160.5 2
l160.5 2z" />
    <glyph glyph-name="G" unicode="G" horiz-adv-x="740" 
d="M626 456l-20.999 0.000976562c-2 28 -7.83301 53.833 -17.5 77.5s-22.834 44 -39.501 61s-36.834 30.333 -60.501 40s-49.834 14.5 -78.501 14.5c-48.667 0 -88.334 -10.167 -119.001 -30.5s-54.834 -46.666 -72.501 -78.999s-29.667 -68.666 -36 -108.999
s-9.5 -80.166 -9.5 -119.499c0 -37.333 3.83301 -73.833 11.5 -109.5s20.5 -67.334 38.5 -95.001s41.5 -50 70.5 -67s64.833 -25.5 107.5 -25.5c50 0 90.333 12 121 36s46 62 46 114c0 16.667 -1.66699 30.334 -5 41.001s-8.5 19 -15.5 25s-15.833 10.333 -26.5 13
s-23.667 4.66699 -39 6v23h262v-23c-13.333 0 -24.166 -1.5 -32.499 -4.5s-14.666 -7.83301 -18.999 -14.5s-7.16602 -14.667 -8.49902 -24s-2 -20.333 -2 -33v-106c-18 0 -32.667 -0.666992 -44 -2s-21.5 -3.5 -30.5 -6.5s-18.5 -7.16699 -28.5 -12.5l-38 -21
c-25.333 -13.333 -50.666 -23 -75.999 -29s-52.333 -9 -81 -9c-48.667 0 -93.5 7.66699 -134.5 23s-76.5 37.166 -106.5 65.499s-53.333 62.666 -70 102.999s-25 85.166 -25 134.499c0 50.667 8.5 98 25.5 142s40.833 82 71.5 114s67.5 57.167 110.5 75.5
s90.5 27.5 142.5 27.5c37.333 0 73.833 -4.83301 109.5 -14.5s68.5 -25.834 98.5 -48.501l21 45h11z" />
    <glyph glyph-name="H" unicode="H" horiz-adv-x="820" 
d="M232 188v-30.5c0 -12.333 0.333008 -25 1 -38s1.66699 -25.333 3 -37s3.33301 -20.834 6 -27.501c3.33301 -8.66699 8.16602 -15.334 14.499 -20.001s13.5 -8 21.5 -10s16.333 -3.16699 25 -3.5s17 -0.5 25 -0.5v-23l-72.5 2l-72.5 2l-75.5 -2l-74.5 -2v23
c8 0 16.333 0.166992 25 0.5s17 1.5 25 3.5s15.167 5.33301 21.5 10s11.166 11.334 14.499 20.001c2.66699 6.66699 4.66699 15.834 6 27.501s2.33301 24 3 37s1 25.667 1 38v30.5v282v30.5c0 12.333 -0.333008 25 -1 38s-1.66699 25.333 -3 37s-3.33301 20.834 -6 27.501
c-3.33301 8.66699 -8.16602 15.334 -14.499 20.001s-13.5 8 -21.5 10s-16.333 3.16699 -25 3.5s-17 0.5 -25 0.5v23l71 -2l72 -2l76 2l76 2v-23c-8 0 -16.333 -0.166992 -25 -0.5s-17 -1.5 -25 -3.5s-15.167 -5.33301 -21.5 -10s-11.166 -11.334 -14.499 -20.001
c-2.66699 -6.66699 -4.66699 -15.834 -6 -27.501s-2.33301 -24 -3 -37s-1 -25.667 -1 -38v-30.5v-116h357v116v30.5c0 12.333 -0.333008 25 -1 38s-1.66699 25.333 -3 37s-3.33301 20.834 -6 27.501c-3.33301 8.66699 -8.16602 15.334 -14.499 20.001s-13.5 8 -21.5 10
s-16.333 3.16699 -25 3.5s-17 0.5 -25 0.5v23l73 -2l73 -2l74.5 2l74.5 2v-23c-8 0 -16.333 -0.166992 -25 -0.5s-17 -1.5 -25 -3.5s-15.167 -5.33301 -21.5 -10s-11.166 -11.334 -14.499 -20.001c-2.66699 -6.66699 -4.66699 -15.834 -6 -27.501s-2.33301 -24 -3 -37
s-1 -25.667 -1 -38v-30.5v-282v-30.5c0 -12.333 0.333008 -25 1 -38s1.66699 -25.333 3 -37s3.33301 -20.834 6 -27.501c3.33301 -8.66699 8.16602 -15.334 14.499 -20.001s13.5 -8 21.5 -10s16.333 -3.16699 25 -3.5s17 -0.5 25 -0.5v-23l-72.5 2l-72.5 2l-75 -2l-75 -2v23
c8 0 16.333 0.166992 25 0.5s17 1.5 25 3.5s15.167 5.33301 21.5 10s11.166 11.334 14.499 20.001c2.66699 6.66699 4.66699 15.834 6 27.501s2.33301 24 3 37s1 25.667 1 38v30.5v134h-357v-134z" />
    <glyph glyph-name="I" unicode="I" horiz-adv-x="360" 
d="M129 470v30.5c0 12.333 -0.333008 25 -1 38s-1.66699 25.333 -3 37s-3.33301 20.834 -6 27.501c-3.33301 8.66699 -8.16602 15.334 -14.499 20.001s-13.5 8 -21.5 10s-16.333 3.16699 -25 3.5s-17 0.5 -25 0.5v23l72 -2l72 -2l75.5 2l75.5 2v-23
c-8 0 -16.333 -0.166992 -25 -0.5s-17 -1.5 -25 -3.5s-15.167 -5.33301 -21.5 -10s-11.166 -11.334 -14.499 -20.001c-2.66699 -6.66699 -4.66699 -15.834 -6 -27.501s-2.33301 -24 -3 -37s-1 -25.667 -1 -38v-30.5v-282v-30.5c0 -12.333 0.333008 -25 1 -38
s1.66699 -25.333 3 -37s3.33301 -20.834 6 -27.501c3.33301 -8.66699 8.16602 -15.334 14.499 -20.001s13.5 -8 21.5 -10s16.333 -3.16699 25 -3.5s17 -0.5 25 -0.5v-23l-71.5 2l-72.5 2l-75.5 -2l-75.5 -2v23c8 0 16.333 0.166992 25 0.5s17 1.5 25 3.5
s15.167 5.33301 21.5 10s11.166 11.334 14.499 20.001c2.66699 6.66699 4.66699 15.834 6 27.501s2.33301 24 3 37s1 25.667 1 38v30.5v282z" />
    <glyph glyph-name="J" unicode="J" horiz-adv-x="340" 
d="M222 -43c-1.33301 -24.667 -3.99609 -49.334 -7.99609 -74.001s-12.667 -47 -26 -67c-21.333 -31.333 -47.333 -52.333 -78 -63s-63.667 -16 -99 -16c-11.333 0 -26 0.666992 -44 2s-35.333 4.5 -52 9.5s-31 12.333 -43 22s-18 22.834 -18 39.501
c0 11.333 4 20.666 12 27.999s17.667 11 29 11c13.333 0 23.666 -4.16699 30.999 -12.5s13.666 -18.166 18.999 -29.499c6.66699 -16.667 14.667 -28.834 24 -36.501s23.666 -11.5 42.999 -11.5c29.333 0 52 6.83301 68 20.5s27 34.834 33 63.501
c1.33301 7.33301 2.66602 16.666 3.99902 27.999s2 23.666 2 36.999v636c0 12 -1 23.333 -3 34s-4.33301 19 -7 25c-3.33301 8.66699 -8.16602 15.334 -14.499 20.001s-13.5 8 -21.5 10s-16.333 3.16699 -25 3.5s-17 0.5 -25 0.5v23l72 -2l72 -2l75.5 2l75.5 2v-23
c-8 0 -16.333 -0.166992 -25 -0.5s-16.834 -1.66602 -24.501 -3.99902s-14.667 -5.83301 -21 -10.5s-11.5 -11 -15.5 -19c-5.33301 -11.333 -8.33301 -28 -9 -50s-1 -42.333 -1 -61v-535z" />
    <glyph glyph-name="K" unicode="K" horiz-adv-x="660" 
d="M225 247l0.00292969 -118.004c0 -24 0.666992 -42.667 2 -56s5.16602 -23.5 11.499 -30.5s16.166 -11.833 29.499 -14.5s32 -5 56 -7v-23l-73 2l-73 2l-76 -2l-76 -2v23c8 0 16.333 0.166992 25 0.5s17 1.5 25 3.5s15.167 5.33301 21.5 10s11.166 11.334 14.499 20.001
c2.66699 6.66699 4.66699 15.834 6 27.501s2.33301 24 3 37s1 25.667 1 38v30.5v282v30.5c0 12.333 -0.333008 25 -1 38s-1.66699 25.333 -3 37s-3.33301 20.834 -6 27.501c-3.33301 8.66699 -8.16602 15.334 -14.499 20.001s-13.5 8 -21.5 10s-16.333 3.16699 -25 3.5
s-17 0.5 -25 0.5v23l71.5 -2l71.5 -2l77.5 2l77.5 2v-23c-24 -2 -42.667 -4.33301 -56 -7s-23.166 -7.5 -29.499 -14.5s-10.166 -17.333 -11.499 -31s-2 -32.167 -2 -55.5v-244l34.5 36l49.5 54l54.5 63c18.333 22 35.166 43.167 50.499 63.5s27.833 38.833 37.5 55.5
s14.5 30 14.5 40c0 10.667 -2.5 18.5 -7.5 23.5s-11.333 8.66699 -19 11s-15.834 3.66602 -24.501 3.99902s-16.667 0.833008 -24 1.5v23l59.5 -2l59.5 -2l52 2l52 2v-23c-14 0 -25.5 -1 -34.5 -3s-17 -5.16699 -24 -9.5s-13.833 -10 -20.5 -17s-14 -15.833 -22 -26.5
l-160 -198l139 -160c2.66699 -4 10.667 -14.333 24 -31l45 -55.5c16.667 -20.333 33.667 -40 51 -59s32 -32.833 44 -41.5c10 -7.33301 19.333 -11.333 28 -12s19 -1.66699 31 -3v-23l-79.5 2l-79.5 2l-76 -2l-76 -2v23h21c9.33301 0 18.666 0.833008 27.999 2.5
s17.5 4.66699 24.5 9s10.5 10.5 10.5 18.5c0 5.33301 -3.33301 13.333 -10 24s-14.5 21.834 -23.5 33.501l-26.5 33.5l-19 23l-122 147z" />
    <glyph glyph-name="L" unicode="L" horiz-adv-x="620" 
d="M122 470l0.00390625 30.498c0 12.333 -0.333008 25 -1 38s-1.66699 25.333 -3 37s-3.33301 20.834 -6 27.501c-3.33301 8.66699 -8.16602 15.334 -14.499 20.001s-13.5 8 -21.5 10s-16.333 3.16699 -25 3.5s-17 0.5 -25 0.5v23l71.5 -2l71.5 -2l76 2l76 2v-23
c-8 0 -16.333 -0.166992 -25 -0.5s-17 -1.5 -25 -3.5s-15.167 -5.33301 -21.5 -10s-11.166 -11.334 -14.499 -20.001c-2.66699 -6.66699 -4.66699 -15.834 -6 -27.501s-2.33301 -24 -3 -37s-1 -25.667 -1 -38v-30.5v-296c0 -32 1.66699 -57.833 5 -77.5
s10.333 -34.667 21 -45s25.5 -17.333 44.5 -21s44.5 -5.5 76.5 -5.5c23.333 0 47.666 0.833008 72.999 2.5s48.333 9.16699 69 22.5c12.667 8 22.667 16.333 30 25s13.333 18 18 28s8.16699 21 10.5 33s4.5 25 6.5 39h25l-9 -177
c-8.66699 0.666992 -17.334 1.16699 -26.001 1.5s-17.334 1.16602 -26.001 2.49902c-86.667 -1.33301 -172.834 -2.16602 -258.501 -2.49902s-171.834 -0.833008 -258.501 -1.5v23c8 0 16.333 0.166992 25 0.5s17 1.5 25 3.5s15.167 5.33301 21.5 10
s11.166 11.334 14.499 20.001c2.66699 6.66699 4.66699 15.834 6 27.501s2.33301 24 3 37s1 25.667 1 38v30.5v282z" />
    <glyph glyph-name="M" unicode="M" horiz-adv-x="880" 
d="M753 129c0 -24 0.677734 -42.668 2.01074 -56.001s5.16602 -23.5 11.499 -30.5s16.166 -11.833 29.499 -14.5s32 -5 56 -7v-23l-76 2l-74 2l-75.5 -2l-75.5 -2v23c24 2 42.667 4.33301 56 7s23.166 7.5 29.499 14.5s10.166 17.167 11.499 30.5s2 32 2 56v436h-2
l-114 -279l-62.5 -144l-62.5 -144h-10l-243 567h-2v-421c0 -19.333 1.16699 -36.5 3.5 -51.5s7 -27.667 14 -38s16.833 -18.333 29.5 -24s29 -8.83398 49 -9.50098v-23l-55.5 2l-55.5 2l-52.5 -2l-52.5 -2v23c18.667 0 34 2.66699 46 8s21.167 12.166 27.5 20.499
s10.666 18 12.999 29s3.5 22.167 3.5 33.5v426c0 13.333 -0.833008 25.833 -2.5 37.5s-3.83398 20.834 -6.50098 27.501c-3.33301 8.66699 -8.16602 15.334 -14.499 20.001s-13.5 8 -21.5 10s-16.333 3.16699 -25 3.5s-17 0.5 -25 0.5v23
c17.333 -1.33301 34.166 -2.16602 50.499 -2.49902s33.166 -0.833008 50.499 -1.5c15.333 0.666992 30.666 1.16699 45.999 1.5s30.666 1.16602 45.999 2.49902l220 -512l214 512c15.333 -1.33301 31 -2.16602 47 -2.49902s31.667 -0.833008 47 -1.5
c16 0.666992 32.167 1.16699 48.5 1.5s33.166 1.16602 50.499 2.49902v-24c-8 0 -16.333 -0.166992 -25 -0.5s-16.834 -1.66602 -24.501 -3.99902s-14.667 -5.83301 -21 -10.5s-11.5 -11 -15.5 -19c-5.33301 -11.333 -8.33301 -28 -9 -50s-1 -42.333 -1 -61v-362z" />
    <glyph glyph-name="N" unicode="N" horiz-adv-x="760" 
d="M131 577c-15.333 22 -30.665 37.3369 -45.998 46.0039s-36.333 13.334 -63 14.001v23l47.5 -2l47.5 -2l39.5 2l39.5 2l422 -515h2v278v36.5c0 13.667 -0.333008 27.5 -1 41.5s-1.66699 27.667 -3 41s-3 25 -5 35c-3.33301 14 -7.33301 24.667 -12 32
s-10.667 12.666 -18 15.999s-15.833 5.66602 -25.5 6.99902s-20.834 3 -33.501 5v23l55 -2l55 -2l52 2l54 2v-23c-9.33301 -1.33301 -17.833 -2.33301 -25.5 -3s-14.834 -2.16699 -21.501 -4.5s-12.334 -6.33301 -17.001 -12s-8.66699 -13.834 -12 -24.501
c-2.66699 -8 -4.66699 -19.667 -6 -35s-2.5 -31.833 -3.5 -49.5s-1.66699 -34.667 -2 -51s-0.5 -29.5 -0.5 -39.5v-431h-30c-11.333 13.333 -22.333 27 -33 41l-33 42l-391 474h-2v-336v-33.5c0 -13 0.5 -26.5 1.5 -40.5s2.5 -27.333 4.5 -40s5 -23.334 9 -32.001
c4 -10 9.16699 -17.5 15.5 -22.5s13.166 -8.66699 20.499 -11s15.333 -4 24 -5s17.667 -1.83301 27 -2.5v-23l-57.5 2l-57.5 2l-55.5 -2l-55.5 -2v23c10 0.666992 19.5 1.66699 28.5 3s17.333 3.66602 25 6.99902s14.334 8 20.001 14s9.83398 14.333 12.501 25
c2 8.66699 3.5 19 4.5 31s1.83301 24.333 2.5 37s1 25 1 37v33v369z" />
    <glyph glyph-name="O" unicode="O" horiz-adv-x="820" 
d="M410 -13c-48.667 0 -95 8.33203 -139 24.999s-82.5 40 -115.5 70s-59.333 65.833 -79 107.5s-29.5 87.5 -29.5 137.5s10 96 30 138s47 78.333 81 109s73.167 54.667 117.5 72s90.5 26 138.5 26s93.667 -8.33301 137 -25s81.5 -40 114.5 -70s59.167 -65.667 78.5 -107
s29 -86.666 29 -135.999c0 -51.333 -9.5 -98.333 -28.5 -141s-44.833 -79.167 -77.5 -109.5s-71 -54 -115 -71s-91.333 -25.5 -142 -25.5zM410 644.999c-43.333 0 -80 -9.66992 -110 -29.0029s-54.5 -44.166 -73.5 -74.499s-32.833 -64.5 -41.5 -102.5s-13 -75.333 -13 -112
c0 -39.333 4.16699 -77.666 12.5 -114.999s22 -70.666 41 -99.999s44.167 -53 75.5 -71s69.666 -27 114.999 -27c44.667 0 81.834 9.5 111.501 28.5s53.5 43.5 71.5 73.5s30.667 63.833 38 101.5s11 75.167 11 112.5s-4.16699 74.833 -12.5 112.5s-21.833 71.5 -40.5 101.5
s-43.167 54.333 -73.5 73s-67.5 28 -111.5 28z" />
    <glyph glyph-name="P" unicode="P" horiz-adv-x="580" 
d="M225 188l0.000976562 -30.502c0 -12.333 0.333008 -25 1 -38s1.66699 -25.333 3 -37s3.33301 -20.834 6 -27.501c3.33301 -10 8.66602 -17.167 15.999 -21.5s15.5 -7.33301 24.5 -9s18.333 -2.5 28 -2.5s18.834 -0.333008 27.501 -1v-23l-78 2l-78 2l-73 -2l-74 -2v23
c8 0 16.333 0.166992 25 0.5s17 1.5 25 3.5s15.167 5.33301 21.5 10s10.833 11.334 13.5 20.001c2 6.66699 3.66699 15.834 5 27.501s2.33301 24 3 37s1 25.667 1 38v30.5v281v31c0 12.667 -0.333008 25.5 -1 38.5s-1.66699 25.333 -3 37s-3 20.834 -5 27.501
c-3.33301 8.66699 -8 15.334 -14 20.001s-13 8 -21 10s-16.333 3.16699 -25 3.5s-17 0.5 -25 0.5v23l75.5 -2l75.5 -2l71.5 2l71.5 2c26.667 -1.33301 53.667 -5 81 -11s52 -15.833 74 -29.5s40 -31.167 54 -52.5s21 -48 21 -80c0 -36.667 -8 -66.667 -24 -90
s-36.5 -41.833 -61.5 -55.5s-52.833 -23 -83.5 -28s-61 -7.5 -91 -7.5c-4.66699 0 -10.5 0.166992 -17.5 0.5l-21 1c-7 0.333008 -13.333 0.666016 -19 0.999023s-8.83398 0.5 -9.50098 0.5v-121zM225.001 335.998c9.33301 -0.666992 19.001 -1.5 29.001 -2.5
s19.667 -1.5 29 -1.5c52 0 90.667 11.833 116 35.5s38 62.5 38 116.5c0 98 -47.667 147 -143 147h-13.5c-5.66699 0 -11.667 -0.166992 -18 -0.5s-12.333 -1 -18 -2s-9.83398 -2.16699 -12.501 -3.5c-4 -2.66699 -6.16699 -7 -6.5 -13s-0.5 -15.333 -0.5 -28v-248z" />
    <glyph glyph-name="Q" unicode="Q" horiz-adv-x="800" 
d="M417 645c-44.667 0 -82.498 -9.33105 -113.498 -27.998s-56.333 -43 -76 -73s-33.834 -63.833 -42.501 -101.5s-13 -75.5 -13 -113.5s4 -75.833 12 -113.5s21.333 -71.834 40 -102.501s43.334 -55.5 74.001 -74.5s68.334 -28.5 113.001 -28.5
c42 0 78.167 9.33301 108.5 28s55.166 43 74.499 73s33.666 63.5 42.999 100.5s14 73.833 14 110.5c0 36 -4 73.167 -12 111.5s-21.333 73.166 -40 104.499s-42.834 57 -72.501 77s-66.167 30 -109.5 30zM359.002 -14.998c-42 10.667 -82 25.1758 -120 43.5088
s-71.167 41.333 -99.5 69s-50.833 60 -67.5 97s-25 79.167 -25 126.5c0 50.667 10.167 97.5 30.5 140.5s47.5 80 81.5 111s73.333 55.333 118 73s91.667 26.5 141 26.5c46.667 0 91.667 -8 135 -24s81.5 -38.667 114.5 -68s59.333 -64.333 79 -105
s29.5 -85.334 29.5 -134.001c0 -34 -5 -66.333 -15 -97s-23.833 -59.334 -41.5 -86.001s-38.834 -50.834 -63.501 -72.501s-51.334 -40.5 -80.001 -56.5c-24 -13.333 -46.5 -22.666 -67.5 -27.999s-41.333 -10 -61 -14s-39.167 -8.83301 -58.5 -14.5
s-39.333 -15.5 -60 -29.5v-2c6 0 12 0.166992 18 0.5s11.667 0.833008 17 1.5c34.667 0 67 -4.5 97 -13.5s59.167 -18.667 87.5 -29s57 -20 86 -29s60.167 -13.5 93.5 -13.5c26 0 47.167 3.33301 63.5 10s29 14 38 22s15.667 15.333 20 22s7.5 10 9.5 10
c4.66699 0 6.83398 -3.5 6.50098 -10.5s-0.5 -12.167 -0.5 -15.5c0 -22 -4.66699 -42 -14 -60s-21.833 -33.5 -37.5 -46.5s-33.667 -23 -54 -30s-41.166 -10.5 -62.499 -10.5c-28 0 -53.667 4.16699 -77 12.5s-45.166 18.666 -65.499 30.999s-39.666 25.666 -57.999 39.999
s-36.5 27.666 -54.5 39.999s-36 22.666 -54 30.999s-37 12.5 -57 12.5c-14.667 0 -28.334 -2.66699 -41.001 -8s-24.167 -11.333 -34.5 -18l-28.5 -18c-8.66699 -5.33301 -16.334 -8 -23.001 -8c-6 0 -10.667 2.16699 -14 6.5s-5 9.16602 -5 14.499c0 6 3 11.5 9 16.5
s13 9.16699 21 12.5s16.167 6.16602 24.5 8.49902s14.5 4.16602 18.5 5.49902z" />
    <glyph glyph-name="R" unicode="R" horiz-adv-x="660" 
d="M225 333c31.333 0 60.168 0.832031 86.501 2.49902s49.166 7.33398 68.499 17.001s34.333 24.5 45 44.5s16 48 16 84c0 44 -12 80 -36 108s-58.667 42 -104 42c-3.33301 0 -8 0.166992 -14 0.5s-12.5 0.5 -19.5 0.5s-13.5 -0.166992 -19.5 -0.5s-10 -0.833008 -12 -1.5
c-6.66699 -3.33301 -10.167 -8.83301 -10.5 -16.5s-0.5 -14.167 -0.5 -19.5v-261zM587.002 79.999c8 -9.33301 15.1689 -17.335 21.502 -24.002s13 -12.167 20 -16.5s15 -8 24 -11s19.833 -5.5 32.5 -7.5v-23l-45 2l-45 2l-37.5 -2l-37.5 -2l-47 58l-166 206
c-8 9.33301 -14.333 17 -19 23s-9.5 10.5 -14.5 13.5s-11 5 -18 6s-17.167 1.5 -30.5 1.5v-118v-30.5c0 -12.333 0.333008 -25 1 -38s1.66699 -25.333 3 -37s3 -20.834 5 -27.501c2.66699 -8.66699 7.16699 -15.334 13.5 -20.001s13.5 -8 21.5 -10s16.333 -3.16699 25 -3.5
s17 -0.5 25 -0.5v-23l-70 2l-71 2l-75 -2l-75 -2v23c8 0 16.333 0.166992 25 0.5s17 1.5 25 3.5s15.167 5.33301 21.5 10s10.833 11.334 13.5 20.001c2 6.66699 3.66699 15.834 5 27.501s2.33301 24 3 37s1 25.667 1 38v30.5v282v30.5c0 12.333 -0.333008 25 -1 38
s-1.66699 25.333 -3 37s-3 20.834 -5 27.501c-2.66699 8.66699 -7.16699 15.334 -13.5 20.001s-13.5 8 -21.5 10s-16.333 3.16699 -25 3.5s-17 0.5 -25 0.5v23l86 -2l86 -2l63.5 2l63.5 2c28.667 0 56.667 -2 84 -6s51.666 -12 72.999 -24s38.666 -28.833 51.999 -50.5
s20 -49.834 20 -84.501c0 -27.333 -4.83301 -51.166 -14.5 -71.499s-22.667 -37.5 -39 -51.5s-35.5 -25.167 -57.5 -33.5s-45.333 -13.5 -70 -15.5z" />
    <glyph glyph-name="S" unicode="S" 
d="M45 200l22.9971 -0.000976562c4.66699 -25.333 11.834 -49.166 21.501 -71.499s22.167 -42 37.5 -59s33.666 -30.5 54.999 -40.5s46.333 -15 75 -15c19.333 0 37.666 2.66699 54.999 8s32.5 13.333 45.5 24s23.333 23.834 31 39.501s11.5 33.5 11.5 53.5
c0 22.667 -4.5 42.167 -13.5 58.5s-20.667 30.5 -35 42.5s-30.666 22.333 -48.999 31s-36.5 16.667 -54.5 24c-22.667 8.66699 -45.167 18.5 -67.5 29.5s-42.5 24.167 -60.5 39.5s-32.5 33.333 -43.5 54s-16.5 45.334 -16.5 74.001s5.16699 54.167 15.5 76.5
s24.5 41.166 42.5 56.499s39 27 63 35s49.667 12 77 12c28 0 54.5 -4.5 79.5 -13.5s48.833 -21.5 71.5 -37.5l23 39h11l5 -173h-23c-6 20.667 -13.5 40.5 -22.5 59.5s-20.167 35.833 -33.5 50.5s-29.166 26.334 -47.499 35.001s-39.5 13 -63.5 13
c-16 0 -31.167 -2.5 -45.5 -7.5s-26.666 -12 -36.999 -21s-18.666 -20.167 -24.999 -33.5s-9.5 -28 -9.5 -44c0 -20 4 -36.833 12 -50.5s18.333 -25.5 31 -35.5s27 -18.5 43 -25.5l47 -20.5c26 -10.667 52 -22.334 78 -35.001s49.5 -27.667 70.5 -45
s38.167 -37.833 51.5 -61.5s20 -51.834 20 -84.501s-7 -61.167 -21 -85.5s-32.167 -44.5 -54.5 -60.5s-47.833 -28 -76.5 -36s-57.667 -12 -87 -12c-34 0 -64.833 5 -92.5 15s-55.167 25 -82.5 45l-24 -42h-11v195z" />
    <glyph glyph-name="T" unicode="T" horiz-adv-x="660" 
d="M644 504l-26.998 0.000976562c-1.33301 24.667 -5 45 -11 61s-14.5 28.667 -25.5 38s-24.833 15.833 -41.5 19.5s-36.667 5.5 -60 5.5c-9.33301 0 -19.666 0.166992 -30.999 0.5s-21.833 -0.333984 -31.5 -2.00098s-17.834 -4.33398 -24.501 -8.00098s-10 -9.5 -10 -17.5
v-474c0 -18.667 1.16699 -34.5 3.5 -47.5s7.5 -23.667 15.5 -32s19.333 -14.666 34 -18.999s34 -6.83301 58 -7.5v-23l-83 2l-83 2l-79 -2l-80 -2v23c24 0.666992 43.333 3.16699 58 7.5s26 10.666 34 18.999s13.167 19 15.5 32s3.5 28.833 3.5 47.5v474
c0 7.33301 -2.5 12.833 -7.5 16.5s-11.5 6.33398 -19.5 8.00098s-17 2.5 -27 2.5h-30c-24.667 0 -46.167 -0.833008 -64.5 -2.5s-33.833 -6.5 -46.5 -14.5s-22.334 -20.333 -29.001 -37s-10.334 -40 -11.001 -70h-23v156h614z" />
    <glyph glyph-name="U" unicode="U" horiz-adv-x="780" 
d="M651 263c0 -45.333 -4.66992 -85.3311 -14.0029 -119.998s-24.333 -63.5 -45 -86.5s-47.667 -40.333 -81 -52s-73.666 -17.5 -120.999 -17.5c-44.667 0 -83.667 4.16699 -117 12.5s-61 22.166 -83 41.499s-38.5 44.5 -49.5 75.5s-16.5 69.167 -16.5 114.5v239v30.5
c0 12.333 -0.333008 25 -1 38s-1.66699 25.333 -3 37s-3.33301 20.834 -6 27.501c-3.33301 8.66699 -8.16602 15.334 -14.499 20.001s-13.5 8 -21.5 10s-16.333 3.16699 -25 3.5s-17 0.5 -25 0.5v23l71 -2l71 -2l76 2l76 2v-23c-8 0 -16.5 -0.166992 -25.5 -0.5
s-17.5 -1.5 -25.5 -3.5s-15.167 -5.33301 -21.5 -10s-10.833 -11.334 -13.5 -20.001c-2 -6.66699 -3.66699 -15.834 -5 -27.501s-2.33301 -24 -3 -37s-1 -25.667 -1 -38v-30.5v-246c0 -32 3.33301 -60.5 10 -85.5s17.334 -46 32.001 -63s34 -30 58 -39s53 -13.5 87 -13.5
c69.333 0 121.166 17.5 155.499 52.5s51.5 86.167 51.5 153.5v219v32.5c0 13 -0.333008 26.5 -1 40.5s-1.66699 27.167 -3 39.5s-3.33301 22.5 -6 30.5c-3.33301 10.667 -8.33301 19 -15 25s-14.167 10.5 -22.5 13.5s-17.166 5 -26.499 6s-19 1.5 -29 1.5v23l58 -2l58 -2
l55.5 2l56.5 2v-23c-8 0 -16 -0.333008 -24 -1s-15.667 -2 -23 -4s-14 -5.5 -20 -10.5s-10.667 -11.833 -14 -20.5c-3.33301 -9.33301 -6 -20.5 -8 -33.5s-3.5 -26.833 -4.5 -41.5s-1.5 -28.834 -1.5 -42.501v-35.5v-185z" />
    <glyph glyph-name="V" unicode="V" horiz-adv-x="640" 
d="M91 514l-18.501 46c-5.66699 14.667 -12.667 27.5 -21 38.5s-18.833 20 -31.5 27s-29.334 10.833 -50.001 11.5v23l70.5 -2l70.5 -2l73.5 2l73.5 2v-23c-7.33301 0 -15.5 -0.166992 -24.5 -0.5s-17.5 -1.83301 -25.5 -4.5s-14.667 -6.83398 -20 -12.501
s-8 -13.5 -8 -23.5c0 -8.66699 3.16699 -23.5 9.5 -44.5s13.833 -43.5 22.5 -67.5l25.5 -69l18.5 -49l102 -254l95 232l19.5 52.5l25 71.5c8.33301 24.667 15.5 48 21.5 70s9 38.667 9 50c0 12.667 -2.33301 22.334 -7 29.001s-10.667 11.5 -18 14.5
s-15.666 4.66699 -24.999 5s-18.666 0.5 -27.999 0.5v23l57 -2l57 -2l52.5 2l52.5 2v-23c-22 0 -39.833 -4.66699 -53.5 -14s-25.167 -21.333 -34.5 -36s-17 -31.167 -23 -49.5s-12.333 -35.833 -19 -52.5l-203 -505h-30z" />
    <glyph glyph-name="W" unicode="W" horiz-adv-x="900" 
d="M461 491l-2.00098 0.00195312l-79 -272l-41 -119.5l-41 -119.5h-34l-175 538l-7 22c-2.66699 8.66699 -5.66699 17.5 -9 26.5l-10 26c-3.33301 8.33301 -7 14.5 -11 18.5c-8.66699 11.333 -19.167 18.166 -31.5 20.499s-25.833 4.16602 -40.5 5.49902v23l72 -2l72 -2
l74 2l74 2v-23c-8 -0.666992 -17.167 -1.5 -27.5 -2.5s-20.166 -3 -29.499 -6s-17.166 -7.66699 -23.499 -14s-9.5 -15.166 -9.5 -26.499c0 -6 1.16699 -14.5 3.5 -25.5s5.16602 -22.667 8.49902 -35l10 -35.5c3.33301 -11.333 6 -20 8 -26l105 -343h2l157 537h32l164 -529
h2l68 218c3.33301 10.667 8 26.5 14 47.5s11.833 42.667 17.5 65s10.667 43.5 15 63.5s6.5 35 6.5 45c0 15.333 -2.16699 27.333 -6.5 36s-10.333 15 -18 19s-16.667 6.66699 -27 8s-21.833 2.66602 -34.5 3.99902v23l54 -2l54 -2l52 2l52 2v-23
c-18.667 0.666992 -33.834 -3.33301 -45.501 -12s-21.167 -19.5 -28.5 -32.5s-13.166 -27.333 -17.499 -43l-12.5 -44.5l-165 -525h-35z" />
    <glyph glyph-name="X" unicode="X" horiz-adv-x="740" 
d="M625 82c14 -17.333 28.501 -32.332 43.501 -44.999s34.5 -18 58.5 -16v-23l-70.5 2l-70.5 2l-75.5 -2l-75.5 -2v23c3.33301 0.666992 9.16602 1 17.499 1s16.666 0.333008 24.999 1s15.833 2.33398 22.5 5.00098s10 7 10 13c0 5.33301 -2.16699 12.166 -6.5 20.499
s-9.33301 16.666 -15 24.999s-11.5 16.333 -17.5 24s-10.667 13.834 -14 18.501l-120 156l-67 -85c-6 -7.33301 -13.667 -17.333 -23 -30l-28 -40c-9.33301 -14 -17.333 -27.833 -24 -41.5s-10 -25.167 -10 -34.5s3 -16.166 9 -20.499s13.167 -7.33301 21.5 -9
s17 -2.66699 26 -3s16.167 -0.5 21.5 -0.5v-23l-60.5 2l-60.5 2l-58.5 -2l-58.5 -2v23c16.667 1.33301 31.334 4.33301 44.001 9s24.167 10.667 34.5 18s19.833 16 28.5 26l28 34l157 200l-206 262l-20.5 25.5c-6.33301 7.66699 -13 14.5 -20 20.5s-15 10.833 -24 14.5
s-19.833 5.83398 -32.5 6.50098v23l68 -2l68 -2l74 2l74 2v-23c-6.66699 0 -14.167 -0.166992 -22.5 -0.5s-16.333 -1.33301 -24 -3s-14.167 -4.33398 -19.5 -8.00098s-8 -8.83398 -8 -15.501c0 -4.66699 1.33301 -10 4 -16s5.83398 -11.833 9.50098 -17.5
s7.5 -11.167 11.5 -16.5l10 -13l128 -164l40 55l25 33c10.667 14 21.167 28.667 31.5 44s19.333 30.333 27 45s11.5 27 11.5 37s-2.5 17.5 -7.5 22.5s-11 8.5 -18 10.5s-14.833 3.16699 -23.5 3.5s-16.334 1.5 -23.001 3.5v23l60 -2l60 -2l52 2l52 2v-23
c-12.667 -2 -24.667 -4.33301 -36 -7s-22.333 -8.33398 -33 -17.001c-6 -4.66699 -12.5 -11.167 -19.5 -19.5l-21.5 -26.5l-21 -28l-17 -23l-122 -156z" />
    <glyph glyph-name="Y" unicode="Y" 
d="M308 129c0 -24 0.666992 -42.6641 2 -55.9971s5.16602 -23.5 11.499 -30.5s16.166 -11.833 29.499 -14.5s32 -5 56 -7v-23l-75 2l-75 2l-76.5 -2l-76.5 -2v23c24 2 42.833 4.33301 56.5 7s23.834 7.5 30.501 14.5s10.667 17.333 12 31s2 32.167 2 55.5v124l-92 159
c-2 3.33301 -5.5 10 -10.5 20l-18 35l-23.5 43l-25.5 44.5c-8.33301 14.333 -16.333 27.166 -24 38.499s-14.5 20 -20.5 26c-8.66699 9.33301 -17.5 14.166 -26.5 14.499s-19.5 1.5 -31.5 3.5v23l68 -2l68 -2l70.5 2l70.5 2v-23h-21c-8.66699 0 -17 -1 -25 -3
s-14.833 -5.16699 -20.5 -9.5s-8.5 -10.833 -8.5 -19.5c0 -13.333 2.83301 -25.5 8.5 -36.5l17.5 -33.5l130 -241l64 102l24.5 40.5c11 18.333 22 37.833 33 58.5s20.667 40.167 29 58.5s12.5 32.166 12.5 41.499s-2.5 16.666 -7.5 21.999s-11.167 9.33301 -18.5 12
s-15.166 4.5 -23.499 5.5s-15.833 1.83301 -22.5 2.5v23l53.5 -2l53.5 -2l49 2l49 2v-23c-14.667 -1.33301 -27.167 -4.66602 -37.5 -9.99902s-19.5 -12 -27.5 -20s-15.167 -17 -21.5 -27l-19.5 -32l-173 -286v-133z" />
    <glyph glyph-name="Z" unicode="Z" horiz-adv-x="600" 
d="M548 0h-512.997l383 633h-145c-27.333 0 -51.333 -1.16699 -72 -3.5s-38.5 -7.83301 -53.5 -16.5s-27.333 -22 -37 -40s-16.834 -42.333 -21.501 -73h-27l10 160h476l-381 -633h169c32.667 0 60.167 1.66699 82.5 5s41.166 10.5 56.499 21.5s27.666 26.667 36.999 47
s17.333 47.5 24 81.5h27z" />
    <glyph glyph-name="bracketleft" unicode="[" horiz-adv-x="440" 
d="M223 650v-768h145v-32h-211v832h211v-32h-145z" />
    <glyph glyph-name="backslash" unicode="\" horiz-adv-x="260" 
d="M330 -135l-441 817h45l438 -817h-42z" />
    <glyph glyph-name="bracketright" unicode="]" horiz-adv-x="440" 
d="M72 -118h145v768h-145v32h211v-832h-211v32z" />
    <glyph glyph-name="asciicircum" unicode="^" 
d="M34 251l191 405h70l191 -405h-51l-175 355l-179 -355h-47z" />
    <glyph glyph-name="underscore" unicode="_" horiz-adv-x="500" 
d="M500 -75v-50h-500v50h500z" />
    <glyph glyph-name="grave" unicode="`" horiz-adv-x="360" 
d="M264 530l-135.002 57.999c-6 2.66699 -12.667 5.33398 -20 8.00098s-14.166 6 -20.499 10s-11.666 9 -15.999 15s-6.5 13 -6.5 21c0 9.33301 3.33301 17.5 10 24.5s14.667 10.5 24 10.5c8 0 15.833 -2.5 23.5 -7.5s14.5 -10.167 20.5 -15.5l157 -124h-37z" />
    <glyph glyph-name="a" unicode="a" horiz-adv-x="480" 
d="M301 247c-15.333 -7.33301 -33 -15.3301 -53 -23.9971s-39 -18.834 -57 -30.501s-33.167 -25.167 -45.5 -40.5s-18.5 -33 -18.5 -53c0 -18.667 5.5 -35.334 16.5 -50.001s26.833 -22 47.5 -22c19.333 0 39 6.16699 59 18.5s37 25.166 51 38.499v163zM292 272.003
c5.33301 2.66699 7.99707 6.83887 7.99707 12.5059v16.5c0 16.667 -0.666992 32.167 -2 46.5s-5 26.666 -11 36.999s-14.833 18.333 -26.5 24s-27.834 8.5 -48.501 8.5c-12.667 0 -24.5 -0.5 -35.5 -1.5s-20.667 -3.33301 -29 -7s-15.166 -9.33398 -20.499 -17.001
s-8.33301 -18.167 -9 -31.5c-1.33301 -11.333 -5.16602 -21.5 -11.499 -30.5s-15.833 -13.5 -28.5 -13.5c-11.333 0 -20.5 3.16699 -27.5 9.5s-10.5 15.166 -10.5 26.499c0 18.667 7.16699 33.667 21.5 45s31.5 20.166 51.5 26.499s40.333 10.666 61 12.999
s37.334 3.5 50.001 3.5c28 0 52.167 -2.16699 72.5 -6.5s37.166 -11.833 50.499 -22.5s23.166 -25.334 29.499 -44.001s9.5 -42.334 9.5 -71.001v-165v-26c0 -11.333 1 -22.333 3 -33s5.33301 -20 10 -28s12 -12 22 -12s18 3.5 24 10.5s11.667 14.167 17 21.5l19 -10
c-8 -16.667 -20.333 -32 -37 -46s-34.334 -21 -53.001 -21c-20.667 0 -38.834 6.83301 -54.501 20.5s-26.167 30.5 -31.5 50.5c-23.333 -19.333 -49.166 -36 -77.499 -50s-58.166 -21 -89.499 -21c-13.333 0 -26.166 2 -38.499 6s-23.333 9.66699 -33 17
s-17.5 16.5 -23.5 27.5s-9 23.5 -9 37.5c0 20.667 5.33301 38.834 16 54.501s23.834 29.167 39.501 40.5s32.834 21.333 51.501 30l52 24z" />
    <glyph glyph-name="b" unicode="b" horiz-adv-x="560" 
d="M177 118c0 -34 8.99805 -59.835 26.998 -77.502s45 -26.5 81 -26.5c28.667 0 52.334 5.83301 71.001 17.5s33.5 27 44.5 46s18.667 40.333 23 64s6.5 47.5 6.5 71.5c0 22.667 -2.33301 45.667 -7 69s-12.5 44.333 -23.5 63s-25.667 33.834 -44 45.501
s-41.166 17.5 -68.499 17.5c-8.66699 0 -17.834 -1.16699 -27.501 -3.5s-19 -5.66602 -28 -9.99902s-17.333 -9.83301 -25 -16.5s-13.5 -14 -17.5 -22c-5.33301 -10 -8.66602 -21.667 -9.99902 -35s-2 -26.333 -2 -39v-164zM176.998 383.998
c19.333 19.333 39.833 33.502 61.5 42.502s46.5 13.5 74.5 13.5c32 0 61.333 -6 88 -18s49.5 -28.167 68.5 -48.5s33.833 -44 44.5 -71s16 -55.833 16 -86.5c0 -31.333 -5.66699 -61 -17 -89s-27 -52.333 -47 -73s-43.667 -37 -71 -49s-57 -18 -89 -18
c-26.667 0 -54.167 5.33301 -82.5 16s-51.5 26.667 -69.5 48l-48 -58h-14v504v24c0 10 -0.333008 20.333 -1 31s-1.66699 20.667 -3 30s-3.33301 16.666 -6 21.999c-3.33301 6 -7.33301 10.667 -12 14s-10 5.66602 -16 6.99902s-12.167 2.33301 -18.5 3l-18.5 2v20l160 32
v-298z" />
    <glyph glyph-name="c" unicode="c" horiz-adv-x="460" 
d="M431 64c-21.333 -26 -47.8311 -45.3359 -79.498 -58.0029s-63.834 -19 -96.501 -19c-31.333 0 -60 5.16699 -86 15.5s-48.667 25 -68 44s-34.333 41.333 -45 67s-16 54.167 -16 85.5c0 34.667 6.16699 66.834 18.5 96.501s29.5 55.167 51.5 76.5s48 38 78 50
s62.333 18 97 18c10 0 22.333 -0.833008 37 -2.5s28.834 -5 42.501 -10s25.5 -11.833 35.5 -20.5s15 -20 15 -34c0 -9.33301 -3.16699 -17.833 -9.5 -25.5s-14.166 -11.5 -23.499 -11.5c-12 0 -21.5 4.16699 -28.5 12.5s-12.167 17.166 -15.5 26.499
c-6 15.333 -12.333 25.5 -19 30.5s-19.334 7.5 -38.001 7.5c-27.333 0 -50 -6.16699 -68 -18.5s-32.333 -28.166 -43 -47.499s-18.334 -40.666 -23.001 -63.999s-7 -46 -7 -68c0 -24 2.16699 -47.667 6.5 -71s12 -44.333 23 -63s25.833 -33.667 44.5 -45s42 -17 70 -17
c25.333 0 48.666 5.83301 69.999 17.5s40 26.834 56 45.501z" />
    <glyph glyph-name="d" unicode="d" horiz-adv-x="580" 
d="M394 306c0 16 -3.5 30.1689 -10.5 42.502s-16.167 23 -27.5 32s-24 15.833 -38 20.5s-28.333 7 -43 7c-27.333 0 -49.666 -6.33301 -66.999 -19s-31.333 -28.834 -42 -48.501s-18 -41.167 -22 -64.5s-6 -46 -6 -68c0 -22.667 2 -45.5 6 -68.5s11.333 -43.833 22 -62.5
s24.667 -33.834 42 -45.501s39.666 -17.5 66.999 -17.5c22.667 0 41.5 4.16699 56.5 12.5s27.167 19.333 36.5 33s16 29.5 20 47.5s6 37 6 57v142zM427 -12.998c-5.33301 11.333 -9.6709 23.498 -13.0039 36.498s-5.66602 26.167 -6.99902 39.5
c-21.333 -26 -44.166 -45.167 -68.499 -57.5s-53.5 -18.5 -87.5 -18.5c-31.333 0 -60.166 5.66699 -86.499 17s-48.833 27 -67.5 47s-33.167 43.333 -43.5 70s-15.5 55.667 -15.5 87c0 30.667 5.16699 60 15.5 88s24.833 52.667 43.5 74s41 38.333 67 51s55 19 87 19
c28 0 54.333 -5 79 -15s46 -25.667 64 -47v158c0 14.667 -0.5 27.834 -1.5 39.501s-4 21.5 -9 29.5s-12.5 14 -22.5 18s-24 6.33301 -42 7v20l160 32v-505v-24.5c0 -9 0.333008 -18.333 1 -28s1.66699 -19 3 -28s3.33301 -16.833 6 -23.5
c6.66699 -17.333 16.334 -27.166 29.001 -29.499s27 -3.5 43 -3.5v-20z" />
    <glyph glyph-name="e" unicode="e" horiz-adv-x="500" 
d="M444 72c-23.333 -29.333 -49.3369 -50.8311 -78.0039 -64.498s-62 -20.5 -100 -20.5c-31.333 0 -60.666 5.16699 -87.999 15.5s-51.166 25 -71.499 44s-36.5 41.667 -48.5 68s-18 55.5 -18 87.5c0 31.333 5.66699 61.333 17 90s27 54 47 76s43.667 39.5 71 52.5
s57.333 19.5 90 19.5c24.667 0 48.5 -3.5 71.5 -10.5s43.333 -17.167 61 -30.5s31.834 -30.333 42.501 -51s16 -44.334 16 -71.001c0 -6.66699 -2.83301 -9.83398 -8.5 -9.50098s-11.167 0.5 -16.5 0.5h-287l-4 -48c0 -24 3.16699 -47.833 9.5 -71.5s16 -45.167 29 -64.5
s29.333 -35 49 -47s42.834 -18 69.501 -18c25.333 0 48.833 7.33301 70.5 22s40.167 32 55.5 52zM313.996 295.002c4 0 8.83301 -0.166016 14.5 -0.499023s11 0 16 1s9.33301 3 13 6s5.5 7.5 5.5 13.5c0 31.333 -8.16699 56.166 -24.5 74.499s-40.5 27.5 -72.5 27.5
c-18.667 0 -34.667 -3.33301 -48 -10s-24.666 -15.5 -33.999 -26.5s-16.833 -24 -22.5 -39s-9.83398 -30.5 -12.501 -46.5h165z" />
    <glyph glyph-name="f" unicode="f" horiz-adv-x="320" 
d="M15 382l-0.00488281 27.002h80v54c0 32 3.16699 61 9.5 87s16.833 48 31.5 66s33.834 31.833 57.501 41.5s52.834 14.5 87.501 14.5c9.33301 0 20.833 -0.833008 34.5 -2.5s27 -4.83398 40 -9.50098s24.167 -11.167 33.5 -19.5s14 -18.833 14 -31.5
c0 -9.33301 -3.5 -17 -10.5 -23s-15.167 -9 -24.5 -9c-10 0 -17.5 2.83301 -22.5 8.5s-9.16699 12.167 -12.5 19.5c-5.33301 14.667 -12 25.667 -20 33s-20.667 11 -38 11c-19.333 0 -35.666 -3.5 -48.999 -10.5s-23.666 -19.5 -30.999 -37.5s-11.666 -38.167 -12.999 -60.5
s-2 -43.166 -2 -62.499v-69h123v-27h-123v-265c0 -12.667 0.833008 -24.5 2.5 -35.5s3.83398 -19.833 6.50098 -26.5c4 -10 9.66699 -17.5 17 -22.5s15.666 -8.5 24.999 -10.5s19 -3 29 -3s19.667 -0.333008 29 -1v-20l-71.5 2l-71.5 2l-68.5 -2l-68.5 -2v20
c22 1.33301 38.833 4.16602 50.5 8.49902s20.167 10.666 25.5 18.999s8.33301 19.333 9 33s1 30.167 1 49.5v254h-80z" />
    <glyph glyph-name="g" unicode="g" 
d="M228 145c19.333 0 35.502 4 48.502 12s23.5 18.333 31.5 31s13.667 27 17 43s5 32 5 48s-1.66699 32.167 -5 48.5s-8.83301 31.166 -16.5 44.499s-18 24.166 -31 32.499s-28.833 12.5 -47.5 12.5c-19.333 0 -35.333 -4.16699 -48 -12.5s-22.667 -19.166 -30 -32.499
s-12.5 -28.166 -15.5 -44.499s-4.5 -32.5 -4.5 -48.5c0 -15.333 1.66699 -30.833 5 -46.5s8.66602 -30 15.999 -43s17.166 -23.667 29.499 -32s27.5 -12.5 45.5 -12.5zM260.002 44c25.333 -2 50.4941 -4.50586 75.4941 -7.50586s47.5 -9.16699 67.5 -18.5
s36.167 -23.333 48.5 -42s18.5 -44.667 18.5 -78c0 -32 -6.66699 -58.667 -20 -80s-30.833 -38.5 -52.5 -51.5s-46 -22.333 -73 -28s-54.167 -8.5 -81.5 -8.5c-20.667 0 -43.334 2 -68.001 6s-47.5 11.167 -68.5 21.5s-38.5 24 -52.5 41s-21 38.5 -21 64.5
c0 10 1.83301 20 5.5 30s8.83398 19 15.501 27s14.5 14.333 23.5 19s18.833 7 29.5 7c8.66699 0 16.334 -1.66699 23.001 -5s13 -7.66602 19 -12.999c-16.667 -3.33301 -29.5 -12.166 -38.5 -26.499s-13.5 -29.166 -13.5 -44.499c0 -22 5 -39.667 15 -53
s22.667 -23.833 38 -31.5s32.5 -12.834 51.5 -15.501s37.167 -4 54.5 -4s34.666 2 51.999 6s33 10.333 47 19s25.333 20.167 34 34.5s13 31.5 13 51.5c0 24.667 -6.16699 43.334 -18.5 56.001s-27.5 21.834 -45.5 27.501s-37.333 9 -58 10s-39.667 2.16699 -57 3.5
c-16.667 0.666992 -34.167 1.5 -52.5 2.5s-35.333 4.16699 -51 9.5s-28.5 14 -38.5 26s-15 29.333 -15 52c0 12 2.5 23 7.5 33s11.667 18.667 20 26s17.833 13.333 28.5 18s21.334 7.66699 32.001 9v2c-14.667 4.66699 -28.5 11.5 -41.5 20.5s-24.333 19.5 -34 31.5
s-17.334 25.333 -23.001 40s-8.5 30 -8.5 46c0 26.667 5.16699 50.167 15.5 70.5s24.166 37.333 41.499 51s37.333 24 60 31s46.334 10.5 71.001 10.5c23.333 0 46 -3.66699 68 -11s41.667 -18.666 59 -33.999c13.333 10.667 28.333 20.334 45 29.001s34 13 52 13
c13.333 0 26.5 -3.33301 39.5 -10s19.5 -17.667 19.5 -33c0 -9.33301 -3.16699 -17.166 -9.5 -23.499s-14.166 -9.5 -23.499 -9.5c-8 0 -14.333 1.83301 -19 5.5s-9.16699 7.66699 -13.5 12s-8.83301 8.33301 -13.5 12s-11 5.5 -19 5.5c-7.33301 0 -14.666 -2 -21.999 -6
s-13.666 -8.33301 -18.999 -13c12 -13.333 21 -28.5 27 -45.5s9 -34.5 9 -52.5c0 -29.333 -5.16699 -53.833 -15.5 -73.5s-24.333 -35.5 -42 -47.5s-38 -20.667 -61 -26s-47.5 -8.66602 -73.5 -9.99902c-7.33301 0 -17.166 -0.333008 -29.499 -1
s-24.166 -2.33398 -35.499 -5.00098s-21.166 -6.83398 -29.499 -12.501s-12.5 -13.5 -12.5 -23.5c0 -8.66699 3 -15.167 9 -19.5s13.167 -7.5 21.5 -9.5s16.833 -3 25.5 -3s15.667 -0.333008 21 -1z" />
    <glyph glyph-name="h" unicode="h" horiz-adv-x="600" 
d="M190 354l1.99707 -0.00195312c17.333 27.333 39.333 48.5 66 63.5s56 22.5 88 22.5c48 0 85 -11.333 111 -34s39 -58 39 -106v-181v-43c0 -12 1.83301 -22.167 5.5 -30.5s10.334 -14.666 20.001 -18.999s24.167 -7.16602 43.5 -8.49902v-20l-58 2l-58 2l-54 -2l-53 -2v20
c18.667 1.33301 32.834 3.83301 42.501 7.5s16.5 9.33398 20.5 17.001s6 17.167 6 28.5v42v148c0 16 -0.833008 32.667 -2.5 50s-5.5 33.166 -11.5 47.499s-15 26.166 -27 35.499s-28.667 14 -50 14c-10.667 0 -21.667 -1.83301 -33 -5.5s-22 -8.5 -32 -14.5
s-19.167 -13.333 -27.5 -22s-14.833 -18 -19.5 -28c-8 -16 -13 -33.5 -15 -52.5s-3 -37.833 -3 -56.5v-110v-43c0 -12 2 -22.167 6 -30.5s10.833 -14.666 20.5 -18.999s24.167 -7.16602 43.5 -8.49902v-20l-55 2l-55 2l-57.5 -2l-57.5 -2v20
c18.667 1.33301 32.834 3.83301 42.501 7.5s16.5 9.33398 20.5 17.001s6.16699 17.167 6.5 28.5s0.5 25.333 0.5 42v384v24c0 10 -0.333008 20.333 -1 31s-1.66699 20.667 -3 30s-3.33301 16.666 -6 21.999c-3.33301 6 -7.33301 10.667 -12 14s-10 5.66602 -16 6.99902
s-12.167 2.33301 -18.5 3l-18.5 2v20l160 32v-328z" />
    <glyph glyph-name="i" unicode="i" horiz-adv-x="280" 
d="M183 440l0.000976562 -321.002c0.666992 -16.667 1 -31 1 -43s1.83301 -22.167 5.5 -30.5s10.167 -14.666 19.5 -18.999s24 -7.16602 44 -8.49902v-20l-53 2l-54 2l-58.5 -2l-58.5 -2v20c18.667 1.33301 32.667 3.83301 42 7.5s16 9.33398 20 17.001
s6.16699 17.167 6.5 28.5s0.5 25.333 0.5 42v143v23c0 10.667 -0.166992 22 -0.5 34s-0.833008 23 -1.5 33s-1.33398 17 -2.00098 21c-2 6 -5.66699 10.667 -11 14s-11.5 5.66602 -18.5 6.99902s-14.167 1.83301 -21.5 1.5s-13.333 -0.5 -18 -0.5v20zM131.001 564.998
c-15.333 0 -28.499 5 -39.499 15s-16.5 22.667 -16.5 38s5.16699 28.166 15.5 38.499s23.166 15.5 38.499 15.5s28 -5.16699 38 -15.5s15 -23.166 15 -38.499c0 -14.667 -5 -27.167 -15 -37.5s-22 -15.5 -36 -15.5z" />
    <glyph glyph-name="j" unicode="j" horiz-adv-x="260" 
d="M88 256l0.000976562 23.002c0 10.667 -0.166992 22 -0.5 34s-0.833008 23 -1.5 33s-1.33398 17 -2.00098 21c-2 6 -5.66699 10.667 -11 14s-11.5 5.66602 -18.5 6.99902s-14.167 1.83301 -21.5 1.5s-13.333 -0.5 -18 -0.5v20l158 31v-521
c0 -62.667 -17 -109.5 -51 -140.5s-82.333 -46.5 -145 -46.5c-10 0 -22.333 1 -37 3s-28.667 5.5 -42 10.5s-24.833 11.833 -34.5 20.5s-14.5 19.667 -14.5 33c0 9.33301 3.5 16.666 10.5 21.999s14.833 8 23.5 8c11.333 0 19.5 -3.83301 24.5 -11.5l16 -25.5
c5.66699 -9.33301 13.167 -17.833 22.5 -25.5s24 -11.5 44 -11.5c28 0 49 7.83301 63 23.5s23.5 34.667 28.5 57s7.33301 46 7 71s-0.5 47.167 -0.5 66.5v283zM122.001 565.002c-15.333 0 -28.499 5 -39.499 15s-16.5 22.667 -16.5 38s5 28.166 15 38.499
s22.667 15.5 38 15.5s28.166 -5.16699 38.499 -15.5s15.5 -23.166 15.5 -38.499c0 -14.667 -5 -27.167 -15 -37.5s-22 -15.5 -36 -15.5z" />
    <glyph glyph-name="k" unicode="k" 
d="M190 213l66.9971 71.001c4 4 10.167 10.667 18.5 20l25.5 29.5c8.66699 10.333 16.167 20.333 22.5 30s9.5 17.167 9.5 22.5c0 6 -2 10.667 -6 14s-8.83301 5.83301 -14.5 7.5s-11.5 2.66699 -17.5 3s-11 0.5 -15 0.5v20l44 -2l44 -2l42.5 2l42.5 2v-20
c-13.333 -0.666992 -24.333 -2.16699 -33 -4.5s-16.5 -5.83301 -23.5 -10.5s-13.667 -10.5 -20 -17.5l-22.5 -24.5l-92 -103l192 -188c6.66699 -6 12.334 -11.5 17.001 -16.5s9.33398 -9.33301 14.001 -13s9.83398 -6.83398 15.501 -9.50098s13.167 -4.66699 22.5 -6v-20
l-30.5 2l-30.5 2l-31 -2l-31 -2l-190 203l-20 -20v-62v-43c0 -12 1.83301 -22.167 5.5 -30.5s10.334 -14.666 20.001 -18.999s24.5 -7.16602 44.5 -8.49902v-20l-56 2l-56 2l-56 -2l-57 -2v20c18.667 1.33301 32.834 3.83301 42.501 7.5s16.5 9.33398 20.5 17.001
s6.16699 17.167 6.5 28.5s0.5 25.333 0.5 42v396v22c0 8.66699 -0.333008 17.667 -1 27s-1.83398 18.166 -3.50098 26.499s-3.83398 14.833 -6.50098 19.5c-6.66699 11.333 -16.167 18.166 -28.5 20.499s-24.5 4.16602 -36.5 5.49902v20l161 32v-469z" />
    <glyph glyph-name="l" unicode="l" horiz-adv-x="280" 
d="M183 119c0.666992 -16.667 0.999023 -31.001 0.999023 -43.001s1.83301 -22.167 5.5 -30.5s10.167 -14.666 19.5 -18.999s24 -7.16602 44 -8.49902v-20l-57.5 2l-57.5 2l-55 -2l-55 -2v20c18.667 1.33301 32.834 3.83301 42.501 7.5s16.5 9.33398 20.5 17.001
s6.16699 17.167 6.5 28.5s0.5 25.333 0.5 42v384v24c0 10 -0.333008 20.333 -1 31s-1.66699 20.667 -3 30s-3.33301 16.666 -6 21.999c-3.33301 6 -7.33301 10.667 -12 14s-10 5.66602 -16 6.99902s-12.167 2.33301 -18.5 3l-18.5 2v20l160 32v-563z" />
    <glyph glyph-name="m" unicode="m" horiz-adv-x="860" 
d="M185 119c0 -16.667 -0.167969 -31.0029 -0.500977 -43.0029s1.33398 -22.167 5.00098 -30.5s10.167 -14.666 19.5 -18.999s23.666 -7.16602 42.999 -8.49902v-20l-54 2l-54 2l-57 -2l-57 -2v20c18.667 1.33301 32.834 3.83301 42.501 7.5s16.5 9.33398 20.5 17.001
s6.16699 17.167 6.5 28.5s0.5 25.333 0.5 42v123v27c0 11.333 -0.166992 23 -0.5 35s-0.833008 23.333 -1.5 34s-1.66699 19 -3 25c-2 8.66699 -5.16699 15.334 -9.5 20.001s-9.33301 7.83398 -15 9.50098s-12.167 2.5 -19.5 2.5h-23v20
c26 3.33301 49.333 8.16602 70 14.499s43.334 11.833 68.001 16.5l11 -81c19.333 25.333 41.166 45.166 65.499 59.499s52.833 21.5 85.5 21.5c14.667 0 29.167 -1.33301 43.5 -4s27.5 -7.33398 39.5 -14.001s22.667 -15.167 32 -25.5s16.666 -22.833 21.999 -37.5
c17.333 26.667 39 46.834 65 60.501s55 20.5 87 20.5c22 0 43.333 -3.5 64 -10.5s38.334 -19.5 53.001 -37.5c6.66699 -8 11.834 -17.5 15.501 -28.5s6.33398 -22.5 8.00098 -34.5s2.66699 -24 3 -36s0.5 -23 0.5 -33v-141v-43c0 -12 1.66699 -22.167 5 -30.5
s9.83301 -14.666 19.5 -18.999s24.167 -7.16602 43.5 -8.49902v-20l-55.5 2l-55.5 2l-55.5 -2l-55.5 -2v20c18.667 1.33301 32.667 3.83301 42 7.5s16 9.33398 20 17.001s6.16699 17.167 6.5 28.5s0.5 25.333 0.5 42v126c0 17.333 -0.166992 36 -0.5 56
s-3.16602 38.333 -8.49902 55s-14.333 30.5 -27 41.5s-31.667 16.5 -57 16.5c-20.667 0 -39.834 -6.33301 -57.501 -19s-30.834 -28.334 -39.501 -47.001c-6.66699 -14.667 -10.5 -30.834 -11.5 -48.501s-1.5 -35.834 -1.5 -54.501v-120
c0.666992 -16.667 0.833984 -31 0.500977 -43s1.16699 -22.167 4.5 -30.5s9.66602 -14.666 18.999 -18.999s24 -7.16602 44 -8.49902v-20l-54.5 2l-54.5 2l-56.5 -2l-56.5 -2v20c18.667 1.33301 32.667 3.83301 42 7.5s16 9.33398 20 17.001s6.16699 17.167 6.5 28.5
s0.5 25.333 0.5 42v126c0 17.333 -0.166992 36 -0.5 56s-3.16602 38.333 -8.49902 55s-14.333 30.5 -27 41.5s-31.667 16.5 -57 16.5c-20.667 0 -39.834 -6.33301 -57.501 -19s-30.834 -28.334 -39.501 -47.001c-6.66699 -14.667 -10.5 -30.834 -11.5 -48.501
s-1.5 -35.834 -1.5 -54.501v-120z" />
    <glyph glyph-name="n" unicode="n" horiz-adv-x="600" 
d="M495 119l-0.00292969 -43.0078c0 -12 2 -22.167 6 -30.5s10.833 -14.666 20.5 -18.999s24.167 -7.16602 43.5 -8.49902v-20l-54.5 2l-54.5 2l-58 -2l-58 -2v20c18.667 1.33301 32.834 3.83301 42.501 7.5s16.5 9.33398 20.5 17.001s6.16699 17.167 6.5 28.5
s0.5 25.333 0.5 42v128c0 17.333 -0.333008 35.833 -1 55.5s-3.83398 37.667 -9.50098 54s-14.667 30 -27 41s-30.5 16.5 -54.5 16.5c-19.333 0 -37 -3.5 -53 -10.5s-29.5 -16.667 -40.5 -29s-19.5 -26.666 -25.5 -42.999s-9 -33.5 -9 -51.5v-155v-43
c0 -12 1.83301 -22.167 5.5 -30.5s10.334 -14.666 20.001 -18.999s24.5 -7.16602 44.5 -8.49902v-20l-54.5 2l-54.5 2l-58 -2l-58 -2v20c18.667 1.33301 32.834 3.83301 42.501 7.5s16.5 9.33398 20.5 17.001s6.16699 17.167 6.5 28.5s0.5 25.333 0.5 42v123v27
c0 11.333 -0.166992 23 -0.5 35s-0.833008 23.333 -1.5 34s-1.66699 19 -3 25c-2 8.66699 -5.16699 15.334 -9.5 20.001s-9.33301 7.83398 -15 9.50098s-12.167 2.5 -19.5 2.5h-23v20c26 3.33301 49.333 8.16602 70 14.499s43.334 11.833 68.001 16.5l13 -91h2
c34 60.667 87.333 91 160 91c48 0 84.833 -11 110.5 -33s38.5 -57 38.5 -105v-183z" />
    <glyph glyph-name="o" unicode="o" horiz-adv-x="560" 
d="M280 440c30.667 0 60.499 -5.66699 89.499 -17s54.833 -27 77.5 -47s40.667 -43.833 54 -71.5s20 -57.5 20 -89.5c0 -34 -6.33301 -65 -19 -93s-30 -52 -52 -72s-47.667 -35.5 -77 -46.5s-60.333 -16.5 -93 -16.5s-63.5 5.83301 -92.5 17.5s-54.5 28 -76.5 49
s-39.333 45.5 -52 73.5s-19 58.667 -19 92c0 32 6.83301 61.5 20.5 88.5s31.667 50.333 54 70s47.833 35 76.5 46s58.334 16.5 89.001 16.5zM275.999 417c-27.333 0 -49.833 -6.49805 -67.5 -19.498s-31.5 -29.333 -41.5 -49s-17 -41.334 -21 -65.001s-6 -46.5 -6 -68.5
c0 -24 2 -48.167 6 -72.5s11.5 -46.333 22.5 -66s25.833 -35.667 44.5 -48s42.667 -18.5 72 -18.5c27.333 0 49.833 6.16699 67.5 18.5s31.5 28.166 41.5 47.499s17 40.833 21 64.5s6 46.5 6 68.5c0 24 -2 48.333 -6 73s-11.333 47 -22 67s-25.5 36.333 -44.5 49
s-43.167 19 -72.5 19z" />
    <glyph glyph-name="p" unicode="p" horiz-adv-x="580" 
d="M182 168c0 -8.66699 0.170898 -18.001 0.503906 -28.001s1.16602 -19.833 2.49902 -29.5s3.5 -19 6.5 -28s7.16699 -16.833 12.5 -23.5c11.333 -13.333 26 -23.333 44 -30s36 -10 54 -10c26.667 0 49 6 67 18s32.5 27.333 43.5 46s18.667 39.5 23 62.5
s6.5 45.833 6.5 68.5s-2 45.5 -6 68.5s-11.333 43.833 -22 62.5s-24.834 33.834 -42.501 45.501s-40.167 17.5 -67.5 17.5c-21.333 0 -40.833 -5 -58.5 -15s-31.834 -24 -42.501 -42s-16.834 -36 -18.501 -54s-2.5 -37.333 -2.5 -58v-71zM170.004 356.999
l1.99609 0.00195312c18.667 26.667 39.834 47.167 63.501 61.5s51.834 21.5 84.501 21.5s62.667 -5.83301 90 -17.5s50.833 -27.834 70.5 -48.501s34.834 -44.834 45.501 -72.501s16 -57.834 16 -90.501c0 -30.667 -5.33301 -59.5 -16 -86.5s-25.5 -50.667 -44.5 -71
s-41.833 -36.5 -68.5 -48.5s-55.667 -18 -87 -18c-30 0 -56.167 4.66699 -78.5 14s-44.166 23.666 -65.499 42.999v-194v-46c0 -12.667 2.33301 -23 7 -31s12.167 -14 22.5 -18s26.166 -6.33301 47.499 -7v-20l-55.5 2l-55.5 2l-60 -2l-60 -2v20
c18.667 1.33301 32.834 4 42.501 8s16.5 9.66699 20.5 17s6 16.833 6 28.5v42.5v392v27c0 11.333 -0.166992 23 -0.5 35s-0.833008 23.333 -1.5 34s-1.66699 19 -3 25c-2 8.66699 -5.16699 15.334 -9.5 20.001s-9.33301 7.83398 -15 9.50098s-12.167 2.5 -19.5 2.5h-23v20
c25.333 3.33301 50 8 74 14l71 17v-83z" />
    <glyph glyph-name="q" unicode="q" horiz-adv-x="560" 
d="M472 440l0.000976562 -590.001v-43c0 -12 1.83301 -22.167 5.5 -30.5s10.334 -14.833 20.001 -19.5s24.167 -7.66699 43.5 -9v-20l-54.5 2l-54.5 2l-61 -2l-61 -2v20c20 1.33301 35.333 3.83301 46 7.5s18.167 9 22.5 16s6.83301 16.333 7.5 28s1 26.5 1 44.5v208h-2
c-14.667 -22.667 -33.834 -39.167 -57.501 -49.5s-48.834 -15.5 -75.501 -15.5c-32.667 0 -62.167 5.66699 -88.5 17s-48.833 27 -67.5 47s-33 43.5 -43 70.5s-15 56.5 -15 88.5s5.66699 62 17 90s27.166 52.333 47.499 73s44.333 37 72 49s57.834 18 90.501 18
c22.667 0 47 -4.16699 73 -12.5s47.667 -20.166 65 -35.499zM387.001 270.999c0 17.333 -1.66699 34.167 -5 50.5s-9 31 -17 44s-19 23.333 -33 31s-31.333 11.5 -52 11.5c-28.667 0 -52.167 -6.16699 -70.5 -18.5s-32.833 -28.333 -43.5 -48s-18 -41.5 -22 -65.5
s-6 -47.667 -6 -71c0 -22 1.83301 -44.333 5.5 -67s10.5 -43.167 20.5 -61.5s23.667 -33.333 41 -45s39.666 -17.5 66.999 -17.5c22 0 40.5 4.33301 55.5 13s26.833 20 35.5 34s14.834 30 18.501 48s5.5 36.333 5.5 55v107z" />
    <glyph glyph-name="r" unicode="r" horiz-adv-x="400" 
d="M105 236l0.00292969 26.9961c0 11.333 -0.166992 23 -0.5 35s-0.833008 23.333 -1.5 34s-2 19 -4 25c-2 8.66699 -5.16699 15.334 -9.5 20.001s-9.33301 7.83398 -15 9.50098s-12 2.5 -19 2.5h-22.5v20c23.333 1.33301 46.166 5.5 68.499 12.5s44.5 13.167 66.5 18.5
c4.66699 -14.667 8 -30.667 10 -48s2.66699 -35 2 -53h2c13.333 30.667 32.166 55.167 56.499 73.5s53.833 27.5 88.5 27.5c8 0 16.167 -1 24.5 -3s16 -5 23 -9s12.667 -9.33301 17 -16s6.5 -14.667 6.5 -24s-3.5 -17.666 -10.5 -24.999s-15.167 -11 -24.5 -11
c-10.667 0 -18.5 2.66699 -23.5 8s-9.5 11.333 -13.5 18s-8.33301 12.667 -13 18s-12 8 -22 8c-15.333 0 -30.333 -5.16699 -45 -15.5s-25.667 -21.833 -33 -34.5c-11.333 -20.667 -18 -42.667 -20 -66s-3 -46.666 -3 -69.999v-99v-46
c0 -12.667 2.16699 -22.834 6.5 -30.501s11.666 -13.5 21.999 -17.5s26.166 -6.33301 47.499 -7v-20l-57.5 2l-57.5 2l-58 -2l-58 -2v20c18.667 1.33301 32.834 3.83301 42.501 7.5s16.5 9.33398 20.5 17.001s6.16699 17.167 6.5 28.5s0.5 25.333 0.5 42v123z" />
    <glyph glyph-name="s" unicode="s" horiz-adv-x="360" 
d="M46 -6l-10.002 -0.00195312l-4 143h20c4 -16 9.16699 -31.667 15.5 -47s14.5 -28.833 24.5 -40.5s21.833 -21.167 35.5 -28.5s29.834 -11 48.501 -11c22 0 41.5 5.66699 58.5 17s25.5 29 25.5 53c0 14 -3.16699 26.167 -9.5 36.5s-14.5 19.5 -24.5 27.5s-21 15 -33 21
l-34 17c-14.667 7.33301 -29.167 15.166 -43.5 23.499s-27.166 17.833 -38.499 28.5s-20.5 23 -27.5 37s-10.5 30.333 -10.5 49c0 17.333 3.16699 33.333 9.5 48s15.166 27.334 26.499 38.001s24.5 19 39.5 25s31.167 9 48.5 9c15.333 0 31.833 -2.16699 49.5 -6.5
s33.5 -10.5 47.5 -18.5l20 24h12l-2 -125h-20c-4.66699 12.667 -9.66699 25.167 -15 37.5s-11.833 23.333 -19.5 33s-17 17.5 -28 23.5s-24.5 9 -40.5 9c-16.667 0 -31.5 -4.66699 -44.5 -14s-19.5 -23 -19.5 -41c0 -13.333 3 -24.5 9 -33.5s13.667 -16.833 23 -23.5
s19.5 -12.667 30.5 -18s21.167 -10.666 30.5 -15.999l50 -26.5c16 -8.33301 30 -18 42 -29s21.667 -24.167 29 -39.5s11 -34.333 11 -57c0 -20.667 -4 -39.167 -12 -55.5s-18.833 -30.166 -32.5 -41.499s-29.334 -20 -47.001 -26s-36.167 -9 -55.5 -9s-38.666 3 -57.999 9
s-36.666 15 -51.999 27z" />
    <glyph glyph-name="t" unicode="t" horiz-adv-x="320" 
d="M45 396l0.000976562 17.999c25.333 14.667 49.166 32.167 71.499 52.5s38.833 44.833 49.5 73.5h15v-117h114v-27h-114v-285c0 -11.333 0.666992 -22.5 2 -33.5s4.33301 -20.833 9 -29.5s11 -15.667 19 -21s18.667 -8 32 -8c17.333 0 31.333 4.33301 42 13
s20.667 19.334 30 32.001l18 -13c-9.33301 -24 -25 -40.667 -47 -50s-45 -14 -69 -14c-36 0 -65.167 7.66699 -87.5 23s-33.5 42 -33.5 80v306h-51z" />
    <glyph glyph-name="u" unicode="u" horiz-adv-x="580" 
d="M180 158c0 -14.667 0.667969 -30.168 2.00098 -46.501s4.66602 -31.333 9.99902 -45s13.666 -25 24.999 -34s26.666 -13.5 45.999 -13.5c20 0 38.333 4.16699 55 12.5s31 19.333 43 33s21.5 29.334 28.5 47.001s10.5 36.167 10.5 55.5v134
c0 18.667 -0.166992 34.5 -0.5 47.5s-2.66602 23.667 -6.99902 32s-11.666 14.833 -21.999 19.5s-25.833 8.66699 -46.5 12v20c14 -1.33301 27.833 -2.16602 41.5 -2.49902s27.5 -1.16602 41.5 -2.49902c13.333 1.33301 26.5 2.16602 39.5 2.49902
s25.833 1.16602 38.5 2.49902v-322c0 -6.66699 0.166992 -14 0.5 -22s1.66602 -15.333 3.99902 -22s6 -12.167 11 -16.5s12.167 -6.5 21.5 -6.5c6 0 12.167 0.333008 18.5 1l19.5 2v-23l-139 -36l-21 94c-18 -28 -41.833 -50.667 -71.5 -68s-61.5 -26 -95.5 -26
c-50.667 0 -86.334 12.833 -107.001 38.5s-31 60.5 -31 104.5v171c0 18.667 -0.166992 34.5 -0.5 47.5s-2.66602 23.667 -6.99902 32s-11.666 14.833 -21.999 19.5s-25.833 8.66699 -46.5 12v19l41.5 -2l41.5 -2l39.5 2l38.5 2v-273z" />
    <glyph glyph-name="v" unicode="v" horiz-adv-x="420" 
d="M56 337l-10.9971 28c-3.33301 8.66699 -7.5 16.167 -12.5 22.5s-11.167 11.666 -18.5 15.999s-17 6.83301 -29 7.5v20l53.5 -2l53.5 -2c17.333 0.666992 34.333 1.16699 51 1.5s33.667 1.16602 51 2.49902v-20c-5.33301 0 -11.333 -0.5 -18 -1.5
s-12.834 -2.66699 -18.501 -5s-10.5 -5.66602 -14.5 -9.99902s-6 -9.83301 -6 -16.5c0 -7.33301 1.66699 -15.833 5 -25.5l8 -23.5l97 -241c4.66699 13.333 12.5 33.333 23.5 60l33.5 83.5c11.333 29 21.333 56.333 30 82s13 44.5 13 56.5c0 8 -1.83301 14.5 -5.5 19.5
s-8.33398 9 -14.001 12s-11.834 5.16699 -18.501 6.5s-13 2.33301 -19 3v20l37 -2l37 -2l36 2l36 2v-20c-8.66699 -2 -16 -4.66699 -22 -8s-11.667 -8.66602 -17 -15.999c-4 -5.33301 -8.5 -13 -13.5 -23s-10 -20.833 -15 -32.5s-9.5 -23 -13.5 -34
s-7.33301 -19.833 -10 -26.5l-118 -291h-21z" />
    <glyph glyph-name="w" unicode="w" horiz-adv-x="640" 
d="M319 294l-114.002 -314.003h-25l-107 323l-12 39.5c-4.66699 15 -10.334 27.167 -17.001 36.5s-15.334 16.833 -26.001 22.5s-21.334 9.16699 -32.001 10.5v19l55.5 -2l55.5 -2l54 2l54 2v-19c-6 0 -12.667 -0.833008 -20 -2.5s-14.166 -4.16699 -20.499 -7.5
s-11.666 -7.66602 -15.999 -12.999s-6.5 -12.333 -6.5 -21c0 -4.66699 0.833008 -10.834 2.5 -18.501s3.83398 -15.667 6.50098 -24l7.5 -24l5.5 -18.5l58 -185h2l114 330h14l128 -330h2l62 205c3.33301 10 6.16602 20.167 8.49902 30.5s3.5 20.5 3.5 30.5
c0 16.667 -6.33301 28.334 -19 35.001s-26.334 11 -41.001 13v19l39.5 -2l39.5 -2l40 2l40 2v-19c-7.33301 -0.666992 -14.166 -2.66699 -20.499 -6s-12.166 -6.66602 -17.499 -9.99902c-5.33301 -4 -10.166 -9.66699 -14.499 -17s-8.16602 -15.333 -11.499 -24
s-6.33301 -17.167 -9 -25.5s-5 -15.166 -7 -20.499l-105 -329h-26z" />
    <glyph glyph-name="x" unicode="x" 
d="M319 319l10.0039 12.5049c4 5 8 10.333 12 16s7.5 11.334 10.5 17.001s4.5 10.5 4.5 14.5c0 6 -1.83301 11.167 -5.5 15.5s-8.33398 7.66602 -14.001 9.99902s-11.5 4 -17.5 5s-11.333 1.5 -16 1.5v20l45.5 -2l45.5 -2l43 2l43 2v-20
c-13.333 -0.666992 -24.666 -2.83398 -33.999 -6.50098s-17.833 -8.5 -25.5 -14.5s-14.834 -13 -21.501 -21s-14 -16.333 -22 -25l-91 -106l138 -160l19.5 -22c5.66699 -6.66699 11.5 -12.5 17.5 -17.5s12.833 -9.16699 20.5 -12.5s17.167 -6 28.5 -8v-20l-56 2l-56 2
l-58.5 -2l-58.5 -2v20h14.5c6.33301 0 12.833 0.5 19.5 1.5s12.334 2.83301 17.001 5.5s7 7 7 13s-3 12.5 -9 19.5l-14 16.5l-85 101l-41 -52l-12.5 -15c-5 -6 -10 -12.5 -15 -19.5s-9.33301 -14 -13 -21s-5.5 -12.833 -5.5 -17.5c0 -6.66699 2 -12 6 -16s8.66699 -7 14 -9
s11.166 -3.5 17.499 -4.5s11.833 -1.83301 16.5 -2.5v-20l-46.5 2l-46.5 2l-47 -2l-47 -2v20c14.667 0 27.667 2.33301 39 7s21.666 10.667 30.999 18s18.333 15.833 27 25.5l26 30.5l78 97l-135 170c-10.667 13.333 -19.834 23.666 -27.501 30.999s-20.5 12 -38.5 14v20
l52.5 -2l52.5 -2l54 2l54 2v-20c-2 -0.666992 -5.83301 -1.33398 -11.5 -2.00098s-11.834 -1.5 -18.501 -2.5s-12.5 -2.83301 -17.5 -5.5s-7.5 -6.33398 -7.5 -11.001c0 -3.33301 2.16699 -8.33301 6.5 -15s9.33301 -13.667 15 -21l16.5 -21
c5.33301 -6.66699 9.33301 -11.334 12 -14.001l51 -62z" />
    <glyph glyph-name="y" unicode="y" horiz-adv-x="420" 
d="M59 334c-3.33301 8.66699 -7.49609 18.3428 -12.4961 29.0098s-10.5 19.667 -16.5 27c-4.66699 5.33301 -11.834 10.166 -21.501 14.499s-17.5 6.5 -23.5 6.5v20l51 -2l51 -2l56.5 2l56.5 2v-20c-3.33301 -1.33301 -8.5 -2.33301 -15.5 -3s-13.833 -2 -20.5 -4
s-12.5 -5.16699 -17.5 -9.5s-7.5 -10.5 -7.5 -18.5c0 -6.66699 1.66699 -15.334 5 -26.001s7.16602 -21.834 11.499 -33.501s8.83301 -23 13.5 -34l11 -26.5l64 -153l75 180c5.33301 12 11.333 27.167 18 45.5s10 34.166 10 47.499c0 6.66699 -1.83301 12.334 -5.5 17.001
s-8.33398 8.16699 -14.001 10.5s-11.667 4.16602 -18 5.49902s-12.166 2 -17.499 2v20l38.5 -2l38.5 -2l33 2l33 2v-20c-10.667 0 -19 -1.83301 -25 -5.5s-10.833 -8.33398 -14.5 -14.001s-6.83398 -12.334 -9.50098 -20.001s-6 -15.834 -10 -24.501l-13 -29l-208 -480
l-13 -30c-5.33301 -12 -11.5 -23.833 -18.5 -35.5s-14.833 -21.667 -23.5 -30s-18.334 -12.5 -29.001 -12.5c-9.33301 -2 -16.666 -0.333008 -21.999 5s-8 11.666 -8 18.999c0 11.333 3 20.166 9 26.499s13.167 11.666 21.5 15.999l25 13
c8.33301 4.33301 15.166 10.5 20.499 18.5c8 12 16 26.833 24 44.5l21 47.5l38 85z" />
    <glyph glyph-name="z" unicode="z" horiz-adv-x="420" 
d="M388 0h-364.001l260 404h-92c-17.333 0 -32.833 -0.333008 -46.5 -1s-25.5 -3.5 -35.5 -8.5s-18.167 -12.833 -24.5 -23.5s-11.5 -25.667 -15.5 -45h-19l9 101h337l-259 -404h106c20 0 37.167 0.5 51.5 1.5s26.833 4.33301 37.5 10s19.834 14.5 27.501 26.5
s14.167 28.667 19.5 50h17z" />
    <glyph glyph-name="braceleft" unicode="{" horiz-adv-x="280" 
d="M175 -40c0 -30.667 4.83301 -54.333 14.5 -71s29.167 -29 58.5 -37v-2c-25.333 0 -46.666 2 -63.999 6s-31.5 11 -42.5 21s-18.833 23.333 -23.5 40s-7 37.667 -7 63v180c0 12.667 -1.16699 25 -3.5 37s-6.5 23 -12.5 33s-13.833 18.167 -23.5 24.5
s-21.834 10.166 -36.501 11.499v4c16 3.33301 29 7.66602 39 12.999s17.667 12.166 23 20.499s9 18.5 11 30.5s3 26 3 42v161c0 26.667 2 49.5 6 68.5s11 34.333 21 46s23.667 20 41 25s39.333 6.83301 66 5.5v-2c-26.667 -7.33301 -45 -19.666 -55 -36.999s-15 -41 -15 -71
v-170c0 -17.333 -1 -33.166 -3 -47.499s-5.83301 -27.166 -11.5 -38.499s-14 -20.833 -25 -28.5s-25.5 -13.5 -43.5 -17.5v-4c34 -6 56.333 -19 67 -39s16 -47 16 -81v-186z" />
    <glyph glyph-name="bar" unicode="|" horiz-adv-x="260" 
d="M164 750v-1000h-67v1000h67z" />
    <glyph glyph-name="braceright" unicode="}" horiz-adv-x="280" 
d="M105 572c0 30.667 -4.83301 54.333 -14.5 71s-29.167 29 -58.5 37v2c25.333 0 46.666 -2 63.999 -6s31.5 -11 42.5 -21s18.833 -23.333 23.5 -40s7 -37.667 7 -63v-180c0 -12.667 1.16699 -25 3.5 -37s6.5 -23 12.5 -33s13.833 -18.167 23.5 -24.5
s21.834 -10.166 36.501 -11.499v-4c-16 -3.33301 -29 -7.66602 -39 -12.999s-17.667 -12.166 -23 -20.499s-9 -18.5 -11 -30.5s-3 -26 -3 -42v-161c0 -26.667 -2 -49.5 -6 -68.5s-11 -34.333 -21 -46s-23.667 -20 -41 -25s-39.333 -6.83301 -66 -5.5v2
c26.667 7.33301 45 19.666 55 36.999s15 41 15 71v170c0 17.333 1 33.166 3 47.499s5.83301 27.166 11.5 38.499s14 20.833 25 28.5s25.5 13.5 43.5 17.5v4c-34 6 -56.333 19 -67 39s-16 47 -16 81v186z" />
    <glyph glyph-name="asciitilde" unicode="~" 
d="M508 296c-7.33301 -13.333 -15.8311 -26.667 -25.498 -40s-20.334 -25.333 -32.001 -36s-24.5 -19.167 -38.5 -25.5s-29.333 -9.5 -46 -9.5s-34.834 4.5 -54.501 13.5l-59.5 27.5c-19.333 8.66699 -38 15.5 -56 20.5s-34.333 7.5 -49 7.5
c-13.333 0 -25 -2.83301 -35 -8.5s-19 -13 -27 -22s-15.167 -18.667 -21.5 -29l-18.5 -30.5l-33 37c8 14 16.5 28 25.5 42s19.333 26.667 31 38s24.5 20.5 38.5 27.5s30 10.5 48 10.5s37.167 -3.66699 57.5 -11s40.166 -15.333 59.499 -24
c20 -9.33301 38.833 -17.666 56.5 -24.999s33.167 -11 46.5 -11c11.333 0 22 2.66699 32 8s19.167 12.166 27.5 20.499s15.833 17.5 22.5 27.5s12.334 19.667 17.001 29z" />
    <glyph glyph-name="exclamdown" unicode="&#xa1;" horiz-adv-x="320" 
d="M174 269c-1.33301 -57.333 -0.00292969 -114.334 3.99707 -171.001s11.667 -113.334 23 -170.001c1.33301 -6.66699 2.83301 -14.667 4.5 -24l5 -28c1.66699 -9.33301 3 -18.666 4 -27.999s1.5 -17.333 1.5 -24c0 -16.667 -4.16699 -32.5 -12.5 -47.5
s-22.166 -22.5 -41.499 -22.5c-17.333 0 -30.666 7 -39.999 21s-14 29 -14 45c0 15.333 1.83301 33.333 5.5 54s7.16699 38.667 10.5 54c11.333 56.667 18.833 113.334 22.5 170.001s4.83398 113.667 3.50098 171h24zM159.997 325.999c-15.333 0 -28.6641 5.5 -39.9971 16.5
s-17 24.167 -17 39.5s5.16699 28.833 15.5 40.5s23.166 17.5 38.499 17.5s29.166 -5 41.499 -15s18.5 -23.333 18.5 -40c0 -15.333 -5.33301 -29 -16 -41s-24.334 -18 -41.001 -18z" />
    <glyph glyph-name="cent" unicode="&#xa2;" 
d="M343 529c-10 3.33301 -20.002 5.00098 -30.002 5.00098c-28 0 -51.167 -6.5 -69.5 -19.5s-32.666 -29.667 -42.999 -50s-17.666 -42.833 -21.999 -67.5s-6.5 -48.334 -6.5 -71.001c0 -23.333 2.33301 -46.833 7 -70.5s14.667 -45.167 30 -64.5zM184.998 129.001
c-18 8 -34 18.8311 -48 32.498s-25.833 29 -35.5 46s-17 35 -22 54s-7.5 38.167 -7.5 57.5c0 34 6.16699 65.5 18.5 94.5s29.333 54.167 51 75.5s47 38 76 50s60.5 18 94.5 18c7.33301 -0.666992 14.166 -1 20.499 -1s13.166 -0.333008 20.499 -1l45 111h37l-46 -117
c6.66699 -2 13.5 -4.83301 20.5 -8.5s13.5 -8 19.5 -13s11 -10.667 15 -17s6 -13.5 6 -21.5c0 -9.33301 -3.16699 -17.166 -9.5 -23.499s-14.166 -9.5 -23.499 -9.5c-15.333 0 -26.166 5.83301 -32.499 17.5s-10.166 23.834 -11.499 36.501h-2l-135 -347
c14 -8.66699 27.667 -15.5 41 -20.5s28.666 -7.5 45.999 -7.5c24.667 0 46.5 6.66699 65.5 20s37.167 28.333 54.5 45l20 -20c-20 -24.667 -44.5 -43.667 -73.5 -57s-59.5 -20 -91.5 -20c-14 0 -27.833 1.16699 -41.5 3.5s-27.167 5.5 -40.5 9.5l-49 -127h-37z" />
    <glyph glyph-name="sterling" unicode="&#xa3;" 
d="M189 71l-41.499 22.001c-13.667 7.33301 -28.834 11 -45.501 11c-15.333 0 -29 -4 -41 -12s-18 -20.333 -18 -37s5.5 -27.667 16.5 -33s23.833 -8 38.5 -8c21.333 0 39.5 5.16699 54.5 15.5s27.167 24.166 36.5 41.499zM247.001 361.001h157.996v-36h-150
c4 -15.333 7.33301 -30.833 10 -46.5s4 -31.5 4 -47.5c0 -24.667 -2.33301 -48.334 -7 -71.001s-13 -45 -25 -67c9.33301 -4 20 -7.66699 32 -11s24.167 -6.33301 36.5 -9s24.5 -4.66699 36.5 -6s23 -2 33 -2c29.333 0 54.333 6.33301 75 19s38.334 31 53.001 55
c0.666992 -18 -1.33301 -36 -6 -54s-12.334 -34.333 -23.001 -49s-23.667 -26.5 -39 -35.5s-33 -13.5 -53 -13.5c-28 0 -54.667 6.16699 -80 18.5s-49.666 25.166 -72.999 38.499l-17 10c-12.667 -19.333 -29.834 -35.333 -51.501 -48s-44.167 -19 -67.5 -19
c-19.333 0 -36.666 5.83301 -51.999 17.5s-23 27.834 -23 48.501c0 23.333 7.83301 42.166 23.5 56.499s35.167 21.5 58.5 21.5c16.667 0 33.5 -2.16699 50.5 -6.5s32.833 -10.833 47.5 -19.5l5 57c0 27.333 -4.33301 55 -13 83l-25 80h-120v36h109
c-6 21.333 -11.333 43 -16 65s-7 44 -7 66c0 27.333 4.5 52.166 13.5 74.499s21.5 41.333 37.5 57s35.167 27.667 57.5 36s47.166 12.5 74.499 12.5c22.667 0 45 -2.83301 67 -8.5s41.667 -15.834 59 -30.501c8 -7.33301 15.333 -16.166 22 -26.499s10 -21.166 10 -32.499
s-3.5 -21.166 -10.5 -29.499s-16.167 -12.5 -27.5 -12.5c-15.333 0 -26.166 5.16699 -32.499 15.5s-10.833 21.833 -13.5 34.5c-1.33301 6 -2.83301 12.333 -4.5 19s-4.16699 12.667 -7.5 18c-7.33301 10.667 -17.166 18.334 -29.499 23.001s-24.166 7 -35.499 7
c-31.333 0 -55.666 -10.167 -72.999 -30.5s-26 -45.5 -26 -75.5c0 -15.333 1 -29.333 3 -42s4.66699 -26.667 8 -42z" />
    <glyph glyph-name="currency" unicode="&#xa4;" 
d="M475 582l26 -26l-54 -54c22.667 -28 38.667 -55.5 48 -82.5s14 -53.833 14 -80.5s-4.66699 -53.5 -14 -80.5s-25.333 -54.5 -48 -82.5l54 -54l-26 -26l-54 54c-27.333 -21.333 -54.166 -36.5 -80.499 -45.5s-53.833 -14.167 -82.5 -15.5c-26 0 -52 4.5 -78 13.5
s-52.667 24.167 -80 45.5l-54 -54l-26 26l54 54c-22.667 28 -38.667 55.5 -48 82.5s-14 53.833 -14 80.5s4.66699 53.5 14 80.5s25.333 54.5 48 82.5l-54 54l26 26l54 -54c27.333 21.333 54 36.5 80 45.5s52 13.5 78 13.5c28.667 1.33301 56.167 -2.5 82.5 -11.5
s53.166 -24.167 80.499 -45.5zM262 129c28.667 0 55.668 5.66602 81.001 16.999s47.333 26.5 66 45.5s33.334 41.333 44.001 67s16 52.5 16 80.5s-5.33301 54.5 -16 79.5s-25.334 46.833 -44.001 65.5s-40.5 33.5 -65.5 44.5s-51.833 16.5 -80.5 16.5
c-29.333 0 -56.833 -5.33301 -82.5 -16s-48 -25.167 -67 -43.5s-34 -40.166 -45 -65.499s-16.5 -53 -16.5 -83c0 -29.333 5.5 -56.666 16.5 -81.999s26 -47.333 45 -66s41.167 -33.334 66.5 -44.001s52.666 -16 81.999 -16z" />
    <glyph glyph-name="yen" unicode="&#xa5;" 
d="M453 265l-0.00292969 -35.999h-153v-131c0 -16 0.666992 -28.667 2 -38s5.16602 -16.5 11.499 -21.5s16.333 -8.66699 30 -11s32.5 -4.5 56.5 -6.5v-23l-71 2l-71 2l-72.5 -2l-72.5 -2v23c24 2 42.833 4.16699 56.5 6.5s23.834 6 30.501 11s10.834 12.167 12.501 21.5
s2.5 22 2.5 38v131h-148v36h148v53l-26 42h-128v36h107l-76 132l-13 23c-5.33301 9.33301 -11.166 19 -17.499 29s-12.666 19.167 -18.999 27.5s-12.5 14.5 -18.5 18.5c-5.33301 3.33301 -11.166 5.66602 -17.499 6.99902l-19.5 4v23l61.5 -2l61.5 -2l63 2l63 2v-23h-21
c-8.66699 0 -17 -1 -25 -3s-15 -5.16699 -21 -9.5s-9 -10.833 -9 -19.5c0 -9.33301 3 -21.333 9 -36s13.167 -30 21.5 -46s16.666 -31.167 24.999 -45.5l19.5 -34.5l49 -84l71 112l17 27.5c6.66699 11 13 22.5 19 34.5s11.167 23.5 15.5 34.5s6.5 20.167 6.5 27.5
c0 9.33301 -2.5 16.666 -7.5 21.999s-11 9.33301 -18 12s-14.667 4.33398 -23 5.00098s-15.833 1.66699 -22.5 3v23l49.5 -2l49.5 -2l46.5 2l46.5 2v-23c-21.333 -4 -38.5 -13.833 -51.5 -29.5s-24.833 -32.167 -35.5 -49.5l-103 -162h116v-36h-139l-21 -32v-63h153z" />
    <glyph glyph-name="brokenbar" unicode="&#xa6;" horiz-adv-x="260" 
d="M164 675v-350h-67v350h67zM164 175v-350h-67v350h67z" />
    <glyph glyph-name="section" unicode="&#xa7;" horiz-adv-x="500" 
d="M278 156l72 -45.002c14.667 11.333 28 23.833 40 37.5s18 30.167 18 49.5c0 12.667 -3.83301 24.334 -11.5 35.001s-17 20.334 -28 29.001s-22.667 16.5 -35 23.5l-32.5 18.5l-65 36l-72 45l-24.5 -14.5c-8.33301 -5 -15.833 -10.667 -22.5 -17
s-12.167 -13.5 -16.5 -21.5s-6.5 -17.333 -6.5 -28c0 -11.333 3.33301 -21.833 10 -31.5s15 -18.5 25 -26.5s20.5 -15.333 31.5 -22l28.5 -17zM219 79.998c-20 10 -39.668 20.9951 -59.001 32.9951s-36.666 25.667 -51.999 41s-27.666 32.666 -36.999 51.999
s-14 41.666 -14 66.999c0 29.333 8.16699 54.833 24.5 76.5s37.833 37.834 64.5 48.501c-19.333 16.667 -35 36.667 -47 60s-18 48 -18 74c0 24.667 4.16699 46.334 12.5 65.001s19.833 34.334 34.5 47.001s32.167 22.167 52.5 28.5s42.166 9.5 65.499 9.5
c16.667 0 34.834 -2 54.501 -6s38 -10.5 55 -19.5s31.167 -20.667 42.5 -35s17 -31.833 17 -52.5c0 -15.333 -5 -29 -15 -41s-23 -18 -39 -18c-15.333 0 -27.833 4.5 -37.5 13.5s-14.5 21.167 -14.5 36.5c0 8.66699 1.83301 16.167 5.5 22.5s7.83398 12 12.501 17l12.5 13
c3.66699 3.66699 5.5 7.5 5.5 11.5c0 6.66699 -4.33301 12.334 -13 17.001s-18.5 8.33398 -29.5 11.001s-21.833 4.5 -32.5 5.5s-18.334 1.5 -23.001 1.5c-14 0 -28.167 -1.66699 -42.5 -5s-27 -8.83301 -38 -16.5s-20 -17.334 -27 -29.001s-10.5 -25.5 -10.5 -41.5
c0 -15.333 3.5 -29 10.5 -41s16 -22.833 27 -32.5s22.833 -18.334 35.5 -26.001l37 -21.5l54 -30c18.667 -10 37 -21.167 55 -33.5s34.333 -26.166 49 -41.499s26.5 -32.5 35.5 -51.5s13.5 -40.167 13.5 -63.5c0 -30 -7.16699 -54.667 -21.5 -74
s-32.833 -37.666 -55.5 -54.999c20.667 -15.333 37.167 -34.666 49.5 -57.999s18.5 -48 18.5 -74c0 -27.333 -5.16699 -51.5 -15.5 -72.5s-24.166 -38.667 -41.499 -53s-37.5 -25.166 -60.5 -32.499s-47.5 -11 -73.5 -11c-20.667 0 -42.167 2.66699 -64.5 8
s-43 13.833 -62 25.5s-34.667 26.334 -47 44.001s-18.5 38.5 -18.5 62.5c0 16 5.16699 30.5 15.5 43.5s24.166 19.5 41.499 19.5c15.333 0 28.333 -5.66699 39 -17s16 -24.333 16 -39c0 -9.33301 -2 -17.666 -6 -24.999s-8.33301 -13.666 -13 -18.999l-14 -14.5
c-4 -4.33301 -6 -8.83301 -6 -13.5c0 -10 5 -18.333 15 -25s21.833 -12 35.5 -16s27.334 -6.83301 41.001 -8.5s24.167 -2.5 31.5 -2.5c17.333 0 34.166 2.16699 50.499 6.5s31 11.166 44 20.499s23.5 21.166 31.5 35.499s12 31.166 12 50.499c0 16 -3.66699 30 -11 42
s-16.833 22.833 -28.5 32.5s-24.334 18.167 -38.001 25.5l-38.5 20z" />
    <glyph glyph-name="dieresis" unicode="&#xa8;" horiz-adv-x="380" 
d="M117 555c-15.333 0 -27.6641 5.16699 -36.9971 15.5s-14 22.833 -14 37.5c0 14 5.16699 25.667 15.5 35s22.166 14 35.499 14s25.166 -4.83301 35.499 -14.5s15.5 -21.167 15.5 -34.5c0 -14.667 -4.83301 -27.167 -14.5 -37.5s-21.834 -15.5 -36.501 -15.5zM254.002 555
c-14.667 0 -26.832 5.16699 -36.499 15.5s-14.5 22.833 -14.5 37.5c0 14 5.16699 25.667 15.5 35s22.166 14 35.499 14s25.166 -4.83301 35.499 -14.5s15.5 -21.167 15.5 -34.5c0 -14.667 -4.66699 -27.167 -14 -37.5s-21.666 -15.5 -36.999 -15.5z" />
    <glyph glyph-name="copyright" unicode="&#xa9;" horiz-adv-x="740" 
d="M705 329c0 -47.333 -8.83301 -91.667 -26.5 -133s-41.834 -77.5 -72.501 -108.5s-66.334 -55.5 -107.001 -73.5s-84.334 -27 -131.001 -27c-46 0 -89.167 9 -129.5 27s-75.666 42.5 -105.999 73.5s-54.166 67.167 -71.499 108.5s-26 85.333 -26 132s8.66699 91 26 133
s41 78.5 71 109.5s65.167 55.667 105.5 74s83.5 27.5 129.5 27.5c46.667 0 90.5 -9 131.5 -27s76.833 -42.5 107.5 -73.5s54.834 -67.333 72.501 -109s26.5 -86.167 26.5 -133.5zM661 328.999c2 42 -4.49902 81.166 -19.499 117.499s-36 68 -63 95
s-58.833 48.167 -95.5 63.5s-75.334 23 -116.001 23s-78.5 -7.83301 -113.5 -23.5s-65.5 -37.167 -91.5 -64.5s-46.333 -59.166 -61 -95.499s-22 -75.166 -22 -116.499s7.5 -80 22.5 -116s35.5 -67.333 61.5 -94s56.5 -47.834 91.5 -63.501s72.833 -23.5 113.5 -23.5
s78.5 7.83301 113.5 23.5s65.5 37 91.5 64s46.667 58.5 62 94.5s24 74.667 26 116zM513.001 395.998l-25.0039 0.00488281c-0.666992 32 -9.5 56.833 -26.5 74.5s-41.833 26.5 -74.5 26.5c-23.333 0 -43.5 -4.5 -60.5 -13.5s-31 -21 -42 -36s-19.333 -32.333 -25 -52
s-8.5 -40.167 -8.5 -61.5c0 -20 2.83301 -40.333 8.5 -61s14.167 -39.334 25.5 -56.001s25.5 -30.167 42.5 -40.5s36.833 -15.5 59.5 -15.5c26 0 48.833 6.33301 68.5 19s34.834 30.667 45.501 54l20 -8c-6 -15.333 -14.333 -28.833 -25 -40.5
s-22.834 -21.334 -36.501 -29.001s-28.167 -13.5 -43.5 -17.5s-30.666 -6 -45.999 -6c-27.333 0 -52.166 4.83301 -74.499 14.5s-41.5 23 -57.5 40s-28.333 37.333 -37 61s-13 49.167 -13 76.5c0 29.333 4.66699 56.166 14 80.499s22.333 45.166 39 62.499
s36.834 30.666 60.501 39.999s49.834 14 78.501 14c22 0 44.333 -2.33301 67 -7s44.667 -10.667 66 -18v-101z" />
    <glyph glyph-name="ordfeminine" unicode="&#xaa;" horiz-adv-x="340" 
d="M196 551l-28.499 -14c-11 -5.33301 -21.333 -11.166 -31 -17.499s-17.834 -13.833 -24.501 -22.5s-10 -18.334 -10 -29.001c0 -10 2.83301 -19 8.5 -27s14.167 -12 25.5 -12s22.333 3.5 33 10.5s19.667 14.167 27 21.5v90zM191.001 572
c3.33301 2.66699 5.00293 7.00293 5.00293 13.0029c0 10 -0.333008 19.167 -1 27.5s-2.66699 15.5 -6 21.5s-8.16602 10.833 -14.499 14.5s-15.166 5.5 -26.499 5.5c-4 0 -8.83301 -0.333008 -14.5 -1s-11.167 -1.83398 -16.5 -3.50098s-10 -4.16699 -14 -7.5
s-6 -7.66602 -6 -12.999c-0.666992 -8 -2.33398 -16 -5.00098 -24s-9.66699 -12 -21 -12c-7.33301 0 -13.333 2.16699 -18 6.5s-7 10.166 -7 17.499c0 11.333 4 20.666 12 27.999s17.667 13 29 17s23.166 6.66699 35.499 8s22.5 2 30.5 2c36.667 0 62.167 -6.33301 76.5 -19
s21.5 -37.334 21.5 -74.001v-87v-14.5c0 -6.33301 0.5 -13 1.5 -20s2.66699 -13 5 -18s6.16602 -7.5 11.499 -7.5s9.66602 2.33301 12.999 7s6.66602 9 9.99902 13l15 -9c-4.66699 -10.667 -12.167 -20.667 -22.5 -30s-21.166 -14 -32.499 -14s-22 3.83301 -32 11.5
s-16.667 17.167 -20 28.5c-13.333 -11.333 -28 -20.833 -44 -28.5s-33 -11.5 -51 -11.5c-16.667 0 -30.834 4.83301 -42.501 14.5s-17.5 23.167 -17.5 40.5c0 14 3.33301 25.833 10 35.5s15.167 18.334 25.5 26.001s21.5 14.167 33.5 19.5s23.333 10.666 34 15.999z" />
    <glyph glyph-name="guillemotleft" unicode="&#xab;" horiz-adv-x="480" 
d="M233 221l45.502 39l45.5 39l59 56c2 1.33301 4.83301 3.83301 8.5 7.5s7.16699 5.5 10.5 5.5c5.33301 0 8 -2.66699 8 -8c0 -4 -2.33301 -10 -7 -18s-10 -16.167 -16 -24.5s-12.167 -16.333 -18.5 -24l-13.5 -16.5l-46 -56l44 -55l13.5 -17
c6.33301 -8 12.666 -16.5 18.999 -25.5s11.833 -17.5 16.5 -25.5s7 -14 7 -18c0 -6.66699 -3 -10 -9 -10c-4 0 -7.83301 2 -11.5 6s-6.83398 7 -9.50098 9zM70.002 221l45.502 39l45.5 39l59 56c2 1.33301 4.83301 3.83301 8.5 7.5s7.16699 5.5 10.5 5.5
c5.33301 0 8 -2.66699 8 -8c0 -4 -2.33301 -10 -7 -18s-10 -16.167 -16 -24.5s-12.167 -16.333 -18.5 -24l-13.5 -16.5l-46 -56l44 -55l13.5 -17c6.33301 -8 12.666 -16.5 18.999 -25.5s11.833 -17.5 16.5 -25.5s7 -14 7 -18c0 -6.66699 -3 -10 -9 -10
c-4 0 -7.83301 2 -11.5 6s-6.83398 7 -9.50098 9z" />
    <glyph glyph-name="logicalnot" unicode="&#xac;" 
d="M441 313h-408v46h454v-249h-46v203z" />
    <glyph glyph-name="registered" unicode="&#xae;" horiz-adv-x="740" 
d="M371 -13c-46.667 0 -90.334 9 -131.001 27s-76.167 42.5 -106.5 73.5s-54.333 67.333 -72 109s-26.5 86.167 -26.5 133.5c0 46.667 8.83301 90.834 26.5 132.501s41.667 78 72 109s65.833 55.5 106.5 73.5s84.334 27 131.001 27c46 0 89.333 -9 130 -27
s76.167 -42.5 106.5 -73.5s54.166 -67.333 71.499 -109s26 -85.834 26 -132.501c0 -47.333 -8.66699 -91.833 -26 -133.5s-41.166 -78 -71.499 -109s-65.833 -55.5 -106.5 -73.5s-84 -27 -130 -27zM371 31c40.667 0 78.667 7.66699 114 23s66 36.5 92 63.5
s46.5 58.667 61.5 95s22.5 75.5 22.5 117.5c0 41.333 -7.5 80 -22.5 116s-35.5 67.5 -61.5 94.5s-56.667 48.333 -92 64s-73.333 23.5 -114 23.5s-78.834 -7.83301 -114.501 -23.5s-66.667 -37 -93 -64s-47 -58.5 -62 -94.5s-22.5 -74.667 -22.5 -116
c0 -42 7.5 -81.167 22.5 -117.5s35.667 -68 62 -95s57.333 -48.167 93 -63.5s73.834 -23 114.501 -23zM311 203c0 -9.33301 0.666016 -16.168 1.99902 -20.501s3.66602 -7.5 6.99902 -9.5s8 -3.16699 14 -3.5s13.667 -0.833008 23 -1.5v-15h-142v15
c8 0.666992 14.833 1.16699 20.5 1.5s10.334 1.16602 14.001 2.49902s6.33398 4 8.00098 8s2.5 10 2.5 18v286c0 7.33301 -0.833008 12.833 -2.5 16.5s-4.16699 6.33398 -7.5 8.00098s-8 2.66699 -14 3s-13.333 0.833008 -22 1.5v15h167c15.333 0 30.333 -1.5 45 -4.5
s27.667 -8 39 -15s20.333 -16.5 27 -28.5s10 -27.333 10 -46c0 -15.333 -2.83301 -28.666 -8.5 -39.999s-13.334 -21 -23.001 -29s-20.667 -14.5 -33 -19.5s-24.833 -8.16699 -37.5 -9.5v-2h2v-1h2c9.33301 -0.666992 17.833 -4.5 25.5 -11.5s14.667 -15.333 21 -25
s11.833 -20 16.5 -31s9 -20.5 13 -28.5l13.5 -29c5.66699 -12 11.167 -21.667 16.5 -29c8 -7.33301 20 -11 36 -11v-15h-42c-7.33301 0 -14.5 0.666992 -21.5 2s-13.167 4.33301 -18.5 9c-4 3.33301 -7.83301 8 -11.5 14s-7.16699 12.5 -10.5 19.5s-6.33301 14 -9 21
s-5 12.833 -7 17.5c-5.33301 10.667 -11.166 24 -17.499 40s-13.833 28 -22.5 36c-8 7.33301 -17.333 11.5 -28 12.5s-20.667 1.5 -30 1.5h-17v-123zM336.999 343.998c14 0 27.832 1.16699 41.499 3.5s25.834 6.5 36.501 12.5s19.167 14.5 25.5 25.5s9.5 25.5 9.5 43.5
c0 28 -8 48.667 -24 62s-37 20 -63 20h-26c-14 0 -21.833 -4 -23.5 -12s-2.5 -17.667 -2.5 -29v-126h26z" />
    <glyph glyph-name="macron" unicode="&#xaf;" horiz-adv-x="400" 
d="M66 581v41h260v-41h-260z" />
    <glyph glyph-name="degree" unicode="&#xb0;" horiz-adv-x="400" 
d="M325 547c0 -17.333 -3.33008 -33.5 -9.99707 -48.5s-15.667 -28.167 -27 -39.5s-24.666 -20.333 -39.999 -27s-31.333 -10 -48 -10c-17.333 0 -33.5 3.33301 -48.5 10s-28.167 15.667 -39.5 27s-20.333 24.5 -27 39.5s-10 31.167 -10 48.5
c0 16.667 3.16699 32.667 9.5 48s15.166 28.666 26.499 39.999s24.666 20.333 39.999 27s31.666 10 48.999 10c16.667 0 32.667 -3.33301 48 -10s28.666 -15.667 39.999 -27s20.333 -24.666 27 -39.999s10 -31.333 10 -48zM292.003 547c0 12.667 -2.5 24.5 -7.5 35.5
s-11.667 20.667 -20 29s-18.166 15 -29.499 20s-23.333 7.5 -36 7.5c-25.333 0 -46.833 -9 -64.5 -27s-26.5 -39.667 -26.5 -65c0 -12.667 2.33301 -24.667 7 -36s11.167 -21.166 19.5 -29.499s18.166 -14.833 29.499 -19.5s23.333 -7 36 -7s24.5 2.33301 35.5 7
s20.667 11.167 29 19.5s15 18.166 20 29.499s7.5 23.333 7.5 36z" />
    <glyph glyph-name="plusminus" unicode="&#xb1;" 
d="M237 505h46v-178h204v-46h-204v-181h-46v181h-204v46h204v178zM33 46h454v-46h-454v46z" />
    <glyph glyph-name="twosuperior" unicode="&#xb2;" horiz-adv-x="312" 
d="M288 320l-19.002 -85.002h-14l1 22c1.33301 7.33301 0.166016 11.166 -3.50098 11.499s-8.5 0.5 -14.5 0.5h-188h-33c12 21.333 26.667 41.5 44 60.5s35.333 37.5 54 55.5l41.5 38c13.667 12.667 26 26.167 37 40.5s19.833 29.666 26.5 45.999s10 34.5 10 54.5
c0 24 -6.83301 45.667 -20.5 65s-35.167 29 -64.5 29c-22 0 -40.833 -6.16699 -56.5 -18.5s-23.5 -29.166 -23.5 -50.499c0 -15.333 5.33301 -29.166 16 -41.499s24.667 -18.5 42 -18.5c7.33301 0 13.833 1.66699 19.5 5s11.167 7.33301 16.5 12
c-1.33301 -13.333 -8.5 -24.166 -21.5 -32.499s-26.5 -12.5 -40.5 -12.5c-24 0 -42.5 7.16699 -55.5 21.5s-19.5 32.166 -19.5 53.499c0 16 3.83301 30 11.5 42s17.834 22 30.501 30s26.834 14 42.501 18s31.167 6 46.5 6c18.667 0 36.5 -2.33301 53.5 -7s32 -11.667 45 -21
s23.5 -21 31.5 -35s12 -30.333 12 -49c0 -17.333 -3 -32.833 -9 -46.5s-14 -26.167 -24 -37.5s-21.5 -21.666 -34.5 -30.999l-39.5 -28c-20.667 -14.667 -40.667 -29.667 -60 -45s-36.666 -32.666 -51.999 -51.999h212z" />
    <glyph glyph-name="threesuperior" unicode="&#xb3;" horiz-adv-x="312" 
d="M161 477c-11.333 0 -20.334 -2.33105 -27.001 -6.99805s-12.167 -9.66699 -16.5 -15s-8.66602 -10.333 -12.999 -15s-9.83301 -7 -16.5 -7c-8 0 -12 3.66699 -12 11c0 4 1.33301 7.5 4 10.5s6 5.83301 10 8.5s8 5 12 7l10 5c12.667 6.66699 24.5 13.667 35.5 21
s20.833 15.333 29.5 24s15.5 18.667 20.5 30s7.5 24.666 7.5 39.999c0 18 -4.83301 33 -14.5 45s-25.5 18 -47.5 18c-18 0 -34 -4.66699 -48 -14s-21 -23 -21 -41c0 -10.667 3.5 -20.334 10.5 -29.001s16.833 -13 29.5 -13c8 0 15 1.33301 21 4s11.667 6.33398 17 11.001
c-4 -12.667 -11.5 -22.334 -22.5 -29.001s-23.833 -10 -38.5 -10c-16 0 -29.5 4.66699 -40.5 14s-16.5 21.666 -16.5 36.999c0 14.667 4 27.5 12 38.5s18 20.333 30 28s25.5 13.334 40.5 17.001s29.5 5.5 43.5 5.5c12.667 0 25.5 -1.5 38.5 -4.5s24.5 -7.66699 34.5 -14
s18.167 -14.333 24.5 -24s9.5 -21.167 9.5 -34.5c0 -14 -3.33301 -26.333 -10 -37s-15 -20.167 -25 -28.5s-21.167 -15.666 -33.5 -21.999s-24.166 -11.833 -35.499 -16.5l1 -2c2.66699 0.666992 5.5 1 8.5 1h9.5c15.333 0 29.833 -1.83301 43.5 -5.5
s25.667 -9.33398 36 -17.001s18.5 -17.334 24.5 -29.001s9 -25.167 9 -40.5c0 -21.333 -5 -40.333 -15 -57s-23.167 -31 -39.5 -43s-34.833 -21.167 -55.5 -27.5s-41.667 -9.5 -63 -9.5c-9.33301 0 -20 0.833008 -32 2.5s-23.5 4.83398 -34.5 9.50098
s-20.167 10.667 -27.5 18s-11 16.666 -11 27.999c0 6.66699 2.66699 12.167 8 16.5s11.666 6.5 18.999 6.5c13.333 0 21.833 -3.5 25.5 -10.5s7.33398 -14.667 11.001 -23s9.16699 -16 16.5 -23s21 -10.5 41 -10.5c18 0 32.833 3.16699 44.5 9.5s21 14.5 28 24.5
s12 21.667 15 35s4.5 27 4.5 41c0 10.667 -0.833008 21.5 -2.5 32.5s-4.83398 20.833 -9.50098 29.5s-11.667 15.834 -21 21.501s-21.333 8.5 -36 8.5z" />
    <glyph glyph-name="acute" unicode="&#xb4;" horiz-adv-x="360" 
d="M66 530l155.999 124c6 5.33301 12.833 10.5 20.5 15.5s15.5 7.5 23.5 7.5c10 0 18.333 -3.5 25 -10.5s10 -15.167 10 -24.5c0 -8 -2.16699 -14.833 -6.5 -20.5s-9.66602 -10.5 -15.999 -14.5s-13.333 -7.5 -21 -10.5s-14.5 -5.83301 -20.5 -8.5l-134 -58h-37z" />
    <glyph glyph-name="mu" unicode="&#xb5;" horiz-adv-x="580" 
d="M400 301c0 18.667 -0.167969 34.499 -0.500977 47.499s-2.66602 23.667 -6.99902 32s-11.666 14.833 -21.999 19.5s-25.833 8.66699 -46.5 12v20c14 -1.33301 27.833 -2.16602 41.5 -2.49902s27.5 -1.16602 41.5 -2.49902c13.333 1.33301 26.5 2.16602 39.5 2.49902
s25.833 1.16602 38.5 2.49902v-322c0 -6.66699 0.166992 -14 0.5 -22s1.66602 -15.333 3.99902 -22s6 -12.167 11 -16.5s12.167 -6.5 21.5 -6.5c6 0 12.167 0.333008 18.5 1l19.5 2v-23l-139 -36l-21 94c-18 -28 -41.833 -50.667 -71.5 -68s-61.5 -26 -95.5 -26
c-23.333 0 -43.333 3.66699 -60 11c2 -19.333 4.66699 -38.5 8 -57.5l10 -54.5c3.33301 -17.333 6.16602 -33.333 8.49902 -48s3.5 -27.667 3.5 -39c0 -16.667 -4.16699 -32.5 -12.5 -47.5s-22.166 -22.5 -41.499 -22.5c-17.333 0 -30.666 7 -39.999 21s-14 29 -14 45v506
c0 18.667 -0.166992 34.5 -0.5 47.5s-2.66602 23.667 -6.99902 32s-11.666 14.833 -21.999 19.5s-25.833 8.66699 -46.5 12v19l41.5 -2l41.5 -2l39.5 2l38.5 2v-273c0 -14.667 0.666992 -30.167 2 -46.5s4.66602 -31.333 9.99902 -45s13.666 -25 24.999 -34
s26.666 -13.5 45.999 -13.5c20 0 38.333 4.16699 55 12.5s31 19.333 43 33s21.5 29.334 28.5 47.001s10.5 36.167 10.5 55.5v134z" />
    <glyph glyph-name="paragraph" unicode="&#xb6;" horiz-adv-x="600" 
d="M416 24l0.000976562 -31.001c0 -12.667 0.333008 -25.5 1 -38.5s1.83398 -25.333 3.50098 -37s3.83398 -21.167 6.50098 -28.5c3.33301 -8 8.16602 -14 14.499 -18s13.333 -6.83301 21 -8.5s15.834 -2.66699 24.501 -3s16.667 -0.833008 24 -1.5v-23h-160v789h-46v-789
h-170v23h27.5c9.66699 0 19 1 28 3s17.167 5.33301 24.5 10s12.666 11.667 15.999 21c2 6.66699 3.66699 15.834 5 27.501s2.33301 24 3 37s1 25.5 1 37.5v30v285c-4.66699 0 -9.33398 -0.166992 -14.001 -0.5s-9.33398 -0.5 -14.001 -0.5c-56 0 -99.833 14.167 -131.5 42.5
s-47.5 71.5 -47.5 129.5c0 34.667 6.83301 63.334 20.5 86.001s31.5 40.667 53.5 54s47.167 22.666 75.5 27.999s57.166 8 86.499 8h242v-23h-25c-8.66699 0 -17 -1 -25 -3s-15.167 -5.16699 -21.5 -9.5s-11.166 -10.5 -14.499 -18.5c-2 -5.33301 -3.66699 -12.333 -5 -21
s-2.33301 -18 -3 -28s-1 -20.167 -1 -30.5v-28.5v-470z" />
    <glyph glyph-name="periodcentered" unicode="&#xb7;" horiz-adv-x="320" 
d="M96 254c0 17.333 6.16797 32.499 18.501 45.499s27.166 19.5 44.499 19.5s32.5 -6.16699 45.5 -18.5s19.5 -27.833 19.5 -46.5c0 -17.333 -6 -32.666 -18 -45.999s-27.333 -20 -46 -20c-17.333 0 -32.333 6.5 -45 19.5s-19 28.5 -19 46.5z" />
    <glyph glyph-name="cedilla" unicode="&#xb8;" horiz-adv-x="300" 
d="M136 -50c9.33301 0 19.3359 -0.831055 30.0029 -2.49805s20.5 -5 29.5 -10s16.333 -11.333 22 -19s8.5 -17.5 8.5 -29.5c0 -10.667 -2.33301 -19.834 -7 -27.501s-10.667 -14 -18 -19s-15.5 -8.66699 -24.5 -11s-18.167 -3.5 -27.5 -3.5c-6.66699 0 -14.834 1 -24.501 3
s-18.834 5.16699 -27.501 9.5s-16 9.66602 -22 15.999s-9 13.833 -9 22.5c0 5.33301 1.66699 10 5 14s7.66602 6 12.999 6c7.33301 0 12.5 -2.5 15.5 -7.5s5.5 -10.167 7.5 -15.5c3.33301 -9.33301 7.5 -16 12.5 -20s12.5 -6 22.5 -6c11.333 0 21 3 29 9s12 15 12 27
c0 16.667 -6.5 28 -19.5 34s-26.5 9 -40.5 9c-4 0 -8 -0.166992 -12 -0.5s-8 -0.5 -12 -0.5l27 72h28z" />
    <glyph glyph-name="onesuperior" unicode="&#xb9;" horiz-adv-x="312" 
d="M51 642c27.333 1.33301 52.165 3.66602 74.498 6.99902s45.5 11 69.5 23v-320c0 -8.66699 0.166992 -18.5 0.5 -29.5s1.5 -20.5 3.5 -28.5c1.33301 -5.33301 4.5 -9.16602 9.5 -11.499s10.667 -4 17 -5s12.666 -1.5 18.999 -1.5h16.5v-14c-16.667 0 -33 0.333008 -49 1
s-32.333 1 -49 1s-33.167 -0.333008 -49.5 -1s-32.833 -1 -49.5 -1v14h16.5c7 0 13.833 0.333008 20.5 1s12.834 2 18.501 4s9.5 5 11.5 9c1.33301 2.66699 2.5 6.83398 3.5 12.501s1.66699 11.5 2 17.5s0.5 12 0.5 18v14v213c0 7.33301 -0.333008 16.666 -1 27.999
s-2.66699 20 -6 26c-3.33301 5.33301 -9.16602 8.5 -17.499 9.5s-16.166 1.5 -23.499 1.5h-38v12z" />
    <glyph glyph-name="ordmasculine" unicode="&#xba;" horiz-adv-x="360" 
d="M179 399c-19.333 0 -37.5 3.66797 -54.5 11.001s-31.833 17.333 -44.5 30s-22.667 27.5 -30 44.5s-11 35.167 -11 54.5c0 18.667 3.83301 36.167 11.5 52.5s18 30.5 31 42.5s28 21.333 45 28s34.5 10 52.5 10c18.667 0 36.667 -3.5 54 -10.5s32.5 -16.5 45.5 -28.5
s23.333 -26.333 31 -43s11.5 -34.334 11.5 -53.001c0 -20 -3.66699 -38.5 -11 -55.5s-17.5 -31.5 -30.5 -43.5s-28 -21.5 -45 -28.5s-35.5 -10.5 -55.5 -10.5zM184 417.001c14.667 0 26.832 3.83203 36.499 11.499s17.334 17.334 23.001 29.001s9.5 24.167 11.5 37.5
s3 26 3 38s-1 25.167 -3 39.5s-5.83301 27.5 -11.5 39.5s-13.5 22 -23.5 30s-23 12 -39 12s-29 -3.5 -39 -10.5s-18 -16 -24 -27s-10.167 -23.167 -12.5 -36.5s-3.5 -26.333 -3.5 -39c0 -14 1 -28.333 3 -43s6 -28 12 -40s14.333 -21.833 25 -29.5s24.667 -11.5 42 -11.5z
" />
    <glyph glyph-name="guillemotright" unicode="&#xbb;" horiz-adv-x="480" 
d="M247 221l-45.502 -39.002l-45.5 -39l-59 -56c-2 -1.33301 -4.83301 -3.83301 -8.5 -7.5s-7.16699 -5.5 -10.5 -5.5c-5.33301 0 -8 2.66699 -8 8c0 4 2.33301 9.83301 7 17.5s10 15.834 16 24.501s12 16.834 18 24.501s10.667 13.167 14 16.5l46 56l-44 55l-13.5 17
c-6.33301 8 -12.666 16.5 -18.999 25.5s-11.833 17.5 -16.5 25.5s-7 14 -7 18c0 6.66699 3 10 9 10c4 0 7.83301 -2 11.5 -6s6.83398 -7 9.50098 -9zM409.998 220.998l-45.502 -39.002l-45.5 -39l-59 -56c-2 -1.33301 -4.83301 -3.83301 -8.5 -7.5s-7.16699 -5.5 -10.5 -5.5
c-5.33301 0 -8 2.66699 -8 8c0 4 2.33301 9.83301 7 17.5s10 15.834 16 24.501s12 16.834 18 24.501s10.667 13.167 14 16.5l46 56l-44 55l-13.5 17c-6.33301 8 -12.666 16.5 -18.999 25.5s-11.833 17.5 -16.5 25.5s-7 14 -7 18c0 6.66699 3 10 9 10c4 0 7.83301 -2 11.5 -6
s6.83398 -7 9.50098 -9z" />
    <glyph glyph-name="onequarter" unicode="&#xbc;" horiz-adv-x="780" 
d="M654 128l-0.00292969 -38.998c0 -8 0.166992 -17.667 0.5 -29s1.83301 -21 4.5 -29c2 -5.33301 5.5 -9.33301 10.5 -12s10.5 -4.33398 16.5 -5.00098s12.167 -1 18.5 -1h16.5v-14c-15.333 0 -30.666 0.333008 -45.999 1s-30.666 1 -45.999 1
c-16.667 0 -33.167 -0.333008 -49.5 -1s-32.833 -1 -49.5 -1v14h13c5.33301 0 11 0.333008 17 1s11.5 1.66699 16.5 3s8.5 3.33301 10.5 6c2.66699 2.66699 4.83398 7 6.50098 13s3 12.167 4 18.5s1.5 12.666 1.5 18.999v15.5v39h-174v21l213 257h16v-256h75v-22h-75z
M598.997 150.002v179h-2l-147 -179h149zM199.997 0.00195312h-53l477 676h54zM51.9971 646.002c27.333 1.33301 52.165 3.66602 74.498 6.99902s45.5 11 69.5 23v-320c0 -8.66699 0.166992 -18.5 0.5 -29.5s1.5 -20.5 3.5 -28.5c1.33301 -5.33301 4.5 -9.16602 9.5 -11.499
s10.667 -4 17 -5s12.666 -1.5 18.999 -1.5h16.5v-14c-16.667 0 -33 0.333008 -49 1s-32.333 1 -49 1s-33.167 -0.333008 -49.5 -1s-32.833 -1 -49.5 -1v14h16.5c7 0 13.833 0.333008 20.5 1s12.834 2 18.501 4s9.5 5 11.5 9c1.33301 2.66699 2.5 6.83398 3.5 12.501
s1.66699 11.5 2 17.5s0.5 12 0.5 18v14v213c0 7.33301 -0.333008 16.666 -1 27.999s-2.66699 20 -6 26c-3.33301 5.33301 -9.16602 8.5 -17.499 9.5s-16.166 1.5 -23.499 1.5h-38v12z" />
    <glyph glyph-name="onehalf" unicode="&#xbd;" horiz-adv-x="780" 
d="M177 0h-53l477 676h54zM29 646c27.333 1.33301 52.165 3.66602 74.498 6.99902s45.5 11 69.5 23v-320c0 -8.66699 0.166992 -18.5 0.5 -29.5s1.5 -20.5 3.5 -28.5c1.33301 -5.33301 4.5 -9.16602 9.5 -11.499s10.667 -4 17 -5s12.666 -1.5 18.999 -1.5h16.5v-14
c-16.667 0 -33 0.333008 -49 1s-32.333 1 -49 1s-33.167 -0.333008 -49.5 -1s-32.833 -1 -49.5 -1v14h16.5c7 0 13.833 0.333008 20.5 1s12.834 2 18.501 4s9.5 5 11.5 9c1.33301 2.66699 2.5 6.83398 3.5 12.501s1.66699 11.5 2 17.5s0.5 12 0.5 18v14v213
c0 7.33301 -0.333008 16.666 -1 27.999s-2.66699 20 -6 26c-3.33301 5.33301 -9.16602 8.5 -17.499 9.5s-16.166 1.5 -23.499 1.5h-38v12zM744.999 51l-19.002 -85.002h-14l1 22c1.33301 7.33301 0.166016 11.166 -3.50098 11.499s-8.5 0.5 -14.5 0.5h-188h-33
c12 21.333 26.667 41.5 44 60.5s35.333 37.5 54 55.5l41.5 38c13.667 12.667 26 26.167 37 40.5s19.833 29.666 26.5 45.999s10 34.5 10 54.5c0 24 -6.83301 45.667 -20.5 65s-35.167 29 -64.5 29c-22 0 -40.833 -6.16699 -56.5 -18.5s-23.5 -29.166 -23.5 -50.499
c0 -15.333 5.33301 -29.166 16 -41.499s24.667 -18.5 42 -18.5c7.33301 0 13.833 1.66699 19.5 5s11.167 7.33301 16.5 12c-1.33301 -13.333 -8.5 -24.166 -21.5 -32.499s-26.5 -12.5 -40.5 -12.5c-24 0 -42.5 7.16699 -55.5 21.5s-19.5 32.166 -19.5 53.499
c0 16 3.83301 30 11.5 42s17.834 22 30.501 30s26.834 14 42.501 18s31.167 6 46.5 6c18.667 0 36.5 -2.33301 53.5 -7s32 -11.667 45 -21s23.5 -21 31.5 -35s12 -30.333 12 -49c0 -17.333 -3 -32.833 -9 -46.5s-14 -26.167 -24 -37.5s-21.5 -21.666 -34.5 -30.999
l-39.5 -28c-20.667 -14.667 -40.667 -29.667 -60 -45s-36.666 -32.666 -51.999 -51.999h212z" />
    <glyph glyph-name="threequarters" unicode="&#xbe;" horiz-adv-x="780" 
d="M654 128l-0.00292969 -38.998c0 -8 0.166992 -17.667 0.5 -29s1.83301 -21 4.5 -29c2 -5.33301 5.5 -9.33301 10.5 -12s10.5 -4.33398 16.5 -5.00098s12.167 -1 18.5 -1h16.5v-14c-15.333 0 -30.666 0.333008 -45.999 1s-30.666 1 -45.999 1
c-16.667 0 -33.167 -0.333008 -49.5 -1s-32.833 -1 -49.5 -1v14h13c5.33301 0 11 0.333008 17 1s11.5 1.66699 16.5 3s8.5 3.33301 10.5 6c2.66699 2.66699 4.83398 7 6.50098 13s3 12.167 4 18.5s1.5 12.666 1.5 18.999v15.5v39h-174v21l213 257h16v-256h75v-22h-75z
M598.997 150.002v179h-2l-147 -179h149zM194.997 0.00195312h-53l477 676h54zM160.997 481.002c-11.333 0 -20.334 -2.33105 -27.001 -6.99805s-12.167 -9.66699 -16.5 -15s-8.66602 -10.333 -12.999 -15s-9.83301 -7 -16.5 -7c-8 0 -12 3.66699 -12 11
c0 4 1.33301 7.5 4 10.5s6 5.83301 10 8.5s8 5 12 7l10 5c12.667 6.66699 24.5 13.667 35.5 21s20.833 15.333 29.5 24s15.5 18.667 20.5 30s7.5 24.666 7.5 39.999c0 18 -4.83301 33 -14.5 45s-25.5 18 -47.5 18c-18 0 -34 -4.66699 -48 -14s-21 -23 -21 -41
c0 -10.667 3.5 -20.334 10.5 -29.001s16.833 -13 29.5 -13c8 0 15 1.33301 21 4s11.667 6.33398 17 11.001c-4 -12.667 -11.5 -22.334 -22.5 -29.001s-23.833 -10 -38.5 -10c-16 0 -29.5 4.66699 -40.5 14s-16.5 21.666 -16.5 36.999c0 14.667 4 27.5 12 38.5
s18 20.333 30 28s25.5 13.334 40.5 17.001s29.5 5.5 43.5 5.5c12.667 0 25.5 -1.5 38.5 -4.5s24.5 -7.66699 34.5 -14s18.167 -14.333 24.5 -24s9.5 -21.167 9.5 -34.5c0 -14 -3.33301 -26.333 -10 -37s-15 -20.167 -25 -28.5s-21.167 -15.666 -33.5 -21.999
s-24.166 -11.833 -35.499 -16.5l1 -2c2.66699 0.666992 5.5 1 8.5 1h9.5c15.333 0 29.833 -1.83301 43.5 -5.5s25.667 -9.33398 36 -17.001s18.5 -17.334 24.5 -29.001s9 -25.167 9 -40.5c0 -21.333 -5 -40.333 -15 -57s-23.167 -31 -39.5 -43s-34.833 -21.167 -55.5 -27.5
s-41.667 -9.5 -63 -9.5c-9.33301 0 -20 0.833008 -32 2.5s-23.5 4.83398 -34.5 9.50098s-20.167 10.667 -27.5 18s-11 16.666 -11 27.999c0 6.66699 2.66699 12.167 8 16.5s11.666 6.5 18.999 6.5c13.333 0 21.833 -3.5 25.5 -10.5s7.33398 -14.667 11.001 -23
s9.16699 -16 16.5 -23s21 -10.5 41 -10.5c18 0 32.833 3.16699 44.5 9.5s21 14.5 28 24.5s12 21.667 15 35s4.5 27 4.5 41c0 10.667 -0.833008 21.5 -2.5 32.5s-4.83398 20.833 -9.50098 29.5s-11.667 15.834 -21 21.501s-21.333 8.5 -36 8.5z" />
    <glyph glyph-name="questiondown" unicode="&#xbf;" horiz-adv-x="400" 
d="M283 265l0.00195312 -186.998h-61c-18.667 0 -36.167 -1.83301 -52.5 -5.5s-30.666 -9.83398 -42.999 -18.501s-22 -19.834 -29 -33.501s-10.5 -30.834 -10.5 -51.501c0 -17.333 2.83301 -34.333 8.5 -51s13.667 -31.667 24 -45s23 -24.166 38 -32.499
s31.833 -12.5 50.5 -12.5c15.333 0 30.166 1.83301 44.499 5.5s28.833 5.5 43.5 5.5c12 0 23.5 -3.16699 34.5 -9.5s16.5 -16.5 16.5 -30.5c0 -16 -6 -27.5 -18 -34.5s-25 -10.5 -39 -10.5c-31.333 0 -61.333 6.83301 -90 20.5s-53.667 32 -75 55s-38.333 49 -51 78
s-19 59.167 -19 90.5c0 30.667 5.33301 56.667 16 78s25.167 38.5 43.5 51.5s39.666 22.333 63.999 28s50.166 8.5 77.499 8.5v101h27zM263.002 440.002c15.333 0 28.8311 -5.49902 40.498 -16.499s17.5 -24.5 17.5 -40.5c0 -14.667 -5.16699 -27.834 -15.5 -39.501
s-23.166 -17.5 -38.499 -17.5s-29.166 5 -41.499 15s-18.5 23 -18.5 39s5.16699 30 15.5 42s23.833 18 40.5 18z" />
    <glyph glyph-name="Agrave" unicode="&#xc0;" horiz-adv-x="660" 
d="M158 215l-13.9951 -33.9971c-5.33301 -13.333 -10.5 -27 -15.5 -41s-9.33301 -27.667 -13 -41s-5.5 -25 -5.5 -35c0 -10.667 2.83301 -18.834 8.5 -24.501s12.667 -9.66699 21 -12s17.166 -3.83301 26.499 -4.5s17.666 -1.33398 24.999 -2.00098v-23l-55 2l-55 2l-52 -2
l-52 -2v23c13.333 1.33301 25 3.5 35 6.5s18.667 7.33301 26 13s13.666 12.667 18.999 21s10.666 18.5 15.999 30.5l41.5 95.5l41.5 95.5l153 393h34l202 -508l10.5 -25l13.5 -31l14 -30.5c4.66699 -9.66699 9.33398 -17.5 14.001 -23.5
c11.333 -14.667 24.166 -24 38.499 -28s30.166 -7 47.499 -9v-23l-71 2l-71 2l-72.5 -2l-72.5 -2v23c6.66699 0 14.5 0.166992 23.5 0.5s17.5 1.66602 25.5 3.99902s14.667 6 20 11s8 12.5 8 22.5c0 12.667 -2.16699 26 -6.5 40s-8.83301 26.667 -13.5 38l-39 103h-247z
M401.005 272.003l-110 282l-111 -282h221zM414.005 759.003l-135.002 57.999c-6 2.66699 -12.667 5.33398 -20 8.00098s-14.166 6 -20.499 10s-11.666 9 -15.999 15s-6.5 13 -6.5 21c0 9.33301 3.33301 17.5 10 24.5s14.667 10.5 24 10.5c8 0 15.833 -2.5 23.5 -7.5
s14.5 -10.167 20.5 -15.5l157 -124h-37z" />
    <glyph glyph-name="Aacute" unicode="&#xc1;" horiz-adv-x="660" 
d="M158 215l-13.9951 -33.9971c-5.33301 -13.333 -10.5 -27 -15.5 -41s-9.33301 -27.667 -13 -41s-5.5 -25 -5.5 -35c0 -10.667 2.83301 -18.834 8.5 -24.501s12.667 -9.66699 21 -12s17.166 -3.83301 26.499 -4.5s17.666 -1.33398 24.999 -2.00098v-23l-55 2l-55 2l-52 -2
l-52 -2v23c13.333 1.33301 25 3.5 35 6.5s18.667 7.33301 26 13s13.666 12.667 18.999 21s10.666 18.5 15.999 30.5l41.5 95.5l41.5 95.5l153 393h34l202 -508l10.5 -25l13.5 -31l14 -30.5c4.66699 -9.66699 9.33398 -17.5 14.001 -23.5
c11.333 -14.667 24.166 -24 38.499 -28s30.166 -7 47.499 -9v-23l-71 2l-71 2l-72.5 -2l-72.5 -2v23c6.66699 0 14.5 0.166992 23.5 0.5s17.5 1.66602 25.5 3.99902s14.667 6 20 11s8 12.5 8 22.5c0 12.667 -2.16699 26 -6.5 40s-8.83301 26.667 -13.5 38l-39 103h-247z
M401.005 272.003l-110 282l-111 -282h221zM256.005 759.003l155.999 124c6 5.33301 12.833 10.5 20.5 15.5s15.5 7.5 23.5 7.5c10 0 18.333 -3.5 25 -10.5s10 -15.167 10 -24.5c0 -8 -2.16699 -14.833 -6.5 -20.5s-9.66602 -10.5 -15.999 -14.5s-13.333 -7.5 -21 -10.5
s-14.5 -5.83301 -20.5 -8.5l-134 -58h-37z" />
    <glyph glyph-name="Acircumflex" unicode="&#xc2;" horiz-adv-x="660" 
d="M158 215l-13.9951 -33.9971c-5.33301 -13.333 -10.5 -27 -15.5 -41s-9.33301 -27.667 -13 -41s-5.5 -25 -5.5 -35c0 -10.667 2.83301 -18.834 8.5 -24.501s12.667 -9.66699 21 -12s17.166 -3.83301 26.499 -4.5s17.666 -1.33398 24.999 -2.00098v-23l-55 2l-55 2l-52 -2
l-52 -2v23c13.333 1.33301 25 3.5 35 6.5s18.667 7.33301 26 13s13.666 12.667 18.999 21s10.666 18.5 15.999 30.5l41.5 95.5l41.5 95.5l153 393h34l202 -508l10.5 -25l13.5 -31l14 -30.5c4.66699 -9.66699 9.33398 -17.5 14.001 -23.5
c11.333 -14.667 24.166 -24 38.499 -28s30.166 -7 47.499 -9v-23l-71 2l-71 2l-72.5 -2l-72.5 -2v23c6.66699 0 14.5 0.166992 23.5 0.5s17.5 1.66602 25.5 3.99902s14.667 6 20 11s8 12.5 8 22.5c0 12.667 -2.16699 26 -6.5 40s-8.83301 26.667 -13.5 38l-39 103h-247z
M401.005 272.003l-110 282l-111 -282h221zM327.005 839.003l-111 -80h-30l114 147h55l110 -147h-31z" />
    <glyph glyph-name="Atilde" unicode="&#xc3;" horiz-adv-x="660" 
d="M158 215l-13.9951 -33.9971c-5.33301 -13.333 -10.5 -27 -15.5 -41s-9.33301 -27.667 -13 -41s-5.5 -25 -5.5 -35c0 -10.667 2.83301 -18.834 8.5 -24.501s12.667 -9.66699 21 -12s17.166 -3.83301 26.499 -4.5s17.666 -1.33398 24.999 -2.00098v-23l-55 2l-55 2l-52 -2
l-52 -2v23c13.333 1.33301 25 3.5 35 6.5s18.667 7.33301 26 13s13.666 12.667 18.999 21s10.666 18.5 15.999 30.5l41.5 95.5l41.5 95.5l153 393h34l202 -508l10.5 -25l13.5 -31l14 -30.5c4.66699 -9.66699 9.33398 -17.5 14.001 -23.5
c11.333 -14.667 24.166 -24 38.499 -28s30.166 -7 47.499 -9v-23l-71 2l-71 2l-72.5 -2l-72.5 -2v23c6.66699 0 14.5 0.166992 23.5 0.5s17.5 1.66602 25.5 3.99902s14.667 6 20 11s8 12.5 8 22.5c0 12.667 -2.16699 26 -6.5 40s-8.83301 26.667 -13.5 38l-39 103h-247z
M401.005 272.003l-110 282l-111 -282h221zM186.005 805.003c2 10.667 5.66699 21.335 11 32.002s12 20.167 20 28.5s17 15 27 20s21 7.5 33 7.5c12.667 0 24.667 -2.16699 36 -6.5l34 -13.5c9.33301 -3.33301 19.666 -7.33301 30.999 -12s21.666 -7 30.999 -7
c10 0 17.667 3.66699 23 11s9.33301 15.333 12 24h26c-1.33301 -10 -4.33301 -20.333 -9 -31s-10.667 -20.667 -18 -30c-7.33301 -8.66699 -15.833 -15.834 -25.5 -21.501s-20.167 -8.5 -31.5 -8.5c-13.333 0 -26.166 2.16699 -38.499 6.5s-24.5 9.16602 -36.5 14.499
l-30.5 12.5c-12.333 5 -23.166 7.5 -32.499 7.5c-10 0 -17.5 -3.5 -22.5 -10.5s-9.16699 -14.833 -12.5 -23.5h-27z" />
    <glyph glyph-name="Adieresis" unicode="&#xc4;" horiz-adv-x="660" 
d="M158 215l-13.9951 -33.9971c-5.33301 -13.333 -10.5 -27 -15.5 -41s-9.33301 -27.667 -13 -41s-5.5 -25 -5.5 -35c0 -10.667 2.83301 -18.834 8.5 -24.501s12.667 -9.66699 21 -12s17.166 -3.83301 26.499 -4.5s17.666 -1.33398 24.999 -2.00098v-23l-55 2l-55 2l-52 -2
l-52 -2v23c13.333 1.33301 25 3.5 35 6.5s18.667 7.33301 26 13s13.666 12.667 18.999 21s10.666 18.5 15.999 30.5l41.5 95.5l41.5 95.5l153 393h34l202 -508l10.5 -25l13.5 -31l14 -30.5c4.66699 -9.66699 9.33398 -17.5 14.001 -23.5
c11.333 -14.667 24.166 -24 38.499 -28s30.166 -7 47.499 -9v-23l-71 2l-71 2l-72.5 -2l-72.5 -2v23c6.66699 0 14.5 0.166992 23.5 0.5s17.5 1.66602 25.5 3.99902s14.667 6 20 11s8 12.5 8 22.5c0 12.667 -2.16699 26 -6.5 40s-8.83301 26.667 -13.5 38l-39 103h-247z
M401.005 272.003l-110 282l-111 -282h221zM257.005 784.003c-15.333 0 -27.6641 5.16699 -36.9971 15.5s-14 22.833 -14 37.5c0 14 5.16699 25.667 15.5 35s22.166 14 35.499 14s25.166 -4.83301 35.499 -14.5s15.5 -21.167 15.5 -34.5
c0 -14.667 -4.83301 -27.167 -14.5 -37.5s-21.834 -15.5 -36.501 -15.5zM394.007 784.003c-14.667 0 -26.832 5.16699 -36.499 15.5s-14.5 22.833 -14.5 37.5c0 14 5.16699 25.667 15.5 35s22.166 14 35.499 14s25.166 -4.83301 35.499 -14.5s15.5 -21.167 15.5 -34.5
c0 -14.667 -4.66699 -27.167 -14 -37.5s-21.666 -15.5 -36.999 -15.5z" />
    <glyph glyph-name="Aring" unicode="&#xc5;" horiz-adv-x="660" 
d="M158 215l-13.9951 -33.9971c-5.33301 -13.333 -10.5 -27 -15.5 -41s-9.33301 -27.667 -13 -41s-5.5 -25 -5.5 -35c0 -10.667 2.83301 -18.834 8.5 -24.501s12.667 -9.66699 21 -12s17.166 -3.83301 26.499 -4.5s17.666 -1.33398 24.999 -2.00098v-23l-55 2l-55 2l-52 -2
l-52 -2v23c13.333 1.33301 25 3.5 35 6.5s18.667 7.33301 26 13s13.666 12.667 18.999 21s10.666 18.5 15.999 30.5l41.5 95.5l41.5 95.5l153 393h34l202 -508l10.5 -25l13.5 -31l14 -30.5c4.66699 -9.66699 9.33398 -17.5 14.001 -23.5
c11.333 -14.667 24.166 -24 38.499 -28s30.166 -7 47.499 -9v-23l-71 2l-71 2l-72.5 -2l-72.5 -2v23c6.66699 0 14.5 0.166992 23.5 0.5s17.5 1.66602 25.5 3.99902s14.667 6 20 11s8 12.5 8 22.5c0 12.667 -2.16699 26 -6.5 40s-8.83301 26.667 -13.5 38l-39 103h-247z
M401.005 272.003l-110 282l-111 -282h221zM329.005 709.003c-25.333 0 -47.167 8.83301 -65.5 26.5s-27.5 39.167 -27.5 64.5c0 12.667 2.5 24.5 7.5 35.5s11.667 20.5 20 28.5s18.166 14.333 29.499 19s23 7 35 7s23.833 -2.16699 35.5 -6.5s21.834 -10.5 30.501 -18.5
s15.667 -17.333 21 -28s8 -22.334 8 -35.001c0 -27.333 -9 -49.666 -27 -66.999s-40.333 -26 -67 -26zM331.004 738.003c16 0 29.667 6.16797 41 18.501s17 26.5 17 42.5c0 17.333 -5.83301 32.166 -17.5 44.499s-26.167 18.5 -43.5 18.5s-31.333 -6.33301 -42 -19
s-16 -27 -16 -43c0 -17.333 5.83301 -32 17.5 -44s26.167 -18 43.5 -18z" />
    <glyph glyph-name="AE" unicode="&#xc6;" horiz-adv-x="880" 
d="M389 353v273h-2l-139 -273h141zM232 321l-100.004 -193.002c-4 -7.33301 -8.66699 -17 -14 -29s-8.33301 -22.333 -9 -31c-0.666992 -10.667 1.5 -19 6.5 -25s11.5 -10.5 19.5 -13.5s16.833 -4.83301 26.5 -5.5s18.5 -1 26.5 -1v-25c-19.333 1.33301 -38.333 2.5 -57 3.5
s-37.667 1.16699 -57 0.5c-17.333 0.666992 -34.666 0.5 -51.999 -0.5s-34.666 -2.16699 -51.999 -3.5v25c10.667 1.33301 21.334 3.66602 32.001 6.99902s20.667 8 30 14c6.66699 4.66699 13.667 11.667 21 21s14.333 19.166 21 29.499s12.834 20.833 18.501 31.5l14.5 27
l224 428c2 4.66699 5.66699 11.834 11 21.501s8 17.167 8 22.5c0 4.66699 -4.16699 7.16699 -12.5 7.5s-14.5 0.5 -18.5 0.5h-62v27h533v-151h-23c-4.66699 29.333 -11.5 52.333 -20.5 69s-20.667 29 -35 37s-31.5 13 -51.5 15s-43.333 3 -70 3h-72
c-15.333 0 -23.666 -1.33301 -24.999 -4c-1.33301 -3.33301 -1.83301 -7.5 -1.5 -12.5s0.5 -13.167 0.5 -24.5v-237c34 -1.33301 61.333 0.833984 82 6.50098s36.834 14.167 48.501 25.5s19.667 24.833 24 40.5s7.16602 32.5 8.49902 50.5h23
c-0.666992 -22.667 -1.16699 -45.334 -1.5 -68.001s-1.16602 -45.334 -2.49902 -68.001c1.33301 -20.667 2.16602 -41.334 2.49902 -62.001s0.833008 -41.334 1.5 -62.001h-23c-3.33301 26 -9.33301 46.5 -18 61.5s-19.667 26 -33 33s-29.333 11.333 -48 13s-40 2.5 -64 2.5
v-164c0 -7.33301 0.166992 -15.666 0.5 -24.999s1 -18.666 2 -27.999s2.66699 -18.166 5 -26.499s5.83301 -15.5 10.5 -21.5c6.66699 -8.66699 15.167 -15.5 25.5 -20.5s21.5 -8.66699 33.5 -11s24 -3.66602 36 -3.99902s23 -0.5 33 -0.5
c26 0.666992 49.667 2.33398 71 5.00098s39.833 8.66699 55.5 18s28.5 22.666 38.5 39.999s16.667 41 20 71h23l-9 -161h-544v23c8 0 16.333 0.166992 25 0.5s17 1.5 25 3.5s15.167 5.33301 21.5 10s11.166 11.334 14.499 20.001c2.66699 6.66699 4.66699 15.834 6 27.501
s2.33301 24 3 37s1 25.667 1 38v30.5v131h-157z" />
    <glyph glyph-name="Ccedilla" unicode="&#xc7;" horiz-adv-x="680" 
d="M362 -12c-47.333 2.66699 -90.3301 12.3369 -128.997 29.0039s-71.834 39.5 -99.501 68.5s-49 63.5 -64 103.5s-22.5 84.333 -22.5 133c0 50.667 8.66699 97.5 26 140.5s41.5 80 72.5 111s68 55.167 111 72.5s89.833 26 140.5 26c20.667 0 39.5 -1.16699 56.5 -3.5
s33.5 -6 49.5 -11s31.833 -11.5 47.5 -19.5s32.167 -17.333 49.5 -28l16 47h15l8 -197h-23c-4 28 -11.833 53.5 -23.5 76.5s-26.5 42.833 -44.5 59.5s-39.167 29.667 -63.5 39s-50.833 14 -79.5 14c-44.667 0 -82 -10 -112 -30s-54 -45.833 -72 -77.5
s-30.667 -66.834 -38 -105.501s-11 -76.667 -11 -114c0 -38 4 -75.5 12 -112.5s21.167 -70.333 39.5 -100s42.5 -53.667 72.5 -72s67 -27.5 111 -27.5c34.667 0 64.334 5.83301 89.001 17.5s45.5 27.5 62.5 47.5s31 43.333 42 70s20.167 55 27.5 85h18v-219h-13l-24 51
c-34 -26.667 -68.5 -45.834 -103.5 -57.501s-73.833 -17.5 -116.5 -17.5l-13 -37c9.33301 0 19.333 -0.833008 30 -2.5s20.5 -5 29.5 -10s16.333 -11.333 22 -19s8.5 -17.5 8.5 -29.5c0 -10.667 -2.33301 -19.834 -7 -27.501s-10.667 -14 -18 -19s-15.5 -8.66699 -24.5 -11
s-18.167 -3.5 -27.5 -3.5c-6.66699 0 -14.834 1 -24.501 3s-18.834 5.16699 -27.501 9.5s-16 9.66602 -22 15.999s-9 13.833 -9 22.5c0 5.33301 1.66699 10 5 14s7.66602 6 12.999 6c7.33301 0 12.5 -2.5 15.5 -7.5s5.5 -10.167 7.5 -15.5
c3.33301 -9.33301 7.5 -16 12.5 -20s12.5 -6 22.5 -6c11.333 0 21 3 29 9s12 15 12 27c0 16.667 -6.5 28 -19.5 34s-26.5 9 -40.5 9c-4 0 -8 -0.166992 -12 -0.5s-8 -0.5 -12 -0.5z" />
    <glyph glyph-name="Egrave" unicode="&#xc8;" horiz-adv-x="620" 
d="M122 466v30.4951c0 12.333 -0.333008 25 -1 38s-1.66699 25.333 -3 37s-3.33301 20.834 -6 27.501c-3.33301 8.66699 -8.16602 15.334 -14.499 20.001s-13.5 8 -21.5 10s-16.333 3.16699 -25 3.5s-17 0.5 -25 0.5v27h497v-151h-23c-4.66699 29.333 -11.5 52.333 -20.5 69
s-20.667 29 -35 37s-31.5 13 -51.5 15s-43.333 3 -70 3h-72h-17c-4 0 -6.66699 -1.33301 -8 -4c-1.33301 -2 -1.83301 -5.83301 -1.5 -11.5s0.5 -14.167 0.5 -25.5v-237c34 -1.33301 61.333 0.833984 82 6.50098s36.834 14.167 48.501 25.5s19.667 24.833 24 40.5
s7.16602 32.5 8.49902 50.5h23c-0.666992 -22.667 -1.16699 -45.334 -1.5 -68.001s-1.16602 -45.334 -2.49902 -68.001c1.33301 -20.667 2.16602 -41.334 2.49902 -62.001s0.833008 -41.334 1.5 -62.001h-23c-3.33301 26 -9.33301 46.5 -18 61.5s-19.667 26 -33 33
s-29.333 11.333 -48 13s-40 2.5 -64 2.5v-164c0 -7.33301 0.166992 -15.666 0.5 -24.999s1 -18.666 2 -27.999s2.66699 -18.166 5 -26.499s5.83301 -15.5 10.5 -21.5c6.66699 -8.66699 15.167 -15.5 25.5 -20.5s21.5 -8.66699 33.5 -11s24 -3.66602 36 -3.99902
s23 -0.5 33 -0.5c26 0.666992 49.667 2.33398 71 5.00098s39.833 8.66699 55.5 18s28.5 22.666 38.5 39.999s16.667 41 20 71h23l-9 -161h-544v23c8 0 16.333 0.166992 25 0.5s17 1.5 25 3.5s15.167 5.33301 21.5 10s11.166 11.334 14.499 20.001
c2.66699 6.66699 4.66699 15.834 6 27.501s2.33301 24 3 37s1 25.667 1 38v30.5v276zM394 758.995l-135.002 57.999c-6 2.66699 -12.667 5.33398 -20 8.00098s-14.166 6 -20.499 10s-11.666 9 -15.999 15s-6.5 13 -6.5 21c0 9.33301 3.33301 17.5 10 24.5
s14.667 10.5 24 10.5c8 0 15.833 -2.5 23.5 -7.5s14.5 -10.167 20.5 -15.5l157 -124h-37z" />
    <glyph glyph-name="Eacute" unicode="&#xc9;" horiz-adv-x="620" 
d="M122 466v30.4951c0 12.333 -0.333008 25 -1 38s-1.66699 25.333 -3 37s-3.33301 20.834 -6 27.501c-3.33301 8.66699 -8.16602 15.334 -14.499 20.001s-13.5 8 -21.5 10s-16.333 3.16699 -25 3.5s-17 0.5 -25 0.5v27h497v-151h-23c-4.66699 29.333 -11.5 52.333 -20.5 69
s-20.667 29 -35 37s-31.5 13 -51.5 15s-43.333 3 -70 3h-72h-17c-4 0 -6.66699 -1.33301 -8 -4c-1.33301 -2 -1.83301 -5.83301 -1.5 -11.5s0.5 -14.167 0.5 -25.5v-237c34 -1.33301 61.333 0.833984 82 6.50098s36.834 14.167 48.501 25.5s19.667 24.833 24 40.5
s7.16602 32.5 8.49902 50.5h23c-0.666992 -22.667 -1.16699 -45.334 -1.5 -68.001s-1.16602 -45.334 -2.49902 -68.001c1.33301 -20.667 2.16602 -41.334 2.49902 -62.001s0.833008 -41.334 1.5 -62.001h-23c-3.33301 26 -9.33301 46.5 -18 61.5s-19.667 26 -33 33
s-29.333 11.333 -48 13s-40 2.5 -64 2.5v-164c0 -7.33301 0.166992 -15.666 0.5 -24.999s1 -18.666 2 -27.999s2.66699 -18.166 5 -26.499s5.83301 -15.5 10.5 -21.5c6.66699 -8.66699 15.167 -15.5 25.5 -20.5s21.5 -8.66699 33.5 -11s24 -3.66602 36 -3.99902
s23 -0.5 33 -0.5c26 0.666992 49.667 2.33398 71 5.00098s39.833 8.66699 55.5 18s28.5 22.666 38.5 39.999s16.667 41 20 71h23l-9 -161h-544v23c8 0 16.333 0.166992 25 0.5s17 1.5 25 3.5s15.167 5.33301 21.5 10s11.166 11.334 14.499 20.001
c2.66699 6.66699 4.66699 15.834 6 27.501s2.33301 24 3 37s1 25.667 1 38v30.5v276zM256 758.995l155.999 124c6 5.33301 12.833 10.5 20.5 15.5s15.5 7.5 23.5 7.5c10 0 18.333 -3.5 25 -10.5s10 -15.167 10 -24.5c0 -8 -2.16699 -14.833 -6.5 -20.5
s-9.66602 -10.5 -15.999 -14.5s-13.333 -7.5 -21 -10.5s-14.5 -5.83301 -20.5 -8.5l-134 -58h-37z" />
    <glyph glyph-name="Ecircumflex" unicode="&#xca;" horiz-adv-x="620" 
d="M122 466v30.4951c0 12.333 -0.333008 25 -1 38s-1.66699 25.333 -3 37s-3.33301 20.834 -6 27.501c-3.33301 8.66699 -8.16602 15.334 -14.499 20.001s-13.5 8 -21.5 10s-16.333 3.16699 -25 3.5s-17 0.5 -25 0.5v27h497v-151h-23c-4.66699 29.333 -11.5 52.333 -20.5 69
s-20.667 29 -35 37s-31.5 13 -51.5 15s-43.333 3 -70 3h-72h-17c-4 0 -6.66699 -1.33301 -8 -4c-1.33301 -2 -1.83301 -5.83301 -1.5 -11.5s0.5 -14.167 0.5 -25.5v-237c34 -1.33301 61.333 0.833984 82 6.50098s36.834 14.167 48.501 25.5s19.667 24.833 24 40.5
s7.16602 32.5 8.49902 50.5h23c-0.666992 -22.667 -1.16699 -45.334 -1.5 -68.001s-1.16602 -45.334 -2.49902 -68.001c1.33301 -20.667 2.16602 -41.334 2.49902 -62.001s0.833008 -41.334 1.5 -62.001h-23c-3.33301 26 -9.33301 46.5 -18 61.5s-19.667 26 -33 33
s-29.333 11.333 -48 13s-40 2.5 -64 2.5v-164c0 -7.33301 0.166992 -15.666 0.5 -24.999s1 -18.666 2 -27.999s2.66699 -18.166 5 -26.499s5.83301 -15.5 10.5 -21.5c6.66699 -8.66699 15.167 -15.5 25.5 -20.5s21.5 -8.66699 33.5 -11s24 -3.66602 36 -3.99902
s23 -0.5 33 -0.5c26 0.666992 49.667 2.33398 71 5.00098s39.833 8.66699 55.5 18s28.5 22.666 38.5 39.999s16.667 41 20 71h23l-9 -161h-544v23c8 0 16.333 0.166992 25 0.5s17 1.5 25 3.5s15.167 5.33301 21.5 10s11.166 11.334 14.499 20.001
c2.66699 6.66699 4.66699 15.834 6 27.501s2.33301 24 3 37s1 25.667 1 38v30.5v276zM307 838.995l-111 -80h-30l114 147h55l110 -147h-31z" />
    <glyph glyph-name="Edieresis" unicode="&#xcb;" horiz-adv-x="620" 
d="M122 466v30.4951c0 12.333 -0.333008 25 -1 38s-1.66699 25.333 -3 37s-3.33301 20.834 -6 27.501c-3.33301 8.66699 -8.16602 15.334 -14.499 20.001s-13.5 8 -21.5 10s-16.333 3.16699 -25 3.5s-17 0.5 -25 0.5v27h497v-151h-23c-4.66699 29.333 -11.5 52.333 -20.5 69
s-20.667 29 -35 37s-31.5 13 -51.5 15s-43.333 3 -70 3h-72h-17c-4 0 -6.66699 -1.33301 -8 -4c-1.33301 -2 -1.83301 -5.83301 -1.5 -11.5s0.5 -14.167 0.5 -25.5v-237c34 -1.33301 61.333 0.833984 82 6.50098s36.834 14.167 48.501 25.5s19.667 24.833 24 40.5
s7.16602 32.5 8.49902 50.5h23c-0.666992 -22.667 -1.16699 -45.334 -1.5 -68.001s-1.16602 -45.334 -2.49902 -68.001c1.33301 -20.667 2.16602 -41.334 2.49902 -62.001s0.833008 -41.334 1.5 -62.001h-23c-3.33301 26 -9.33301 46.5 -18 61.5s-19.667 26 -33 33
s-29.333 11.333 -48 13s-40 2.5 -64 2.5v-164c0 -7.33301 0.166992 -15.666 0.5 -24.999s1 -18.666 2 -27.999s2.66699 -18.166 5 -26.499s5.83301 -15.5 10.5 -21.5c6.66699 -8.66699 15.167 -15.5 25.5 -20.5s21.5 -8.66699 33.5 -11s24 -3.66602 36 -3.99902
s23 -0.5 33 -0.5c26 0.666992 49.667 2.33398 71 5.00098s39.833 8.66699 55.5 18s28.5 22.666 38.5 39.999s16.667 41 20 71h23l-9 -161h-544v23c8 0 16.333 0.166992 25 0.5s17 1.5 25 3.5s15.167 5.33301 21.5 10s11.166 11.334 14.499 20.001
c2.66699 6.66699 4.66699 15.834 6 27.501s2.33301 24 3 37s1 25.667 1 38v30.5v276zM237 783.995c-15.333 0 -27.6641 5.16699 -36.9971 15.5s-14 22.833 -14 37.5c0 14 5.16699 25.667 15.5 35s22.166 14 35.499 14s25.166 -4.83301 35.499 -14.5s15.5 -21.167 15.5 -34.5
c0 -14.667 -4.83301 -27.167 -14.5 -37.5s-21.834 -15.5 -36.501 -15.5zM374.002 783.995c-14.667 0 -26.832 5.16699 -36.499 15.5s-14.5 22.833 -14.5 37.5c0 14 5.16699 25.667 15.5 35s22.166 14 35.499 14s25.166 -4.83301 35.499 -14.5s15.5 -21.167 15.5 -34.5
c0 -14.667 -4.66699 -27.167 -14 -37.5s-21.666 -15.5 -36.999 -15.5z" />
    <glyph glyph-name="Igrave" unicode="&#xcc;" horiz-adv-x="360" 
d="M129 470v30.5c0 12.333 -0.333008 25 -1 38s-1.66699 25.333 -3 37s-3.33301 20.834 -6 27.501c-3.33301 8.66699 -8.16602 15.334 -14.499 20.001s-13.5 8 -21.5 10s-16.333 3.16699 -25 3.5s-17 0.5 -25 0.5v23l72 -2l72 -2l75.5 2l75.5 2v-23
c-8 0 -16.333 -0.166992 -25 -0.5s-17 -1.5 -25 -3.5s-15.167 -5.33301 -21.5 -10s-11.166 -11.334 -14.499 -20.001c-2.66699 -6.66699 -4.66699 -15.834 -6 -27.501s-2.33301 -24 -3 -37s-1 -25.667 -1 -38v-30.5v-282v-30.5c0 -12.333 0.333008 -25 1 -38
s1.66699 -25.333 3 -37s3.33301 -20.834 6 -27.501c3.33301 -8.66699 8.16602 -15.334 14.499 -20.001s13.5 -8 21.5 -10s16.333 -3.16699 25 -3.5s17 -0.5 25 -0.5v-23l-71.5 2l-72.5 2l-75.5 -2l-75.5 -2v23c8 0 16.333 0.166992 25 0.5s17 1.5 25 3.5
s15.167 5.33301 21.5 10s11.166 11.334 14.499 20.001c2.66699 6.66699 4.66699 15.834 6 27.501s2.33301 24 3 37s1 25.667 1 38v30.5v282zM264 759l-135.002 57.999c-6 2.66699 -12.667 5.33398 -20 8.00098s-14.166 6 -20.499 10s-11.666 9 -15.999 15s-6.5 13 -6.5 21
c0 9.33301 3.33301 17.5 10 24.5s14.667 10.5 24 10.5c8 0 15.833 -2.5 23.5 -7.5s14.5 -10.167 20.5 -15.5l157 -124h-37z" />
    <glyph glyph-name="Iacute" unicode="&#xcd;" horiz-adv-x="360" 
d="M129 470v30.5c0 12.333 -0.333008 25 -1 38s-1.66699 25.333 -3 37s-3.33301 20.834 -6 27.501c-3.33301 8.66699 -8.16602 15.334 -14.499 20.001s-13.5 8 -21.5 10s-16.333 3.16699 -25 3.5s-17 0.5 -25 0.5v23l72 -2l72 -2l75.5 2l75.5 2v-23
c-8 0 -16.333 -0.166992 -25 -0.5s-17 -1.5 -25 -3.5s-15.167 -5.33301 -21.5 -10s-11.166 -11.334 -14.499 -20.001c-2.66699 -6.66699 -4.66699 -15.834 -6 -27.501s-2.33301 -24 -3 -37s-1 -25.667 -1 -38v-30.5v-282v-30.5c0 -12.333 0.333008 -25 1 -38
s1.66699 -25.333 3 -37s3.33301 -20.834 6 -27.501c3.33301 -8.66699 8.16602 -15.334 14.499 -20.001s13.5 -8 21.5 -10s16.333 -3.16699 25 -3.5s17 -0.5 25 -0.5v-23l-71.5 2l-72.5 2l-75.5 -2l-75.5 -2v23c8 0 16.333 0.166992 25 0.5s17 1.5 25 3.5
s15.167 5.33301 21.5 10s11.166 11.334 14.499 20.001c2.66699 6.66699 4.66699 15.834 6 27.501s2.33301 24 3 37s1 25.667 1 38v30.5v282zM66 759l155.999 124c6 5.33301 12.833 10.5 20.5 15.5s15.5 7.5 23.5 7.5c10 0 18.333 -3.5 25 -10.5s10 -15.167 10 -24.5
c0 -8 -2.16699 -14.833 -6.5 -20.5s-9.66602 -10.5 -15.999 -14.5s-13.333 -7.5 -21 -10.5s-14.5 -5.83301 -20.5 -8.5l-134 -58h-37z" />
    <glyph glyph-name="Icircumflex" unicode="&#xce;" horiz-adv-x="360" 
d="M129 470v30.5c0 12.333 -0.333008 25 -1 38s-1.66699 25.333 -3 37s-3.33301 20.834 -6 27.501c-3.33301 8.66699 -8.16602 15.334 -14.499 20.001s-13.5 8 -21.5 10s-16.333 3.16699 -25 3.5s-17 0.5 -25 0.5v23l72 -2l72 -2l75.5 2l75.5 2v-23
c-8 0 -16.333 -0.166992 -25 -0.5s-17 -1.5 -25 -3.5s-15.167 -5.33301 -21.5 -10s-11.166 -11.334 -14.499 -20.001c-2.66699 -6.66699 -4.66699 -15.834 -6 -27.501s-2.33301 -24 -3 -37s-1 -25.667 -1 -38v-30.5v-282v-30.5c0 -12.333 0.333008 -25 1 -38
s1.66699 -25.333 3 -37s3.33301 -20.834 6 -27.501c3.33301 -8.66699 8.16602 -15.334 14.499 -20.001s13.5 -8 21.5 -10s16.333 -3.16699 25 -3.5s17 -0.5 25 -0.5v-23l-71.5 2l-72.5 2l-75.5 -2l-75.5 -2v23c8 0 16.333 0.166992 25 0.5s17 1.5 25 3.5
s15.167 5.33301 21.5 10s11.166 11.334 14.499 20.001c2.66699 6.66699 4.66699 15.834 6 27.501s2.33301 24 3 37s1 25.667 1 38v30.5v282zM178 839l-111 -80h-30l114 147h55l110 -147h-31z" />
    <glyph glyph-name="Idieresis" unicode="&#xcf;" horiz-adv-x="360" 
d="M129 470v30.5c0 12.333 -0.333008 25 -1 38s-1.66699 25.333 -3 37s-3.33301 20.834 -6 27.501c-3.33301 8.66699 -8.16602 15.334 -14.499 20.001s-13.5 8 -21.5 10s-16.333 3.16699 -25 3.5s-17 0.5 -25 0.5v23l72 -2l72 -2l75.5 2l75.5 2v-23
c-8 0 -16.333 -0.166992 -25 -0.5s-17 -1.5 -25 -3.5s-15.167 -5.33301 -21.5 -10s-11.166 -11.334 -14.499 -20.001c-2.66699 -6.66699 -4.66699 -15.834 -6 -27.501s-2.33301 -24 -3 -37s-1 -25.667 -1 -38v-30.5v-282v-30.5c0 -12.333 0.333008 -25 1 -38
s1.66699 -25.333 3 -37s3.33301 -20.834 6 -27.501c3.33301 -8.66699 8.16602 -15.334 14.499 -20.001s13.5 -8 21.5 -10s16.333 -3.16699 25 -3.5s17 -0.5 25 -0.5v-23l-71.5 2l-72.5 2l-75.5 -2l-75.5 -2v23c8 0 16.333 0.166992 25 0.5s17 1.5 25 3.5
s15.167 5.33301 21.5 10s11.166 11.334 14.499 20.001c2.66699 6.66699 4.66699 15.834 6 27.501s2.33301 24 3 37s1 25.667 1 38v30.5v282zM108 784c-15.333 0 -27.6641 5.16699 -36.9971 15.5s-14 22.833 -14 37.5c0 14 5.16699 25.667 15.5 35s22.166 14 35.499 14
s25.166 -4.83301 35.499 -14.5s15.5 -21.167 15.5 -34.5c0 -14.667 -4.83301 -27.167 -14.5 -37.5s-21.834 -15.5 -36.501 -15.5zM245.002 784c-14.667 0 -26.832 5.16699 -36.499 15.5s-14.5 22.833 -14.5 37.5c0 14 5.16699 25.667 15.5 35s22.166 14 35.499 14
s25.166 -4.83301 35.499 -14.5s15.5 -21.167 15.5 -34.5c0 -14.667 -4.66699 -27.167 -14 -37.5s-21.666 -15.5 -36.999 -15.5z" />
    <glyph glyph-name="Eth" unicode="&#xd0;" horiz-adv-x="740" 
d="M325 362l-0.000976562 -35.998h-100v-152c0 -17.333 0.166992 -36.5 0.5 -57.5s5.5 -38.833 15.5 -53.5c6 -8.66699 13.333 -15.5 22 -20.5s18.167 -8.83301 28.5 -11.5s20.833 -4.33398 31.5 -5.00098s20.667 -1 30 -1c44 0 79.5 7.33301 106.5 22
s48.167 34.5 63.5 59.5s25.666 54 30.999 87s8 68.167 8 105.5c0 49.333 -4.16699 94.5 -12.5 135.5s-22.666 76.167 -42.999 105.5s-48 52.166 -83 68.499s-79.167 24.5 -132.5 24.5h-13.5c-5.66699 0 -11.5 -0.166992 -17.5 -0.5s-11.833 -1 -17.5 -2
s-9.5 -2.5 -11.5 -4.5c-3.33301 -3.33301 -5.16602 -8.33301 -5.49902 -15s-0.5 -12 -0.5 -16v-233h100zM27.999 21.002c8 0 16.3311 0.162109 24.998 0.495117s17 1.5 25 3.5s15.167 5.33301 21.5 10s10.833 11.334 13.5 20.001c2 6.66699 3.66699 15.834 5 27.501
s2.33301 24 3 37s1 25.667 1 38v30.5v138h-79v36h79v106v30.5c0 12.333 -0.333008 25 -1 38s-1.66699 25.333 -3 37s-3 20.834 -5 27.501c-2.66699 8.66699 -7.16699 15.334 -13.5 20.001s-13.5 8 -21.5 10s-16.333 3.16699 -25 3.5s-17 0.5 -25 0.5v25l62.5 -2l63.5 -2
l81 2l81 2c52.667 0.666992 101.667 -6.66602 147 -21.999s84.5 -37.833 117.5 -67.5s59 -66.167 78 -109.5s28.5 -92 28.5 -146c0 -53.333 -8.33301 -100 -25 -140s-40.167 -73.333 -70.5 -100s-66.666 -46.5 -108.999 -59.5s-89.166 -18.833 -140.499 -17.5l-89 2l-89 2
l-68.5 -2l-67.5 -2v23z" />
    <glyph glyph-name="Ntilde" unicode="&#xd1;" horiz-adv-x="760" 
d="M131 577c-15.333 22 -30.665 37.3369 -45.998 46.0039s-36.333 13.334 -63 14.001v23l47.5 -2l47.5 -2l39.5 2l39.5 2l422 -515h2v278v36.5c0 13.667 -0.333008 27.5 -1 41.5s-1.66699 27.667 -3 41s-3 25 -5 35c-3.33301 14 -7.33301 24.667 -12 32
s-10.667 12.666 -18 15.999s-15.833 5.66602 -25.5 6.99902s-20.834 3 -33.501 5v23l55 -2l55 -2l52 2l54 2v-23c-9.33301 -1.33301 -17.833 -2.33301 -25.5 -3s-14.834 -2.16699 -21.501 -4.5s-12.334 -6.33301 -17.001 -12s-8.66699 -13.834 -12 -24.501
c-2.66699 -8 -4.66699 -19.667 -6 -35s-2.5 -31.833 -3.5 -49.5s-1.66699 -34.667 -2 -51s-0.5 -29.5 -0.5 -39.5v-431h-30c-11.333 13.333 -22.333 27 -33 41l-33 42l-391 474h-2v-336v-33.5c0 -13 0.5 -26.5 1.5 -40.5s2.5 -27.333 4.5 -40s5 -23.334 9 -32.001
c4 -10 9.16699 -17.5 15.5 -22.5s13.166 -8.66699 20.499 -11s15.333 -4 24 -5s17.667 -1.83301 27 -2.5v-23l-57.5 2l-57.5 2l-55.5 -2l-55.5 -2v23c10 0.666992 19.5 1.66699 28.5 3s17.333 3.66602 25 6.99902s14.334 8 20.001 14s9.83398 14.333 12.501 25
c2 8.66699 3.5 19 4.5 31s1.83301 24.333 2.5 37s1 25 1 37v33v369zM236.001 805.004c2 10.667 5.66699 21.335 11 32.002s12 20.167 20 28.5s17 15 27 20s21 7.5 33 7.5c12.667 0 24.667 -2.16699 36 -6.5l34 -13.5c9.33301 -3.33301 19.666 -7.33301 30.999 -12
s21.666 -7 30.999 -7c10 0 17.667 3.66699 23 11s9.33301 15.333 12 24h26c-1.33301 -10 -4.33301 -20.333 -9 -31s-10.667 -20.667 -18 -30c-7.33301 -8.66699 -15.833 -15.834 -25.5 -21.501s-20.167 -8.5 -31.5 -8.5c-13.333 0 -26.166 2.16699 -38.499 6.5
s-24.5 9.16602 -36.5 14.499l-30.5 12.5c-12.333 5 -23.166 7.5 -32.499 7.5c-10 0 -17.5 -3.5 -22.5 -10.5s-9.16699 -14.833 -12.5 -23.5h-27z" />
    <glyph glyph-name="Ograve" unicode="&#xd2;" horiz-adv-x="820" 
d="M410 -13c-48.667 0 -95 8.33203 -139 24.999s-82.5 40 -115.5 70s-59.333 65.833 -79 107.5s-29.5 87.5 -29.5 137.5s10 96 30 138s47 78.333 81 109s73.167 54.667 117.5 72s90.5 26 138.5 26s93.667 -8.33301 137 -25s81.5 -40 114.5 -70s59.167 -65.667 78.5 -107
s29 -86.666 29 -135.999c0 -51.333 -9.5 -98.333 -28.5 -141s-44.833 -79.167 -77.5 -109.5s-71 -54 -115 -71s-91.333 -25.5 -142 -25.5zM410 644.999c-43.333 0 -80 -9.66992 -110 -29.0029s-54.5 -44.166 -73.5 -74.499s-32.833 -64.5 -41.5 -102.5s-13 -75.333 -13 -112
c0 -39.333 4.16699 -77.666 12.5 -114.999s22 -70.666 41 -99.999s44.167 -53 75.5 -71s69.666 -27 114.999 -27c44.667 0 81.834 9.5 111.501 28.5s53.5 43.5 71.5 73.5s30.667 63.833 38 101.5s11 75.167 11 112.5s-4.16699 74.833 -12.5 112.5s-21.833 71.5 -40.5 101.5
s-43.167 54.333 -73.5 73s-67.5 28 -111.5 28zM494 758.996l-135.002 57.999c-6 2.66699 -12.667 5.33398 -20 8.00098s-14.166 6 -20.499 10s-11.666 9 -15.999 15s-6.5 13 -6.5 21c0 9.33301 3.33301 17.5 10 24.5s14.667 10.5 24 10.5c8 0 15.833 -2.5 23.5 -7.5
s14.5 -10.167 20.5 -15.5l157 -124h-37z" />
    <glyph glyph-name="Oacute" unicode="&#xd3;" horiz-adv-x="820" 
d="M410 -13c-48.667 0 -95 8.33203 -139 24.999s-82.5 40 -115.5 70s-59.333 65.833 -79 107.5s-29.5 87.5 -29.5 137.5s10 96 30 138s47 78.333 81 109s73.167 54.667 117.5 72s90.5 26 138.5 26s93.667 -8.33301 137 -25s81.5 -40 114.5 -70s59.167 -65.667 78.5 -107
s29 -86.666 29 -135.999c0 -51.333 -9.5 -98.333 -28.5 -141s-44.833 -79.167 -77.5 -109.5s-71 -54 -115 -71s-91.333 -25.5 -142 -25.5zM410 644.999c-43.333 0 -80 -9.66992 -110 -29.0029s-54.5 -44.166 -73.5 -74.499s-32.833 -64.5 -41.5 -102.5s-13 -75.333 -13 -112
c0 -39.333 4.16699 -77.666 12.5 -114.999s22 -70.666 41 -99.999s44.167 -53 75.5 -71s69.666 -27 114.999 -27c44.667 0 81.834 9.5 111.501 28.5s53.5 43.5 71.5 73.5s30.667 63.833 38 101.5s11 75.167 11 112.5s-4.16699 74.833 -12.5 112.5s-21.833 71.5 -40.5 101.5
s-43.167 54.333 -73.5 73s-67.5 28 -111.5 28zM356 758.996l155.999 124c6 5.33301 12.833 10.5 20.5 15.5s15.5 7.5 23.5 7.5c10 0 18.333 -3.5 25 -10.5s10 -15.167 10 -24.5c0 -8 -2.16699 -14.833 -6.5 -20.5s-9.66602 -10.5 -15.999 -14.5s-13.333 -7.5 -21 -10.5
s-14.5 -5.83301 -20.5 -8.5l-134 -58h-37z" />
    <glyph glyph-name="Ocircumflex" unicode="&#xd4;" horiz-adv-x="820" 
d="M410 -13c-48.667 0 -95 8.33203 -139 24.999s-82.5 40 -115.5 70s-59.333 65.833 -79 107.5s-29.5 87.5 -29.5 137.5s10 96 30 138s47 78.333 81 109s73.167 54.667 117.5 72s90.5 26 138.5 26s93.667 -8.33301 137 -25s81.5 -40 114.5 -70s59.167 -65.667 78.5 -107
s29 -86.666 29 -135.999c0 -51.333 -9.5 -98.333 -28.5 -141s-44.833 -79.167 -77.5 -109.5s-71 -54 -115 -71s-91.333 -25.5 -142 -25.5zM410 644.999c-43.333 0 -80 -9.66992 -110 -29.0029s-54.5 -44.166 -73.5 -74.499s-32.833 -64.5 -41.5 -102.5s-13 -75.333 -13 -112
c0 -39.333 4.16699 -77.666 12.5 -114.999s22 -70.666 41 -99.999s44.167 -53 75.5 -71s69.666 -27 114.999 -27c44.667 0 81.834 9.5 111.501 28.5s53.5 43.5 71.5 73.5s30.667 63.833 38 101.5s11 75.167 11 112.5s-4.16699 74.833 -12.5 112.5s-21.833 71.5 -40.5 101.5
s-43.167 54.333 -73.5 73s-67.5 28 -111.5 28zM407 838.996l-111 -80h-30l114 147h55l110 -147h-31z" />
    <glyph glyph-name="Otilde" unicode="&#xd5;" horiz-adv-x="820" 
d="M410 -13c-48.667 0 -95 8.33203 -139 24.999s-82.5 40 -115.5 70s-59.333 65.833 -79 107.5s-29.5 87.5 -29.5 137.5s10 96 30 138s47 78.333 81 109s73.167 54.667 117.5 72s90.5 26 138.5 26s93.667 -8.33301 137 -25s81.5 -40 114.5 -70s59.167 -65.667 78.5 -107
s29 -86.666 29 -135.999c0 -51.333 -9.5 -98.333 -28.5 -141s-44.833 -79.167 -77.5 -109.5s-71 -54 -115 -71s-91.333 -25.5 -142 -25.5zM410 644.999c-43.333 0 -80 -9.66992 -110 -29.0029s-54.5 -44.166 -73.5 -74.499s-32.833 -64.5 -41.5 -102.5s-13 -75.333 -13 -112
c0 -39.333 4.16699 -77.666 12.5 -114.999s22 -70.666 41 -99.999s44.167 -53 75.5 -71s69.666 -27 114.999 -27c44.667 0 81.834 9.5 111.501 28.5s53.5 43.5 71.5 73.5s30.667 63.833 38 101.5s11 75.167 11 112.5s-4.16699 74.833 -12.5 112.5s-21.833 71.5 -40.5 101.5
s-43.167 54.333 -73.5 73s-67.5 28 -111.5 28zM266 804.996c2 10.667 5.66699 21.335 11 32.002s12 20.167 20 28.5s17 15 27 20s21 7.5 33 7.5c12.667 0 24.667 -2.16699 36 -6.5l34 -13.5c9.33301 -3.33301 19.666 -7.33301 30.999 -12s21.666 -7 30.999 -7
c10 0 17.667 3.66699 23 11s9.33301 15.333 12 24h26c-1.33301 -10 -4.33301 -20.333 -9 -31s-10.667 -20.667 -18 -30c-7.33301 -8.66699 -15.833 -15.834 -25.5 -21.501s-20.167 -8.5 -31.5 -8.5c-13.333 0 -26.166 2.16699 -38.499 6.5s-24.5 9.16602 -36.5 14.499
l-30.5 12.5c-12.333 5 -23.166 7.5 -32.499 7.5c-10 0 -17.5 -3.5 -22.5 -10.5s-9.16699 -14.833 -12.5 -23.5h-27z" />
    <glyph glyph-name="Odieresis" unicode="&#xd6;" horiz-adv-x="820" 
d="M410 -13c-48.667 0 -95 8.33203 -139 24.999s-82.5 40 -115.5 70s-59.333 65.833 -79 107.5s-29.5 87.5 -29.5 137.5s10 96 30 138s47 78.333 81 109s73.167 54.667 117.5 72s90.5 26 138.5 26s93.667 -8.33301 137 -25s81.5 -40 114.5 -70s59.167 -65.667 78.5 -107
s29 -86.666 29 -135.999c0 -51.333 -9.5 -98.333 -28.5 -141s-44.833 -79.167 -77.5 -109.5s-71 -54 -115 -71s-91.333 -25.5 -142 -25.5zM410 644.999c-43.333 0 -80 -9.66992 -110 -29.0029s-54.5 -44.166 -73.5 -74.499s-32.833 -64.5 -41.5 -102.5s-13 -75.333 -13 -112
c0 -39.333 4.16699 -77.666 12.5 -114.999s22 -70.666 41 -99.999s44.167 -53 75.5 -71s69.666 -27 114.999 -27c44.667 0 81.834 9.5 111.501 28.5s53.5 43.5 71.5 73.5s30.667 63.833 38 101.5s11 75.167 11 112.5s-4.16699 74.833 -12.5 112.5s-21.833 71.5 -40.5 101.5
s-43.167 54.333 -73.5 73s-67.5 28 -111.5 28zM337 783.996c-15.333 0 -27.6641 5.16699 -36.9971 15.5s-14 22.833 -14 37.5c0 14 5.16699 25.667 15.5 35s22.166 14 35.499 14s25.166 -4.83301 35.499 -14.5s15.5 -21.167 15.5 -34.5
c0 -14.667 -4.83301 -27.167 -14.5 -37.5s-21.834 -15.5 -36.501 -15.5zM474.002 783.996c-14.667 0 -26.832 5.16699 -36.499 15.5s-14.5 22.833 -14.5 37.5c0 14 5.16699 25.667 15.5 35s22.166 14 35.499 14s25.166 -4.83301 35.499 -14.5s15.5 -21.167 15.5 -34.5
c0 -14.667 -4.66699 -27.167 -14 -37.5s-21.666 -15.5 -36.999 -15.5z" />
    <glyph glyph-name="multiply" unicode="&#xd7;" 
d="M52 430l32 33l176 -175l176 176l32 -33l-176 -176l177 -177l-33 -32l-176 176l-177 -176l-32 33l176 176z" />
    <glyph glyph-name="Oslash" unicode="&#xd8;" horiz-adv-x="820" 
d="M190 53c-45.333 32 -80.5 71 -105.5 117s-37.5 97 -37.5 153c0 50 9.83301 96.333 29.5 139s46.167 79.5 79.5 110.5s72.166 55.333 116.499 73s91.166 26.5 140.499 26.5c30 0 59.833 -3.33301 89.5 -10s57.834 -17.667 84.501 -33l66 96h52l-83 -118
c49.333 -32 86.833 -71.833 112.5 -119.5s38.5 -100.834 38.5 -159.501c0 -49.333 -9.66699 -94.666 -29 -135.999s-45.5 -77.333 -78.5 -108s-71.333 -54.5 -115 -71.5s-89.834 -25.5 -138.501 -25.5c-31.333 0 -63.166 3.5 -95.499 10.5s-62.166 18.167 -89.499 33.5
l-76 -109h-53zM257 76c21.333 -19.333 43.667 -34.498 67 -45.498s50 -16.5 80 -16.5c44.667 0 82.667 8.66699 114 26s56.5 40.166 75.5 68.499s32.833 61.166 41.5 98.499s13 76 13 116c0 19.333 -1 39.333 -3 60s-5.5 41 -10.5 61s-11.333 39.5 -19 58.5
s-17.5 36.167 -29.5 51.5zM557.001 588.002c-19.333 19.333 -41.501 33.668 -66.501 43.001s-51.167 14 -78.5 14c-43.333 0 -80.166 -9.33301 -110.499 -28s-55.166 -42.834 -74.499 -72.501s-33.333 -63 -42 -100s-13 -74.167 -13 -111.5c0 -38 4.16699 -76.333 12.5 -115
s23.166 -74.667 44.499 -108z" />
    <glyph glyph-name="Ugrave" unicode="&#xd9;" horiz-adv-x="780" 
d="M651 263c0 -45.333 -4.66992 -85.3311 -14.0029 -119.998s-24.333 -63.5 -45 -86.5s-47.667 -40.333 -81 -52s-73.666 -17.5 -120.999 -17.5c-44.667 0 -83.667 4.16699 -117 12.5s-61 22.166 -83 41.499s-38.5 44.5 -49.5 75.5s-16.5 69.167 -16.5 114.5v239v30.5
c0 12.333 -0.333008 25 -1 38s-1.66699 25.333 -3 37s-3.33301 20.834 -6 27.501c-3.33301 8.66699 -8.16602 15.334 -14.499 20.001s-13.5 8 -21.5 10s-16.333 3.16699 -25 3.5s-17 0.5 -25 0.5v23l71 -2l71 -2l76 2l76 2v-23c-8 0 -16.5 -0.166992 -25.5 -0.5
s-17.5 -1.5 -25.5 -3.5s-15.167 -5.33301 -21.5 -10s-10.833 -11.334 -13.5 -20.001c-2 -6.66699 -3.66699 -15.834 -5 -27.501s-2.33301 -24 -3 -37s-1 -25.667 -1 -38v-30.5v-246c0 -32 3.33301 -60.5 10 -85.5s17.334 -46 32.001 -63s34 -30 58 -39s53 -13.5 87 -13.5
c69.333 0 121.166 17.5 155.499 52.5s51.5 86.167 51.5 153.5v219v32.5c0 13 -0.333008 26.5 -1 40.5s-1.66699 27.167 -3 39.5s-3.33301 22.5 -6 30.5c-3.33301 10.667 -8.33301 19 -15 25s-14.167 10.5 -22.5 13.5s-17.166 5 -26.499 6s-19 1.5 -29 1.5v23l58 -2l58 -2
l55.5 2l56.5 2v-23c-8 0 -16 -0.333008 -24 -1s-15.667 -2 -23 -4s-14 -5.5 -20 -10.5s-10.667 -11.833 -14 -20.5c-3.33301 -9.33301 -6 -20.5 -8 -33.5s-3.5 -26.833 -4.5 -41.5s-1.5 -28.834 -1.5 -42.501v-35.5v-185zM473.997 759.002l-135.002 57.999
c-6 2.66699 -12.667 5.33398 -20 8.00098s-14.166 6 -20.499 10s-11.666 9 -15.999 15s-6.5 13 -6.5 21c0 9.33301 3.33301 17.5 10 24.5s14.667 10.5 24 10.5c8 0 15.833 -2.5 23.5 -7.5s14.5 -10.167 20.5 -15.5l157 -124h-37z" />
    <glyph glyph-name="Uacute" unicode="&#xda;" horiz-adv-x="780" 
d="M651 263c0 -45.333 -4.66992 -85.3311 -14.0029 -119.998s-24.333 -63.5 -45 -86.5s-47.667 -40.333 -81 -52s-73.666 -17.5 -120.999 -17.5c-44.667 0 -83.667 4.16699 -117 12.5s-61 22.166 -83 41.499s-38.5 44.5 -49.5 75.5s-16.5 69.167 -16.5 114.5v239v30.5
c0 12.333 -0.333008 25 -1 38s-1.66699 25.333 -3 37s-3.33301 20.834 -6 27.501c-3.33301 8.66699 -8.16602 15.334 -14.499 20.001s-13.5 8 -21.5 10s-16.333 3.16699 -25 3.5s-17 0.5 -25 0.5v23l71 -2l71 -2l76 2l76 2v-23c-8 0 -16.5 -0.166992 -25.5 -0.5
s-17.5 -1.5 -25.5 -3.5s-15.167 -5.33301 -21.5 -10s-10.833 -11.334 -13.5 -20.001c-2 -6.66699 -3.66699 -15.834 -5 -27.501s-2.33301 -24 -3 -37s-1 -25.667 -1 -38v-30.5v-246c0 -32 3.33301 -60.5 10 -85.5s17.334 -46 32.001 -63s34 -30 58 -39s53 -13.5 87 -13.5
c69.333 0 121.166 17.5 155.499 52.5s51.5 86.167 51.5 153.5v219v32.5c0 13 -0.333008 26.5 -1 40.5s-1.66699 27.167 -3 39.5s-3.33301 22.5 -6 30.5c-3.33301 10.667 -8.33301 19 -15 25s-14.167 10.5 -22.5 13.5s-17.166 5 -26.499 6s-19 1.5 -29 1.5v23l58 -2l58 -2
l55.5 2l56.5 2v-23c-8 0 -16 -0.333008 -24 -1s-15.667 -2 -23 -4s-14 -5.5 -20 -10.5s-10.667 -11.833 -14 -20.5c-3.33301 -9.33301 -6 -20.5 -8 -33.5s-3.5 -26.833 -4.5 -41.5s-1.5 -28.834 -1.5 -42.501v-35.5v-185zM335.997 759.002l155.999 124
c6 5.33301 12.833 10.5 20.5 15.5s15.5 7.5 23.5 7.5c10 0 18.333 -3.5 25 -10.5s10 -15.167 10 -24.5c0 -8 -2.16699 -14.833 -6.5 -20.5s-9.66602 -10.5 -15.999 -14.5s-13.333 -7.5 -21 -10.5s-14.5 -5.83301 -20.5 -8.5l-134 -58h-37z" />
    <glyph glyph-name="Ucircumflex" unicode="&#xdb;" horiz-adv-x="780" 
d="M651 263c0 -45.333 -4.66992 -85.3311 -14.0029 -119.998s-24.333 -63.5 -45 -86.5s-47.667 -40.333 -81 -52s-73.666 -17.5 -120.999 -17.5c-44.667 0 -83.667 4.16699 -117 12.5s-61 22.166 -83 41.499s-38.5 44.5 -49.5 75.5s-16.5 69.167 -16.5 114.5v239v30.5
c0 12.333 -0.333008 25 -1 38s-1.66699 25.333 -3 37s-3.33301 20.834 -6 27.501c-3.33301 8.66699 -8.16602 15.334 -14.499 20.001s-13.5 8 -21.5 10s-16.333 3.16699 -25 3.5s-17 0.5 -25 0.5v23l71 -2l71 -2l76 2l76 2v-23c-8 0 -16.5 -0.166992 -25.5 -0.5
s-17.5 -1.5 -25.5 -3.5s-15.167 -5.33301 -21.5 -10s-10.833 -11.334 -13.5 -20.001c-2 -6.66699 -3.66699 -15.834 -5 -27.501s-2.33301 -24 -3 -37s-1 -25.667 -1 -38v-30.5v-246c0 -32 3.33301 -60.5 10 -85.5s17.334 -46 32.001 -63s34 -30 58 -39s53 -13.5 87 -13.5
c69.333 0 121.166 17.5 155.499 52.5s51.5 86.167 51.5 153.5v219v32.5c0 13 -0.333008 26.5 -1 40.5s-1.66699 27.167 -3 39.5s-3.33301 22.5 -6 30.5c-3.33301 10.667 -8.33301 19 -15 25s-14.167 10.5 -22.5 13.5s-17.166 5 -26.499 6s-19 1.5 -29 1.5v23l58 -2l58 -2
l55.5 2l56.5 2v-23c-8 0 -16 -0.333008 -24 -1s-15.667 -2 -23 -4s-14 -5.5 -20 -10.5s-10.667 -11.833 -14 -20.5c-3.33301 -9.33301 -6 -20.5 -8 -33.5s-3.5 -26.833 -4.5 -41.5s-1.5 -28.834 -1.5 -42.501v-35.5v-185zM386.997 839.002l-111 -80h-30l114 147h55l110 -147
h-31z" />
    <glyph glyph-name="Udieresis" unicode="&#xdc;" horiz-adv-x="780" 
d="M651 263c0 -45.333 -4.66992 -85.3311 -14.0029 -119.998s-24.333 -63.5 -45 -86.5s-47.667 -40.333 -81 -52s-73.666 -17.5 -120.999 -17.5c-44.667 0 -83.667 4.16699 -117 12.5s-61 22.166 -83 41.499s-38.5 44.5 -49.5 75.5s-16.5 69.167 -16.5 114.5v239v30.5
c0 12.333 -0.333008 25 -1 38s-1.66699 25.333 -3 37s-3.33301 20.834 -6 27.501c-3.33301 8.66699 -8.16602 15.334 -14.499 20.001s-13.5 8 -21.5 10s-16.333 3.16699 -25 3.5s-17 0.5 -25 0.5v23l71 -2l71 -2l76 2l76 2v-23c-8 0 -16.5 -0.166992 -25.5 -0.5
s-17.5 -1.5 -25.5 -3.5s-15.167 -5.33301 -21.5 -10s-10.833 -11.334 -13.5 -20.001c-2 -6.66699 -3.66699 -15.834 -5 -27.501s-2.33301 -24 -3 -37s-1 -25.667 -1 -38v-30.5v-246c0 -32 3.33301 -60.5 10 -85.5s17.334 -46 32.001 -63s34 -30 58 -39s53 -13.5 87 -13.5
c69.333 0 121.166 17.5 155.499 52.5s51.5 86.167 51.5 153.5v219v32.5c0 13 -0.333008 26.5 -1 40.5s-1.66699 27.167 -3 39.5s-3.33301 22.5 -6 30.5c-3.33301 10.667 -8.33301 19 -15 25s-14.167 10.5 -22.5 13.5s-17.166 5 -26.499 6s-19 1.5 -29 1.5v23l58 -2l58 -2
l55.5 2l56.5 2v-23c-8 0 -16 -0.333008 -24 -1s-15.667 -2 -23 -4s-14 -5.5 -20 -10.5s-10.667 -11.833 -14 -20.5c-3.33301 -9.33301 -6 -20.5 -8 -33.5s-3.5 -26.833 -4.5 -41.5s-1.5 -28.834 -1.5 -42.501v-35.5v-185zM336.997 784.002
c-15.333 0 -27.6641 5.16699 -36.9971 15.5s-14 22.833 -14 37.5c0 14 5.16699 25.667 15.5 35s22.166 14 35.499 14s25.166 -4.83301 35.499 -14.5s15.5 -21.167 15.5 -34.5c0 -14.667 -4.83301 -27.167 -14.5 -37.5s-21.834 -15.5 -36.501 -15.5zM473.999 784.002
c-14.667 0 -26.832 5.16699 -36.499 15.5s-14.5 22.833 -14.5 37.5c0 14 5.16699 25.667 15.5 35s22.166 14 35.499 14s25.166 -4.83301 35.499 -14.5s15.5 -21.167 15.5 -34.5c0 -14.667 -4.66699 -27.167 -14 -37.5s-21.666 -15.5 -36.999 -15.5z" />
    <glyph glyph-name="Yacute" unicode="&#xdd;" 
d="M308 129c0 -24 0.666992 -42.6641 2 -55.9971s5.16602 -23.5 11.499 -30.5s16.166 -11.833 29.499 -14.5s32 -5 56 -7v-23l-75 2l-75 2l-76.5 -2l-76.5 -2v23c24 2 42.833 4.33301 56.5 7s23.834 7.5 30.501 14.5s10.667 17.333 12 31s2 32.167 2 55.5v124l-92 159
c-2 3.33301 -5.5 10 -10.5 20l-18 35l-23.5 43l-25.5 44.5c-8.33301 14.333 -16.333 27.166 -24 38.499s-14.5 20 -20.5 26c-8.66699 9.33301 -17.5 14.166 -26.5 14.499s-19.5 1.5 -31.5 3.5v23l68 -2l68 -2l70.5 2l70.5 2v-23h-21c-8.66699 0 -17 -1 -25 -3
s-14.833 -5.16699 -20.5 -9.5s-8.5 -10.833 -8.5 -19.5c0 -13.333 2.83301 -25.5 8.5 -36.5l17.5 -33.5l130 -241l64 102l24.5 40.5c11 18.333 22 37.833 33 58.5s20.667 40.167 29 58.5s12.5 32.166 12.5 41.499s-2.5 16.666 -7.5 21.999s-11.167 9.33301 -18.5 12
s-15.166 4.5 -23.499 5.5s-15.833 1.83301 -22.5 2.5v23l53.5 -2l53.5 -2l49 2l49 2v-23c-14.667 -1.33301 -27.167 -4.66602 -37.5 -9.99902s-19.5 -12 -27.5 -20s-15.167 -17 -21.5 -27l-19.5 -32l-173 -286v-133zM226 759.003l155.999 124
c6 5.33301 12.833 10.5 20.5 15.5s15.5 7.5 23.5 7.5c10 0 18.333 -3.5 25 -10.5s10 -15.167 10 -24.5c0 -8 -2.16699 -14.833 -6.5 -20.5s-9.66602 -10.5 -15.999 -14.5s-13.333 -7.5 -21 -10.5s-14.5 -5.83301 -20.5 -8.5l-134 -58h-37z" />
    <glyph glyph-name="Thorn" unicode="&#xde;" horiz-adv-x="580" 
d="M122 469l0.00195312 30.998c0 12.667 -0.333008 25.5 -1 38.5s-1.66699 25.333 -3 37s-3 20.834 -5 27.501c-3.33301 8.66699 -8 15.334 -14 20.001s-13 8 -21 10s-16.333 3.16699 -25 3.5s-17 0.5 -25 0.5v23l74.5 -2c24.333 -0.666992 46.5 -1.33398 66.5 -2.00098
l75.5 2l75.5 2v-23c-8 0 -16.5 -0.166992 -25.5 -0.5s-17.5 -1.5 -25.5 -3.5s-15.167 -5.33301 -21.5 -10s-10.833 -11.334 -13.5 -20.001c-2.66699 -7.33301 -4.83398 -17.333 -6.50098 -30s-2.5 -25.667 -2.5 -39v-28c15.333 0.666992 31 1.16699 47 1.5
s32.667 0.833008 50 1.5c26.667 -1.33301 53.667 -5 81 -11s52 -15.833 74 -29.5s40 -31.167 54 -52.5s21 -48 21 -80c0 -36.667 -8 -66.667 -24 -90s-36.5 -41.833 -61.5 -55.5s-52.833 -23 -83.5 -28s-61 -7.5 -91 -7.5c-4.66699 0 -10.5 0.166992 -17.5 0.5l-21 1
c-7 0.333008 -13.333 0.666016 -19 0.999023s-8.83398 0.5 -9.50098 0.5c0.666992 -17.333 1.5 -36.166 2.5 -56.499s3.5 -35.833 7.5 -46.5c3.33301 -10 8.66602 -17.167 15.999 -21.5s15.5 -7.33301 24.5 -9s18.333 -2.5 28 -2.5s18.834 -0.333008 27.501 -1v-23l-78 2
l-78 2l-73 -2l-74 -2v23c8 0 16.333 0.166992 25 0.5s17 1.5 25 3.5s15.167 5.33301 21.5 10s10.833 11.334 13.5 20.001c2 6.66699 3.66699 15.834 5 27.501s2.33301 24 3 37s1 25.667 1 38v30.5v281zM225.002 181.998c9.33301 -0.666992 18.999 -1.49902 28.999 -2.49902
s19.667 -1.5 29 -1.5c52 0 90.667 11.833 116 35.5s38 62.5 38 116.5c0 98 -47.667 147 -143 147h-15c-6 0 -12.167 -0.333008 -18.5 -1s-12.166 -1.33398 -17.499 -2.00098s-9 -1.66699 -11 -3c-4 -2.66699 -6.16699 -7 -6.5 -13s-0.5 -15.333 -0.5 -28v-248z" />
    <glyph glyph-name="germandbls" unicode="&#xdf;" horiz-adv-x="540" 
d="M249 385c18.667 0.666992 35.1709 2.33398 49.5039 5.00098s26 8.16699 35 16.5s15.833 20.666 20.5 36.999s7 38.833 7 67.5c0 16 -1 32.667 -3 50s-6.16699 33.333 -12.5 48s-15.666 26.667 -27.999 36s-28.5 14 -48.5 14c-27.333 0 -47.833 -8.33301 -61.5 -25
s-23 -36.834 -28 -60.501s-7.33301 -48.5 -7 -74.5s0.5 -48.333 0.5 -67v-328c0 -10.667 -0.166992 -20.834 -0.5 -30.501s0.666992 -18.334 3 -26.001s6.66602 -13.834 12.999 -18.501s16.166 -7.66699 29.499 -9v-22l-46.5 2l-46.5 2l-53.5 -2l-53.5 -2v23
c18.667 1.33301 32.834 3.83301 42.501 7.5s16.5 9 20.5 16s6.16699 16 6.5 27s0.5 24.833 0.5 41.5v346c0 25.333 1.5 51.5 4.5 78.5s12.5 51.167 28.5 72.5c17.333 24 39.833 42 67.5 54s56.167 18 85.5 18c22.667 0 44.834 -3.66699 66.501 -11s41 -17.833 58 -31.5
s30.5 -30.167 40.5 -49.5s15 -41.333 15 -66c0 -20 -3.66699 -38.333 -11 -55s-17.166 -31.167 -29.499 -43.5s-26.833 -23 -43.5 -32s-34 -15.833 -52 -20.5v-2c26.667 -2.66699 51 -9.5 73 -20.5s40.667 -25.333 56 -43s27.333 -38.167 36 -61.5s13 -48.333 13 -75
c0 -24.667 -4 -48 -12 -70s-19.333 -41.5 -34 -58.5s-32.334 -30.5 -53.001 -40.5s-43.667 -15 -69 -15c-8.66699 0 -18.334 1.16699 -29.001 3.5s-20.5 6 -29.5 11s-16.667 11.333 -23 19s-9.5 16.834 -9.5 27.501c0 22.667 11 34 33 34c10 0 18.167 -3.66699 24.5 -11
s10.166 -15.666 11.499 -24.999c1.33301 -11.333 3.16602 -20.166 5.49902 -26.499s10.166 -9.5 23.499 -9.5c14.667 0 26.5 6.33301 35.5 19s16 27.667 21 45s8.16699 35 9.5 53s2 32.333 2 43c0 30.667 -2.66699 58.5 -8 83.5s-14 45.667 -26 62s-27.833 28.333 -47.5 36
s-43.834 9.83398 -72.501 6.50098v27z" />
    <glyph glyph-name="agrave" unicode="&#xe0;" horiz-adv-x="480" 
d="M301 247c-15.333 -7.33301 -33 -15.3301 -53 -23.9971s-39 -18.834 -57 -30.501s-33.167 -25.167 -45.5 -40.5s-18.5 -33 -18.5 -53c0 -18.667 5.5 -35.334 16.5 -50.001s26.833 -22 47.5 -22c19.333 0 39 6.16699 59 18.5s37 25.166 51 38.499v163zM292 272.003
c5.33301 2.66699 7.99707 6.83887 7.99707 12.5059v16.5c0 16.667 -0.666992 32.167 -2 46.5s-5 26.666 -11 36.999s-14.833 18.333 -26.5 24s-27.834 8.5 -48.501 8.5c-12.667 0 -24.5 -0.5 -35.5 -1.5s-20.667 -3.33301 -29 -7s-15.166 -9.33398 -20.499 -17.001
s-8.33301 -18.167 -9 -31.5c-1.33301 -11.333 -5.16602 -21.5 -11.499 -30.5s-15.833 -13.5 -28.5 -13.5c-11.333 0 -20.5 3.16699 -27.5 9.5s-10.5 15.166 -10.5 26.499c0 18.667 7.16699 33.667 21.5 45s31.5 20.166 51.5 26.499s40.333 10.666 61 12.999
s37.334 3.5 50.001 3.5c28 0 52.167 -2.16699 72.5 -6.5s37.166 -11.833 50.499 -22.5s23.166 -25.334 29.499 -44.001s9.5 -42.334 9.5 -71.001v-165v-26c0 -11.333 1 -22.333 3 -33s5.33301 -20 10 -28s12 -12 22 -12s18 3.5 24 10.5s11.667 14.167 17 21.5l19 -10
c-8 -16.667 -20.333 -32 -37 -46s-34.334 -21 -53.001 -21c-20.667 0 -38.834 6.83301 -54.501 20.5s-26.167 30.5 -31.5 50.5c-23.333 -19.333 -49.166 -36 -77.499 -50s-58.166 -21 -89.499 -21c-13.333 0 -26.166 2 -38.499 6s-23.333 9.66699 -33 17
s-17.5 16.5 -23.5 27.5s-9 23.5 -9 37.5c0 20.667 5.33301 38.834 16 54.501s23.834 29.167 39.501 40.5s32.834 21.333 51.501 30l52 24zM323.997 530.008l-135.002 57.999c-6 2.66699 -12.667 5.33398 -20 8.00098s-14.166 6 -20.499 10s-11.666 9 -15.999 15
s-6.5 13 -6.5 21c0 9.33301 3.33301 17.5 10 24.5s14.667 10.5 24 10.5c8 0 15.833 -2.5 23.5 -7.5s14.5 -10.167 20.5 -15.5l157 -124h-37z" />
    <glyph glyph-name="aacute" unicode="&#xe1;" horiz-adv-x="480" 
d="M301 247c-15.333 -7.33301 -33 -15.3301 -53 -23.9971s-39 -18.834 -57 -30.501s-33.167 -25.167 -45.5 -40.5s-18.5 -33 -18.5 -53c0 -18.667 5.5 -35.334 16.5 -50.001s26.833 -22 47.5 -22c19.333 0 39 6.16699 59 18.5s37 25.166 51 38.499v163zM292 272.003
c5.33301 2.66699 7.99707 6.83887 7.99707 12.5059v16.5c0 16.667 -0.666992 32.167 -2 46.5s-5 26.666 -11 36.999s-14.833 18.333 -26.5 24s-27.834 8.5 -48.501 8.5c-12.667 0 -24.5 -0.5 -35.5 -1.5s-20.667 -3.33301 -29 -7s-15.166 -9.33398 -20.499 -17.001
s-8.33301 -18.167 -9 -31.5c-1.33301 -11.333 -5.16602 -21.5 -11.499 -30.5s-15.833 -13.5 -28.5 -13.5c-11.333 0 -20.5 3.16699 -27.5 9.5s-10.5 15.166 -10.5 26.499c0 18.667 7.16699 33.667 21.5 45s31.5 20.166 51.5 26.499s40.333 10.666 61 12.999
s37.334 3.5 50.001 3.5c28 0 52.167 -2.16699 72.5 -6.5s37.166 -11.833 50.499 -22.5s23.166 -25.334 29.499 -44.001s9.5 -42.334 9.5 -71.001v-165v-26c0 -11.333 1 -22.333 3 -33s5.33301 -20 10 -28s12 -12 22 -12s18 3.5 24 10.5s11.667 14.167 17 21.5l19 -10
c-8 -16.667 -20.333 -32 -37 -46s-34.334 -21 -53.001 -21c-20.667 0 -38.834 6.83301 -54.501 20.5s-26.167 30.5 -31.5 50.5c-23.333 -19.333 -49.166 -36 -77.499 -50s-58.166 -21 -89.499 -21c-13.333 0 -26.166 2 -38.499 6s-23.333 9.66699 -33 17
s-17.5 16.5 -23.5 27.5s-9 23.5 -9 37.5c0 20.667 5.33301 38.834 16 54.501s23.834 29.167 39.501 40.5s32.834 21.333 51.501 30l52 24zM161.997 530.008l155.999 124c6 5.33301 12.833 10.5 20.5 15.5s15.5 7.5 23.5 7.5c10 0 18.333 -3.5 25 -10.5s10 -15.167 10 -24.5
c0 -8 -2.16699 -14.833 -6.5 -20.5s-9.66602 -10.5 -15.999 -14.5s-13.333 -7.5 -21 -10.5s-14.5 -5.83301 -20.5 -8.5l-134 -58h-37z" />
    <glyph glyph-name="acircumflex" unicode="&#xe2;" horiz-adv-x="480" 
d="M301 247c-15.333 -7.33301 -33 -15.3301 -53 -23.9971s-39 -18.834 -57 -30.501s-33.167 -25.167 -45.5 -40.5s-18.5 -33 -18.5 -53c0 -18.667 5.5 -35.334 16.5 -50.001s26.833 -22 47.5 -22c19.333 0 39 6.16699 59 18.5s37 25.166 51 38.499v163zM292 272.003
c5.33301 2.66699 7.99707 6.83887 7.99707 12.5059v16.5c0 16.667 -0.666992 32.167 -2 46.5s-5 26.666 -11 36.999s-14.833 18.333 -26.5 24s-27.834 8.5 -48.501 8.5c-12.667 0 -24.5 -0.5 -35.5 -1.5s-20.667 -3.33301 -29 -7s-15.166 -9.33398 -20.499 -17.001
s-8.33301 -18.167 -9 -31.5c-1.33301 -11.333 -5.16602 -21.5 -11.499 -30.5s-15.833 -13.5 -28.5 -13.5c-11.333 0 -20.5 3.16699 -27.5 9.5s-10.5 15.166 -10.5 26.499c0 18.667 7.16699 33.667 21.5 45s31.5 20.166 51.5 26.499s40.333 10.666 61 12.999
s37.334 3.5 50.001 3.5c28 0 52.167 -2.16699 72.5 -6.5s37.166 -11.833 50.499 -22.5s23.166 -25.334 29.499 -44.001s9.5 -42.334 9.5 -71.001v-165v-26c0 -11.333 1 -22.333 3 -33s5.33301 -20 10 -28s12 -12 22 -12s18 3.5 24 10.5s11.667 14.167 17 21.5l19 -10
c-8 -16.667 -20.333 -32 -37 -46s-34.334 -21 -53.001 -21c-20.667 0 -38.834 6.83301 -54.501 20.5s-26.167 30.5 -31.5 50.5c-23.333 -19.333 -49.166 -36 -77.499 -50s-58.166 -21 -89.499 -21c-13.333 0 -26.166 2 -38.499 6s-23.333 9.66699 -33 17
s-17.5 16.5 -23.5 27.5s-9 23.5 -9 37.5c0 20.667 5.33301 38.834 16 54.501s23.834 29.167 39.501 40.5s32.834 21.333 51.501 30l52 24zM236.997 610.008l-111 -80h-30l114 147h55l110 -147h-31z" />
    <glyph glyph-name="atilde" unicode="&#xe3;" horiz-adv-x="480" 
d="M301 247c-15.333 -7.33301 -33 -15.3301 -53 -23.9971s-39 -18.834 -57 -30.501s-33.167 -25.167 -45.5 -40.5s-18.5 -33 -18.5 -53c0 -18.667 5.5 -35.334 16.5 -50.001s26.833 -22 47.5 -22c19.333 0 39 6.16699 59 18.5s37 25.166 51 38.499v163zM292 272.003
c5.33301 2.66699 7.99707 6.83887 7.99707 12.5059v16.5c0 16.667 -0.666992 32.167 -2 46.5s-5 26.666 -11 36.999s-14.833 18.333 -26.5 24s-27.834 8.5 -48.501 8.5c-12.667 0 -24.5 -0.5 -35.5 -1.5s-20.667 -3.33301 -29 -7s-15.166 -9.33398 -20.499 -17.001
s-8.33301 -18.167 -9 -31.5c-1.33301 -11.333 -5.16602 -21.5 -11.499 -30.5s-15.833 -13.5 -28.5 -13.5c-11.333 0 -20.5 3.16699 -27.5 9.5s-10.5 15.166 -10.5 26.499c0 18.667 7.16699 33.667 21.5 45s31.5 20.166 51.5 26.499s40.333 10.666 61 12.999
s37.334 3.5 50.001 3.5c28 0 52.167 -2.16699 72.5 -6.5s37.166 -11.833 50.499 -22.5s23.166 -25.334 29.499 -44.001s9.5 -42.334 9.5 -71.001v-165v-26c0 -11.333 1 -22.333 3 -33s5.33301 -20 10 -28s12 -12 22 -12s18 3.5 24 10.5s11.667 14.167 17 21.5l19 -10
c-8 -16.667 -20.333 -32 -37 -46s-34.334 -21 -53.001 -21c-20.667 0 -38.834 6.83301 -54.501 20.5s-26.167 30.5 -31.5 50.5c-23.333 -19.333 -49.166 -36 -77.499 -50s-58.166 -21 -89.499 -21c-13.333 0 -26.166 2 -38.499 6s-23.333 9.66699 -33 17
s-17.5 16.5 -23.5 27.5s-9 23.5 -9 37.5c0 20.667 5.33301 38.834 16 54.501s23.834 29.167 39.501 40.5s32.834 21.333 51.501 30l52 24zM95.9971 576.008c2 10.667 5.66699 21.335 11 32.002s12 20.167 20 28.5s17 15 27 20s21 7.5 33 7.5
c12.667 0 24.667 -2.16699 36 -6.5l34 -13.5c9.33301 -3.33301 19.666 -7.33301 30.999 -12s21.666 -7 30.999 -7c10 0 17.667 3.66699 23 11s9.33301 15.333 12 24h26c-1.33301 -10 -4.33301 -20.333 -9 -31s-10.667 -20.667 -18 -30
c-7.33301 -8.66699 -15.833 -15.834 -25.5 -21.501s-20.167 -8.5 -31.5 -8.5c-13.333 0 -26.166 2.16699 -38.499 6.5s-24.5 9.16602 -36.5 14.499l-30.5 12.5c-12.333 5 -23.166 7.5 -32.499 7.5c-10 0 -17.5 -3.5 -22.5 -10.5s-9.16699 -14.833 -12.5 -23.5h-27z" />
    <glyph glyph-name="adieresis" unicode="&#xe4;" horiz-adv-x="480" 
d="M301 247c-15.333 -7.33301 -33 -15.3301 -53 -23.9971s-39 -18.834 -57 -30.501s-33.167 -25.167 -45.5 -40.5s-18.5 -33 -18.5 -53c0 -18.667 5.5 -35.334 16.5 -50.001s26.833 -22 47.5 -22c19.333 0 39 6.16699 59 18.5s37 25.166 51 38.499v163zM292 272.003
c5.33301 2.66699 7.99707 6.83887 7.99707 12.5059v16.5c0 16.667 -0.666992 32.167 -2 46.5s-5 26.666 -11 36.999s-14.833 18.333 -26.5 24s-27.834 8.5 -48.501 8.5c-12.667 0 -24.5 -0.5 -35.5 -1.5s-20.667 -3.33301 -29 -7s-15.166 -9.33398 -20.499 -17.001
s-8.33301 -18.167 -9 -31.5c-1.33301 -11.333 -5.16602 -21.5 -11.499 -30.5s-15.833 -13.5 -28.5 -13.5c-11.333 0 -20.5 3.16699 -27.5 9.5s-10.5 15.166 -10.5 26.499c0 18.667 7.16699 33.667 21.5 45s31.5 20.166 51.5 26.499s40.333 10.666 61 12.999
s37.334 3.5 50.001 3.5c28 0 52.167 -2.16699 72.5 -6.5s37.166 -11.833 50.499 -22.5s23.166 -25.334 29.499 -44.001s9.5 -42.334 9.5 -71.001v-165v-26c0 -11.333 1 -22.333 3 -33s5.33301 -20 10 -28s12 -12 22 -12s18 3.5 24 10.5s11.667 14.167 17 21.5l19 -10
c-8 -16.667 -20.333 -32 -37 -46s-34.334 -21 -53.001 -21c-20.667 0 -38.834 6.83301 -54.501 20.5s-26.167 30.5 -31.5 50.5c-23.333 -19.333 -49.166 -36 -77.499 -50s-58.166 -21 -89.499 -21c-13.333 0 -26.166 2 -38.499 6s-23.333 9.66699 -33 17
s-17.5 16.5 -23.5 27.5s-9 23.5 -9 37.5c0 20.667 5.33301 38.834 16 54.501s23.834 29.167 39.501 40.5s32.834 21.333 51.501 30l52 24zM166.997 555.008c-15.333 0 -27.6641 5.16699 -36.9971 15.5s-14 22.833 -14 37.5c0 14 5.16699 25.667 15.5 35s22.166 14 35.499 14
s25.166 -4.83301 35.499 -14.5s15.5 -21.167 15.5 -34.5c0 -14.667 -4.83301 -27.167 -14.5 -37.5s-21.834 -15.5 -36.501 -15.5zM303.999 555.008c-14.667 0 -26.832 5.16699 -36.499 15.5s-14.5 22.833 -14.5 37.5c0 14 5.16699 25.667 15.5 35s22.166 14 35.499 14
s25.166 -4.83301 35.499 -14.5s15.5 -21.167 15.5 -34.5c0 -14.667 -4.66699 -27.167 -14 -37.5s-21.666 -15.5 -36.999 -15.5z" />
    <glyph glyph-name="aring" unicode="&#xe5;" horiz-adv-x="480" 
d="M301 247c-15.333 -7.33301 -33 -15.3301 -53 -23.9971s-39 -18.834 -57 -30.501s-33.167 -25.167 -45.5 -40.5s-18.5 -33 -18.5 -53c0 -18.667 5.5 -35.334 16.5 -50.001s26.833 -22 47.5 -22c19.333 0 39 6.16699 59 18.5s37 25.166 51 38.499v163zM292 272.003
c5.33301 2.66699 7.99707 6.83887 7.99707 12.5059v16.5c0 16.667 -0.666992 32.167 -2 46.5s-5 26.666 -11 36.999s-14.833 18.333 -26.5 24s-27.834 8.5 -48.501 8.5c-12.667 0 -24.5 -0.5 -35.5 -1.5s-20.667 -3.33301 -29 -7s-15.166 -9.33398 -20.499 -17.001
s-8.33301 -18.167 -9 -31.5c-1.33301 -11.333 -5.16602 -21.5 -11.499 -30.5s-15.833 -13.5 -28.5 -13.5c-11.333 0 -20.5 3.16699 -27.5 9.5s-10.5 15.166 -10.5 26.499c0 18.667 7.16699 33.667 21.5 45s31.5 20.166 51.5 26.499s40.333 10.666 61 12.999
s37.334 3.5 50.001 3.5c28 0 52.167 -2.16699 72.5 -6.5s37.166 -11.833 50.499 -22.5s23.166 -25.334 29.499 -44.001s9.5 -42.334 9.5 -71.001v-165v-26c0 -11.333 1 -22.333 3 -33s5.33301 -20 10 -28s12 -12 22 -12s18 3.5 24 10.5s11.667 14.167 17 21.5l19 -10
c-8 -16.667 -20.333 -32 -37 -46s-34.334 -21 -53.001 -21c-20.667 0 -38.834 6.83301 -54.501 20.5s-26.167 30.5 -31.5 50.5c-23.333 -19.333 -49.166 -36 -77.499 -50s-58.166 -21 -89.499 -21c-13.333 0 -26.166 2 -38.499 6s-23.333 9.66699 -33 17
s-17.5 16.5 -23.5 27.5s-9 23.5 -9 37.5c0 20.667 5.33301 38.834 16 54.501s23.834 29.167 39.501 40.5s32.834 21.333 51.501 30l52 24zM238.997 525.008c-25.333 0 -47.167 8.83301 -65.5 26.5s-27.5 39.167 -27.5 64.5c0 12.667 2.5 24.5 7.5 35.5s11.667 20.5 20 28.5
s18.166 14.333 29.499 19s23 7 35 7s23.833 -2.16699 35.5 -6.5s21.834 -10.5 30.501 -18.5s15.667 -17.333 21 -28s8 -22.334 8 -35.001c0 -27.333 -9 -49.666 -27 -66.999s-40.333 -26 -67 -26zM240.996 554.008c16 0 29.667 6.16797 41 18.501s17 26.5 17 42.5
c0 17.333 -5.83301 32.166 -17.5 44.499s-26.167 18.5 -43.5 18.5s-31.333 -6.33301 -42 -19s-16 -27 -16 -43c0 -17.333 5.83301 -32 17.5 -44s26.167 -18 43.5 -18z" />
    <glyph glyph-name="ae" unicode="&#xe6;" horiz-adv-x="720" 
d="M548 296h18.999c5.33301 0 9.83301 0.833008 13.5 2.5s6.33398 4.66699 8.00098 9s2.5 10.833 2.5 19.5c0 26 -8.66699 47.5 -26 64.5s-39 25.5 -65 25.5c-17.333 0 -33 -3.33301 -47 -10s-26 -15.5 -36 -26.5s-18 -23.833 -24 -38.5s-9.66699 -30 -11 -46h166z
M317.999 95c-10 22 -16.665 45.166 -19.998 69.499s-5 48.5 -5 72.5c-14.667 -6.66699 -31.667 -14 -51 -22s-37.5 -17.5 -54.5 -28.5s-31.333 -23.833 -43 -38.5s-17.5 -32 -17.5 -52c0 -19.333 5.66699 -35.666 17 -48.999s27 -20 47 -20c10.667 0 21.667 2.16699 33 6.5
s22.666 10 33.999 17s22.166 14.333 32.499 22s19.5 15.167 27.5 22.5zM378.001 268.999c-2 -23.333 -1 -49.5 3 -78.5s11.833 -56.167 23.5 -81.5s27.834 -46.666 48.501 -63.999s47 -26 79 -26c24 0 46.167 6.5 66.5 19.5s37.833 29.167 52.5 48.5l20 -16
c-18.667 -24.667 -42.167 -44.834 -70.5 -60.501s-57.833 -23.5 -88.5 -23.5c-16.667 0 -34 2 -52 6s-35.333 9.66699 -52 17s-32.167 16.666 -46.5 27.999s-25.833 24.333 -34.5 39c-28 -25.333 -56.667 -46.666 -86 -63.999s-63.333 -26 -102 -26
c-14 0 -27.333 1.83301 -40 5.5s-23.834 9.16699 -33.501 16.5s-17.334 16.666 -23.001 27.999s-8.5 24.666 -8.5 39.999c0 25.333 9.16699 47.333 27.5 66s40.166 34.834 65.499 48.501s51.166 25.334 77.499 35.001s47.5 17.834 63.5 24.501
c9.33301 3.33301 15.666 6.16602 18.999 8.49902s5.66602 4.83301 6.99902 7.5s2.5 10.667 3.5 24s1.5 24.333 1.5 33c0 34 -7.5 58 -22.5 72s-39.167 21 -72.5 21c-18 0 -31.833 -2.33301 -41.5 -7s-17.167 -10.667 -22.5 -18s-9.16602 -15.166 -11.499 -23.499
s-5 -16.166 -8 -23.499s-7 -13.333 -12 -18s-12.833 -7 -23.5 -7c-9.33301 0 -17.833 3.16699 -25.5 9.5s-11.5 14.833 -11.5 25.5c0 18 6.33301 32.667 19 44s27.834 20 45.501 26s35.834 10 54.501 12s34.334 3 47.001 3s26 -0.666992 40 -2s27.333 -4 40 -8
s24.167 -9.83301 34.5 -17.5s18.5 -17.834 24.5 -30.501c23.333 20 47.333 34.667 72 44s52.667 14 84 14c22.667 0 44.5 -3.66699 65.5 -11s39.667 -18 56 -32s29.333 -30.667 39 -50s14.5 -41 14.5 -65c0 -5.33301 -1.16699 -8.83301 -3.5 -10.5
s-5.16602 -2.5 -8.49902 -2.5s-7 0.166992 -11 0.5s-7.33301 0.166016 -10 -0.500977h-273z" />
    <glyph glyph-name="ccedilla" unicode="&#xe7;" horiz-adv-x="460" 
d="M238 -12c-28.667 2 -55.1641 8.5 -79.4971 19.5s-45.166 25.833 -62.499 44.5s-31 40.5 -41 65.5s-15 52.167 -15 81.5c0 34.667 6.16699 66.834 18.5 96.501s29.5 55.167 51.5 76.5s48 38 78 50s62.333 18 97 18c10 0 22.333 -0.833008 37 -2.5s28.834 -5 42.501 -10
s25.5 -11.833 35.5 -20.5s15 -20 15 -34c0 -9.33301 -3.16699 -17.833 -9.5 -25.5s-14.166 -11.5 -23.499 -11.5c-12 0 -21.5 4.16699 -28.5 12.5s-12.167 17.166 -15.5 26.499c-6 15.333 -12.333 25.5 -19 30.5s-19.334 7.5 -38.001 7.5c-27.333 0 -50 -6.16699 -68 -18.5
s-32.333 -28.166 -43 -47.499s-18.334 -40.666 -23.001 -63.999s-7 -46 -7 -68c0 -24 2.16699 -47.667 6.5 -71s12 -44.333 23 -63s25.833 -33.667 44.5 -45s42 -17 70 -17c25.333 0 48.666 5.83301 69.999 17.5s40 26.834 56 45.501l21 -18
c-19.333 -24.667 -43.833 -43.334 -73.5 -56.001s-60.167 -19.667 -91.5 -21l-14 -37c9.33301 0 19.333 -0.833008 30 -2.5s20.5 -5 29.5 -10s16.333 -11.333 22 -19s8.5 -17.5 8.5 -29.5c0 -10.667 -2.33301 -19.834 -7 -27.501s-10.667 -14 -18 -19
s-15.5 -8.66699 -24.5 -11s-18.167 -3.5 -27.5 -3.5c-6.66699 0 -14.834 1 -24.501 3s-18.834 5.16699 -27.501 9.5s-16 9.66602 -22 15.999s-9 13.833 -9 22.5c0 5.33301 1.66699 10 5 14s7.66602 6 12.999 6c7.33301 0 12.5 -2.5 15.5 -7.5s5.5 -10.167 7.5 -15.5
c3.33301 -9.33301 7.5 -16 12.5 -20s12.5 -6 22.5 -6c11.333 0 21 3 29 9s12 15 12 27c0 16.667 -6.5 28 -19.5 34s-26.5 9 -40.5 9c-4 0 -8 -0.166992 -12 -0.5s-8 -0.5 -12 -0.5z" />
    <glyph glyph-name="egrave" unicode="&#xe8;" horiz-adv-x="500" 
d="M444 72c-23.333 -29.333 -49.3369 -50.8311 -78.0039 -64.498s-62 -20.5 -100 -20.5c-31.333 0 -60.666 5.16699 -87.999 15.5s-51.166 25 -71.499 44s-36.5 41.667 -48.5 68s-18 55.5 -18 87.5c0 31.333 5.66699 61.333 17 90s27 54 47 76s43.667 39.5 71 52.5
s57.333 19.5 90 19.5c24.667 0 48.5 -3.5 71.5 -10.5s43.333 -17.167 61 -30.5s31.834 -30.333 42.501 -51s16 -44.334 16 -71.001c0 -6.66699 -2.83301 -9.83398 -8.5 -9.50098s-11.167 0.5 -16.5 0.5h-287l-4 -48c0 -24 3.16699 -47.833 9.5 -71.5s16 -45.167 29 -64.5
s29.333 -35 49 -47s42.834 -18 69.501 -18c25.333 0 48.833 7.33301 70.5 22s40.167 32 55.5 52zM313.996 295.002c4 0 8.83301 -0.166016 14.5 -0.499023s11 0 16 1s9.33301 3 13 6s5.5 7.5 5.5 13.5c0 31.333 -8.16699 56.166 -24.5 74.499s-40.5 27.5 -72.5 27.5
c-18.667 0 -34.667 -3.33301 -48 -10s-24.666 -15.5 -33.999 -26.5s-16.833 -24 -22.5 -39s-9.83398 -30.5 -12.501 -46.5h165zM333.996 530.003l-135.002 57.999c-6 2.66699 -12.667 5.33398 -20 8.00098s-14.166 6 -20.499 10s-11.666 9 -15.999 15s-6.5 13 -6.5 21
c0 9.33301 3.33301 17.5 10 24.5s14.667 10.5 24 10.5c8 0 15.833 -2.5 23.5 -7.5s14.5 -10.167 20.5 -15.5l157 -124h-37z" />
    <glyph glyph-name="eacute" unicode="&#xe9;" horiz-adv-x="500" 
d="M444 72c-23.333 -29.333 -49.3369 -50.8311 -78.0039 -64.498s-62 -20.5 -100 -20.5c-31.333 0 -60.666 5.16699 -87.999 15.5s-51.166 25 -71.499 44s-36.5 41.667 -48.5 68s-18 55.5 -18 87.5c0 31.333 5.66699 61.333 17 90s27 54 47 76s43.667 39.5 71 52.5
s57.333 19.5 90 19.5c24.667 0 48.5 -3.5 71.5 -10.5s43.333 -17.167 61 -30.5s31.834 -30.333 42.501 -51s16 -44.334 16 -71.001c0 -6.66699 -2.83301 -9.83398 -8.5 -9.50098s-11.167 0.5 -16.5 0.5h-287l-4 -48c0 -24 3.16699 -47.833 9.5 -71.5s16 -45.167 29 -64.5
s29.333 -35 49 -47s42.834 -18 69.501 -18c25.333 0 48.833 7.33301 70.5 22s40.167 32 55.5 52zM313.996 295.002c4 0 8.83301 -0.166016 14.5 -0.499023s11 0 16 1s9.33301 3 13 6s5.5 7.5 5.5 13.5c0 31.333 -8.16699 56.166 -24.5 74.499s-40.5 27.5 -72.5 27.5
c-18.667 0 -34.667 -3.33301 -48 -10s-24.666 -15.5 -33.999 -26.5s-16.833 -24 -22.5 -39s-9.83398 -30.5 -12.501 -46.5h165zM171.996 530.003l155.999 124c6 5.33301 12.833 10.5 20.5 15.5s15.5 7.5 23.5 7.5c10 0 18.333 -3.5 25 -10.5s10 -15.167 10 -24.5
c0 -8 -2.16699 -14.833 -6.5 -20.5s-9.66602 -10.5 -15.999 -14.5s-13.333 -7.5 -21 -10.5s-14.5 -5.83301 -20.5 -8.5l-134 -58h-37z" />
    <glyph glyph-name="ecircumflex" unicode="&#xea;" horiz-adv-x="500" 
d="M444 72c-23.333 -29.333 -49.3369 -50.8311 -78.0039 -64.498s-62 -20.5 -100 -20.5c-31.333 0 -60.666 5.16699 -87.999 15.5s-51.166 25 -71.499 44s-36.5 41.667 -48.5 68s-18 55.5 -18 87.5c0 31.333 5.66699 61.333 17 90s27 54 47 76s43.667 39.5 71 52.5
s57.333 19.5 90 19.5c24.667 0 48.5 -3.5 71.5 -10.5s43.333 -17.167 61 -30.5s31.834 -30.333 42.501 -51s16 -44.334 16 -71.001c0 -6.66699 -2.83301 -9.83398 -8.5 -9.50098s-11.167 0.5 -16.5 0.5h-287l-4 -48c0 -24 3.16699 -47.833 9.5 -71.5s16 -45.167 29 -64.5
s29.333 -35 49 -47s42.834 -18 69.501 -18c25.333 0 48.833 7.33301 70.5 22s40.167 32 55.5 52zM313.996 295.002c4 0 8.83301 -0.166016 14.5 -0.499023s11 0 16 1s9.33301 3 13 6s5.5 7.5 5.5 13.5c0 31.333 -8.16699 56.166 -24.5 74.499s-40.5 27.5 -72.5 27.5
c-18.667 0 -34.667 -3.33301 -48 -10s-24.666 -15.5 -33.999 -26.5s-16.833 -24 -22.5 -39s-9.83398 -30.5 -12.501 -46.5h165zM246.996 610.003l-111 -80h-30l114 147h55l110 -147h-31z" />
    <glyph glyph-name="edieresis" unicode="&#xeb;" horiz-adv-x="500" 
d="M444 72c-23.333 -29.333 -49.3369 -50.8311 -78.0039 -64.498s-62 -20.5 -100 -20.5c-31.333 0 -60.666 5.16699 -87.999 15.5s-51.166 25 -71.499 44s-36.5 41.667 -48.5 68s-18 55.5 -18 87.5c0 31.333 5.66699 61.333 17 90s27 54 47 76s43.667 39.5 71 52.5
s57.333 19.5 90 19.5c24.667 0 48.5 -3.5 71.5 -10.5s43.333 -17.167 61 -30.5s31.834 -30.333 42.501 -51s16 -44.334 16 -71.001c0 -6.66699 -2.83301 -9.83398 -8.5 -9.50098s-11.167 0.5 -16.5 0.5h-287l-4 -48c0 -24 3.16699 -47.833 9.5 -71.5s16 -45.167 29 -64.5
s29.333 -35 49 -47s42.834 -18 69.501 -18c25.333 0 48.833 7.33301 70.5 22s40.167 32 55.5 52zM313.996 295.002c4 0 8.83301 -0.166016 14.5 -0.499023s11 0 16 1s9.33301 3 13 6s5.5 7.5 5.5 13.5c0 31.333 -8.16699 56.166 -24.5 74.499s-40.5 27.5 -72.5 27.5
c-18.667 0 -34.667 -3.33301 -48 -10s-24.666 -15.5 -33.999 -26.5s-16.833 -24 -22.5 -39s-9.83398 -30.5 -12.501 -46.5h165zM176.996 555.003c-15.333 0 -27.6641 5.16699 -36.9971 15.5s-14 22.833 -14 37.5c0 14 5.16699 25.667 15.5 35s22.166 14 35.499 14
s25.166 -4.83301 35.499 -14.5s15.5 -21.167 15.5 -34.5c0 -14.667 -4.83301 -27.167 -14.5 -37.5s-21.834 -15.5 -36.501 -15.5zM313.998 555.003c-14.667 0 -26.832 5.16699 -36.499 15.5s-14.5 22.833 -14.5 37.5c0 14 5.16699 25.667 15.5 35s22.166 14 35.499 14
s25.166 -4.83301 35.499 -14.5s15.5 -21.167 15.5 -34.5c0 -14.667 -4.66699 -27.167 -14 -37.5s-21.666 -15.5 -36.999 -15.5z" />
    <glyph glyph-name="igrave" unicode="&#xec;" horiz-adv-x="300" 
d="M193 440l0.000976562 -321.002c0.666992 -16.667 1 -31 1 -43s1.83301 -22.167 5.5 -30.5s10.167 -14.666 19.5 -18.999s24 -7.16602 44 -8.49902v-20l-53 2l-54 2l-58.5 -2l-58.5 -2v20c18.667 1.33301 32.667 3.83301 42 7.5s16 9.33398 20 17.001
s6.16699 17.167 6.5 28.5s0.5 25.333 0.5 42v143v23c0 10.667 -0.166992 22 -0.5 34s-0.833008 23 -1.5 33s-1.33398 17 -2.00098 21c-2 6 -5.66699 10.667 -11 14s-11.5 5.66602 -18.5 6.99902s-14.167 1.83301 -21.5 1.5s-13.333 -0.5 -18 -0.5v20zM235.001 529.998
l-135.002 57.999c-6 2.66699 -12.667 5.33398 -20 8.00098s-14.166 6 -20.499 10s-11.666 9 -15.999 15s-6.5 13 -6.5 21c0 9.33301 3.33301 17.5 10 24.5s14.667 10.5 24 10.5c8 0 15.833 -2.5 23.5 -7.5s14.5 -10.167 20.5 -15.5l157 -124h-37z" />
    <glyph glyph-name="iacute" unicode="&#xed;" horiz-adv-x="300" 
d="M193 440l0.000976562 -321.002c0.666992 -16.667 1 -31 1 -43s1.83301 -22.167 5.5 -30.5s10.167 -14.666 19.5 -18.999s24 -7.16602 44 -8.49902v-20l-53 2l-54 2l-58.5 -2l-58.5 -2v20c18.667 1.33301 32.667 3.83301 42 7.5s16 9.33398 20 17.001
s6.16699 17.167 6.5 28.5s0.5 25.333 0.5 42v143v23c0 10.667 -0.166992 22 -0.5 34s-0.833008 23 -1.5 33s-1.33398 17 -2.00098 21c-2 6 -5.66699 10.667 -11 14s-11.5 5.66602 -18.5 6.99902s-14.167 1.83301 -21.5 1.5s-13.333 -0.5 -18 -0.5v20zM72.001 529.998
l155.999 124c6 5.33301 12.833 10.5 20.5 15.5s15.5 7.5 23.5 7.5c10 0 18.333 -3.5 25 -10.5s10 -15.167 10 -24.5c0 -8 -2.16699 -14.833 -6.5 -20.5s-9.66602 -10.5 -15.999 -14.5s-13.333 -7.5 -21 -10.5s-14.5 -5.83301 -20.5 -8.5l-134 -58h-37z" />
    <glyph glyph-name="icircumflex" unicode="&#xee;" horiz-adv-x="300" 
d="M193 440l0.000976562 -321.002c0.666992 -16.667 1 -31 1 -43s1.83301 -22.167 5.5 -30.5s10.167 -14.666 19.5 -18.999s24 -7.16602 44 -8.49902v-20l-53 2l-54 2l-58.5 -2l-58.5 -2v20c18.667 1.33301 32.667 3.83301 42 7.5s16 9.33398 20 17.001
s6.16699 17.167 6.5 28.5s0.5 25.333 0.5 42v143v23c0 10.667 -0.166992 22 -0.5 34s-0.833008 23 -1.5 33s-1.33398 17 -2.00098 21c-2 6 -5.66699 10.667 -11 14s-11.5 5.66602 -18.5 6.99902s-14.167 1.83301 -21.5 1.5s-13.333 -0.5 -18 -0.5v20zM148.001 609.998
l-111 -80h-30l114 147h55l110 -147h-31z" />
    <glyph glyph-name="idieresis" unicode="&#xef;" horiz-adv-x="300" 
d="M193 440l0.000976562 -321.002c0.666992 -16.667 1 -31 1 -43s1.83301 -22.167 5.5 -30.5s10.167 -14.666 19.5 -18.999s24 -7.16602 44 -8.49902v-20l-53 2l-54 2l-58.5 -2l-58.5 -2v20c18.667 1.33301 32.667 3.83301 42 7.5s16 9.33398 20 17.001
s6.16699 17.167 6.5 28.5s0.5 25.333 0.5 42v143v23c0 10.667 -0.166992 22 -0.5 34s-0.833008 23 -1.5 33s-1.33398 17 -2.00098 21c-2 6 -5.66699 10.667 -11 14s-11.5 5.66602 -18.5 6.99902s-14.167 1.83301 -21.5 1.5s-13.333 -0.5 -18 -0.5v20zM78.001 554.998
c-15.333 0 -27.6641 5.16699 -36.9971 15.5s-14 22.833 -14 37.5c0 14 5.16699 25.667 15.5 35s22.166 14 35.499 14s25.166 -4.83301 35.499 -14.5s15.5 -21.167 15.5 -34.5c0 -14.667 -4.83301 -27.167 -14.5 -37.5s-21.834 -15.5 -36.501 -15.5zM215.003 554.998
c-14.667 0 -26.832 5.16699 -36.499 15.5s-14.5 22.833 -14.5 37.5c0 14 5.16699 25.667 15.5 35s22.166 14 35.499 14s25.166 -4.83301 35.499 -14.5s15.5 -21.167 15.5 -34.5c0 -14.667 -4.66699 -27.167 -14 -37.5s-21.666 -15.5 -36.999 -15.5z" />
    <glyph glyph-name="eth" unicode="&#xf0;" horiz-adv-x="560" 
d="M140 215c0 -24 2 -48.165 6 -72.498s11.5 -46.333 22.5 -66s25.833 -35.667 44.5 -48s42.667 -18.5 72 -18.5c27.333 0 49.833 6.16699 67.5 18.5s31.5 28.166 41.5 47.499s17 40.833 21 64.5s6 46.5 6 68.5c0 24 -2 48.333 -6 73s-11.333 47 -22 67
s-25.5 36.333 -44.5 49s-43.167 19 -72.5 19c-27.333 0 -49.833 -6.5 -67.5 -19.5s-31.5 -29.333 -41.5 -49s-17 -41.334 -21 -65.001s-6 -46.5 -6 -68.5zM166 700.002c54.667 -14.667 104.332 -35.332 148.999 -61.999l122 70l34 -27l-118 -68
c54 -38.667 95.5 -87 124.5 -145s43.5 -127 43.5 -207c0 -34 -4.16699 -67.333 -12.5 -100s-22 -61.834 -41 -87.501s-43.833 -46.5 -74.5 -62.5s-68.334 -24 -113.001 -24c-32.667 0 -63.5 5.83301 -92.5 17.5s-54.5 28 -76.5 49s-39.333 45.5 -52 73.5s-19 58.667 -19 92
c0 32 6.83301 61.5 20.5 88.5s31.667 50.333 54 70s47.833 35 76.5 46s58.334 16.5 89.001 16.5c16.667 0 32 -2.16699 46 -6.5s26.5 -9.83301 37.5 -16.5s20.333 -14.167 28 -22.5s14.167 -16.833 19.5 -25.5l2 2c-11.333 45.333 -25.666 85.5 -42.999 120.5
s-40 65.833 -68 92.5l-117 -68l-34 27l119 69c-32 24.667 -72.667 45.667 -122 63z" />
    <glyph glyph-name="ntilde" unicode="&#xf1;" horiz-adv-x="600" 
d="M495 119l-0.00292969 -43.0078c0 -12 2 -22.167 6 -30.5s10.833 -14.666 20.5 -18.999s24.167 -7.16602 43.5 -8.49902v-20l-54.5 2l-54.5 2l-58 -2l-58 -2v20c18.667 1.33301 32.834 3.83301 42.501 7.5s16.5 9.33398 20.5 17.001s6.16699 17.167 6.5 28.5
s0.5 25.333 0.5 42v128c0 17.333 -0.333008 35.833 -1 55.5s-3.83398 37.667 -9.50098 54s-14.667 30 -27 41s-30.5 16.5 -54.5 16.5c-19.333 0 -37 -3.5 -53 -10.5s-29.5 -16.667 -40.5 -29s-19.5 -26.666 -25.5 -42.999s-9 -33.5 -9 -51.5v-155v-43
c0 -12 1.83301 -22.167 5.5 -30.5s10.334 -14.666 20.001 -18.999s24.5 -7.16602 44.5 -8.49902v-20l-54.5 2l-54.5 2l-58 -2l-58 -2v20c18.667 1.33301 32.834 3.83301 42.501 7.5s16.5 9.33398 20.5 17.001s6.16699 17.167 6.5 28.5s0.5 25.333 0.5 42v123v27
c0 11.333 -0.166992 23 -0.5 35s-0.833008 23.333 -1.5 34s-1.66699 19 -3 25c-2 8.66699 -5.16699 15.334 -9.5 20.001s-9.33301 7.83398 -15 9.50098s-12.167 2.5 -19.5 2.5h-23v20c26 3.33301 49.333 8.16602 70 14.499s43.334 11.833 68.001 16.5l13 -91h2
c34 60.667 87.333 91 160 91c48 0 84.833 -11 110.5 -33s38.5 -57 38.5 -105v-183zM155.997 575.992c2 10.667 5.66699 21.335 11 32.002s12 20.167 20 28.5s17 15 27 20s21 7.5 33 7.5c12.667 0 24.667 -2.16699 36 -6.5l34 -13.5
c9.33301 -3.33301 19.666 -7.33301 30.999 -12s21.666 -7 30.999 -7c10 0 17.667 3.66699 23 11s9.33301 15.333 12 24h26c-1.33301 -10 -4.33301 -20.333 -9 -31s-10.667 -20.667 -18 -30c-7.33301 -8.66699 -15.833 -15.834 -25.5 -21.501s-20.167 -8.5 -31.5 -8.5
c-13.333 0 -26.166 2.16699 -38.499 6.5s-24.5 9.16602 -36.5 14.499l-30.5 12.5c-12.333 5 -23.166 7.5 -32.499 7.5c-10 0 -17.5 -3.5 -22.5 -10.5s-9.16699 -14.833 -12.5 -23.5h-27z" />
    <glyph glyph-name="ograve" unicode="&#xf2;" horiz-adv-x="560" 
d="M280 440c30.667 0 60.499 -5.66699 89.499 -17s54.833 -27 77.5 -47s40.667 -43.833 54 -71.5s20 -57.5 20 -89.5c0 -34 -6.33301 -65 -19 -93s-30 -52 -52 -72s-47.667 -35.5 -77 -46.5s-60.333 -16.5 -93 -16.5s-63.5 5.83301 -92.5 17.5s-54.5 28 -76.5 49
s-39.333 45.5 -52 73.5s-19 58.667 -19 92c0 32 6.83301 61.5 20.5 88.5s31.667 50.333 54 70s47.833 35 76.5 46s58.334 16.5 89.001 16.5zM275.999 417c-27.333 0 -49.833 -6.49805 -67.5 -19.498s-31.5 -29.333 -41.5 -49s-17 -41.334 -21 -65.001s-6 -46.5 -6 -68.5
c0 -24 2 -48.167 6 -72.5s11.5 -46.333 22.5 -66s25.833 -35.667 44.5 -48s42.667 -18.5 72 -18.5c27.333 0 49.833 6.16699 67.5 18.5s31.5 28.166 41.5 47.499s17 40.833 21 64.5s6 46.5 6 68.5c0 24 -2 48.333 -6 73s-11.333 47 -22 67s-25.5 36.333 -44.5 49
s-43.167 19 -72.5 19zM363.999 530.002l-135.002 57.999c-6 2.66699 -12.667 5.33398 -20 8.00098s-14.166 6 -20.499 10s-11.666 9 -15.999 15s-6.5 13 -6.5 21c0 9.33301 3.33301 17.5 10 24.5s14.667 10.5 24 10.5c8 0 15.833 -2.5 23.5 -7.5s14.5 -10.167 20.5 -15.5
l157 -124h-37z" />
    <glyph glyph-name="oacute" unicode="&#xf3;" horiz-adv-x="560" 
d="M280 440c30.667 0 60.499 -5.66699 89.499 -17s54.833 -27 77.5 -47s40.667 -43.833 54 -71.5s20 -57.5 20 -89.5c0 -34 -6.33301 -65 -19 -93s-30 -52 -52 -72s-47.667 -35.5 -77 -46.5s-60.333 -16.5 -93 -16.5s-63.5 5.83301 -92.5 17.5s-54.5 28 -76.5 49
s-39.333 45.5 -52 73.5s-19 58.667 -19 92c0 32 6.83301 61.5 20.5 88.5s31.667 50.333 54 70s47.833 35 76.5 46s58.334 16.5 89.001 16.5zM275.999 417c-27.333 0 -49.833 -6.49805 -67.5 -19.498s-31.5 -29.333 -41.5 -49s-17 -41.334 -21 -65.001s-6 -46.5 -6 -68.5
c0 -24 2 -48.167 6 -72.5s11.5 -46.333 22.5 -66s25.833 -35.667 44.5 -48s42.667 -18.5 72 -18.5c27.333 0 49.833 6.16699 67.5 18.5s31.5 28.166 41.5 47.499s17 40.833 21 64.5s6 46.5 6 68.5c0 24 -2 48.333 -6 73s-11.333 47 -22 67s-25.5 36.333 -44.5 49
s-43.167 19 -72.5 19zM201.999 530.002l155.999 124c6 5.33301 12.833 10.5 20.5 15.5s15.5 7.5 23.5 7.5c10 0 18.333 -3.5 25 -10.5s10 -15.167 10 -24.5c0 -8 -2.16699 -14.833 -6.5 -20.5s-9.66602 -10.5 -15.999 -14.5s-13.333 -7.5 -21 -10.5
s-14.5 -5.83301 -20.5 -8.5l-134 -58h-37z" />
    <glyph glyph-name="ocircumflex" unicode="&#xf4;" horiz-adv-x="560" 
d="M280 440c30.667 0 60.499 -5.66699 89.499 -17s54.833 -27 77.5 -47s40.667 -43.833 54 -71.5s20 -57.5 20 -89.5c0 -34 -6.33301 -65 -19 -93s-30 -52 -52 -72s-47.667 -35.5 -77 -46.5s-60.333 -16.5 -93 -16.5s-63.5 5.83301 -92.5 17.5s-54.5 28 -76.5 49
s-39.333 45.5 -52 73.5s-19 58.667 -19 92c0 32 6.83301 61.5 20.5 88.5s31.667 50.333 54 70s47.833 35 76.5 46s58.334 16.5 89.001 16.5zM275.999 417c-27.333 0 -49.833 -6.49805 -67.5 -19.498s-31.5 -29.333 -41.5 -49s-17 -41.334 -21 -65.001s-6 -46.5 -6 -68.5
c0 -24 2 -48.167 6 -72.5s11.5 -46.333 22.5 -66s25.833 -35.667 44.5 -48s42.667 -18.5 72 -18.5c27.333 0 49.833 6.16699 67.5 18.5s31.5 28.166 41.5 47.499s17 40.833 21 64.5s6 46.5 6 68.5c0 24 -2 48.333 -6 73s-11.333 47 -22 67s-25.5 36.333 -44.5 49
s-43.167 19 -72.5 19zM276.999 610.002l-111 -80h-30l114 147h55l110 -147h-31z" />
    <glyph glyph-name="otilde" unicode="&#xf5;" horiz-adv-x="560" 
d="M280 440c30.667 0 60.499 -5.66699 89.499 -17s54.833 -27 77.5 -47s40.667 -43.833 54 -71.5s20 -57.5 20 -89.5c0 -34 -6.33301 -65 -19 -93s-30 -52 -52 -72s-47.667 -35.5 -77 -46.5s-60.333 -16.5 -93 -16.5s-63.5 5.83301 -92.5 17.5s-54.5 28 -76.5 49
s-39.333 45.5 -52 73.5s-19 58.667 -19 92c0 32 6.83301 61.5 20.5 88.5s31.667 50.333 54 70s47.833 35 76.5 46s58.334 16.5 89.001 16.5zM275.999 417c-27.333 0 -49.833 -6.49805 -67.5 -19.498s-31.5 -29.333 -41.5 -49s-17 -41.334 -21 -65.001s-6 -46.5 -6 -68.5
c0 -24 2 -48.167 6 -72.5s11.5 -46.333 22.5 -66s25.833 -35.667 44.5 -48s42.667 -18.5 72 -18.5c27.333 0 49.833 6.16699 67.5 18.5s31.5 28.166 41.5 47.499s17 40.833 21 64.5s6 46.5 6 68.5c0 24 -2 48.333 -6 73s-11.333 47 -22 67s-25.5 36.333 -44.5 49
s-43.167 19 -72.5 19zM135.999 576.002c2 10.667 5.66699 21.335 11 32.002s12 20.167 20 28.5s17 15 27 20s21 7.5 33 7.5c12.667 0 24.667 -2.16699 36 -6.5l34 -13.5c9.33301 -3.33301 19.666 -7.33301 30.999 -12s21.666 -7 30.999 -7c10 0 17.667 3.66699 23 11
s9.33301 15.333 12 24h26c-1.33301 -10 -4.33301 -20.333 -9 -31s-10.667 -20.667 -18 -30c-7.33301 -8.66699 -15.833 -15.834 -25.5 -21.501s-20.167 -8.5 -31.5 -8.5c-13.333 0 -26.166 2.16699 -38.499 6.5s-24.5 9.16602 -36.5 14.499l-30.5 12.5
c-12.333 5 -23.166 7.5 -32.499 7.5c-10 0 -17.5 -3.5 -22.5 -10.5s-9.16699 -14.833 -12.5 -23.5h-27z" />
    <glyph glyph-name="odieresis" unicode="&#xf6;" horiz-adv-x="560" 
d="M280 440c30.667 0 60.499 -5.66699 89.499 -17s54.833 -27 77.5 -47s40.667 -43.833 54 -71.5s20 -57.5 20 -89.5c0 -34 -6.33301 -65 -19 -93s-30 -52 -52 -72s-47.667 -35.5 -77 -46.5s-60.333 -16.5 -93 -16.5s-63.5 5.83301 -92.5 17.5s-54.5 28 -76.5 49
s-39.333 45.5 -52 73.5s-19 58.667 -19 92c0 32 6.83301 61.5 20.5 88.5s31.667 50.333 54 70s47.833 35 76.5 46s58.334 16.5 89.001 16.5zM275.999 417c-27.333 0 -49.833 -6.49805 -67.5 -19.498s-31.5 -29.333 -41.5 -49s-17 -41.334 -21 -65.001s-6 -46.5 -6 -68.5
c0 -24 2 -48.167 6 -72.5s11.5 -46.333 22.5 -66s25.833 -35.667 44.5 -48s42.667 -18.5 72 -18.5c27.333 0 49.833 6.16699 67.5 18.5s31.5 28.166 41.5 47.499s17 40.833 21 64.5s6 46.5 6 68.5c0 24 -2 48.333 -6 73s-11.333 47 -22 67s-25.5 36.333 -44.5 49
s-43.167 19 -72.5 19zM206.999 555.002c-15.333 0 -27.6641 5.16699 -36.9971 15.5s-14 22.833 -14 37.5c0 14 5.16699 25.667 15.5 35s22.166 14 35.499 14s25.166 -4.83301 35.499 -14.5s15.5 -21.167 15.5 -34.5c0 -14.667 -4.83301 -27.167 -14.5 -37.5
s-21.834 -15.5 -36.501 -15.5zM344.001 555.002c-14.667 0 -26.832 5.16699 -36.499 15.5s-14.5 22.833 -14.5 37.5c0 14 5.16699 25.667 15.5 35s22.166 14 35.499 14s25.166 -4.83301 35.499 -14.5s15.5 -21.167 15.5 -34.5c0 -14.667 -4.66699 -27.167 -14 -37.5
s-21.666 -15.5 -36.999 -15.5z" />
    <glyph glyph-name="divide" unicode="&#xf7;" 
d="M33 277h454v-46h-454v46zM261 403c-15.333 0 -27.6641 5.16699 -36.9971 15.5s-14 22.833 -14 37.5c0 14 5.16699 25.667 15.5 35s22.166 14 35.499 14s25.166 -4.83301 35.499 -14.5s15.5 -21.167 15.5 -34.5c0 -14.667 -4.83301 -27.167 -14.5 -37.5
s-21.834 -15.5 -36.501 -15.5zM261.002 3c-15.333 0 -27.6641 5.16699 -36.9971 15.5s-14 22.833 -14 37.5c0 14 5.16699 25.667 15.5 35s22.166 14 35.499 14s25.166 -4.83301 35.499 -14.5s15.5 -21.167 15.5 -34.5c0 -14.667 -4.83301 -27.167 -14.5 -37.5
s-21.834 -15.5 -36.501 -15.5z" />
    <glyph glyph-name="oslash" unicode="&#xf8;" horiz-adv-x="560" 
d="M422 395c29.333 -19.333 52.667 -44.999 70 -76.999s26 -66 26 -102c0 -34 -6.5 -65 -19.5 -93s-30.5 -52.167 -52.5 -72.5s-47.5 -36 -76.5 -47s-59.833 -16.5 -92.5 -16.5c-18.667 0 -38.5 2.16699 -59.5 6.5s-39.833 11.166 -56.5 20.499l-63 -95h-45l79 113
c-30 19.333 -52.833 45.5 -68.5 78.5s-23.5 67.167 -23.5 102.5c0 32.667 6.5 62.834 19.5 90.501s30.5 51.667 52.5 72s47.333 36.166 76 47.499s59 17 91 17c19.333 0 38.5 -2 57.5 -6s37.167 -10.667 54.5 -20l57 83h43zM184.001 47.001
c11.333 -13.333 25.6689 -22.832 43.002 -28.499s34.666 -8.5 51.999 -8.5c27.333 0 50 6.16699 68 18.5s32.167 28.166 42.5 47.499s17.666 40.833 21.999 64.5s6.5 46.834 6.5 69.501c0 10.667 -0.333008 22.167 -1 34.5s-2 24.666 -4 36.999s-4.83301 24.333 -8.5 36
s-8.5 22.167 -14.5 31.5zM368.004 379.002c-10.667 12.667 -23.501 22.167 -38.501 28.5s-30.167 9.5 -45.5 9.5c-28.667 0 -52.167 -6 -70.5 -18s-33 -27.5 -44 -46.5s-18.667 -40.5 -23 -64.5s-6.5 -47.667 -6.5 -71s1.33301 -46.5 4 -69.5s9.33398 -45.167 20.001 -66.5z
" />
    <glyph glyph-name="ugrave" unicode="&#xf9;" horiz-adv-x="580" 
d="M180 158c0 -14.667 0.667969 -30.168 2.00098 -46.501s4.66602 -31.333 9.99902 -45s13.666 -25 24.999 -34s26.666 -13.5 45.999 -13.5c20 0 38.333 4.16699 55 12.5s31 19.333 43 33s21.5 29.334 28.5 47.001s10.5 36.167 10.5 55.5v134
c0 18.667 -0.166992 34.5 -0.5 47.5s-2.66602 23.667 -6.99902 32s-11.666 14.833 -21.999 19.5s-25.833 8.66699 -46.5 12v20c14 -1.33301 27.833 -2.16602 41.5 -2.49902s27.5 -1.16602 41.5 -2.49902c13.333 1.33301 26.5 2.16602 39.5 2.49902
s25.833 1.16602 38.5 2.49902v-322c0 -6.66699 0.166992 -14 0.5 -22s1.66602 -15.333 3.99902 -22s6 -12.167 11 -16.5s12.167 -6.5 21.5 -6.5c6 0 12.167 0.333008 18.5 1l19.5 2v-23l-139 -36l-21 94c-18 -28 -41.833 -50.667 -71.5 -68s-61.5 -26 -95.5 -26
c-50.667 0 -86.334 12.833 -107.001 38.5s-31 60.5 -31 104.5v171c0 18.667 -0.166992 34.5 -0.5 47.5s-2.66602 23.667 -6.99902 32s-11.666 14.833 -21.999 19.5s-25.833 8.66699 -46.5 12v19l41.5 -2l41.5 -2l39.5 2l38.5 2v-273zM374.001 529.999l-135.002 57.999
c-6 2.66699 -12.667 5.33398 -20 8.00098s-14.166 6 -20.499 10s-11.666 9 -15.999 15s-6.5 13 -6.5 21c0 9.33301 3.33301 17.5 10 24.5s14.667 10.5 24 10.5c8 0 15.833 -2.5 23.5 -7.5s14.5 -10.167 20.5 -15.5l157 -124h-37z" />
    <glyph glyph-name="uacute" unicode="&#xfa;" horiz-adv-x="580" 
d="M180 158c0 -14.667 0.667969 -30.168 2.00098 -46.501s4.66602 -31.333 9.99902 -45s13.666 -25 24.999 -34s26.666 -13.5 45.999 -13.5c20 0 38.333 4.16699 55 12.5s31 19.333 43 33s21.5 29.334 28.5 47.001s10.5 36.167 10.5 55.5v134
c0 18.667 -0.166992 34.5 -0.5 47.5s-2.66602 23.667 -6.99902 32s-11.666 14.833 -21.999 19.5s-25.833 8.66699 -46.5 12v20c14 -1.33301 27.833 -2.16602 41.5 -2.49902s27.5 -1.16602 41.5 -2.49902c13.333 1.33301 26.5 2.16602 39.5 2.49902
s25.833 1.16602 38.5 2.49902v-322c0 -6.66699 0.166992 -14 0.5 -22s1.66602 -15.333 3.99902 -22s6 -12.167 11 -16.5s12.167 -6.5 21.5 -6.5c6 0 12.167 0.333008 18.5 1l19.5 2v-23l-139 -36l-21 94c-18 -28 -41.833 -50.667 -71.5 -68s-61.5 -26 -95.5 -26
c-50.667 0 -86.334 12.833 -107.001 38.5s-31 60.5 -31 104.5v171c0 18.667 -0.166992 34.5 -0.5 47.5s-2.66602 23.667 -6.99902 32s-11.666 14.833 -21.999 19.5s-25.833 8.66699 -46.5 12v19l41.5 -2l41.5 -2l39.5 2l38.5 2v-273zM212.001 529.999l155.999 124
c6 5.33301 12.833 10.5 20.5 15.5s15.5 7.5 23.5 7.5c10 0 18.333 -3.5 25 -10.5s10 -15.167 10 -24.5c0 -8 -2.16699 -14.833 -6.5 -20.5s-9.66602 -10.5 -15.999 -14.5s-13.333 -7.5 -21 -10.5s-14.5 -5.83301 -20.5 -8.5l-134 -58h-37z" />
    <glyph glyph-name="ucircumflex" unicode="&#xfb;" horiz-adv-x="580" 
d="M180 158c0 -14.667 0.667969 -30.168 2.00098 -46.501s4.66602 -31.333 9.99902 -45s13.666 -25 24.999 -34s26.666 -13.5 45.999 -13.5c20 0 38.333 4.16699 55 12.5s31 19.333 43 33s21.5 29.334 28.5 47.001s10.5 36.167 10.5 55.5v134
c0 18.667 -0.166992 34.5 -0.5 47.5s-2.66602 23.667 -6.99902 32s-11.666 14.833 -21.999 19.5s-25.833 8.66699 -46.5 12v20c14 -1.33301 27.833 -2.16602 41.5 -2.49902s27.5 -1.16602 41.5 -2.49902c13.333 1.33301 26.5 2.16602 39.5 2.49902
s25.833 1.16602 38.5 2.49902v-322c0 -6.66699 0.166992 -14 0.5 -22s1.66602 -15.333 3.99902 -22s6 -12.167 11 -16.5s12.167 -6.5 21.5 -6.5c6 0 12.167 0.333008 18.5 1l19.5 2v-23l-139 -36l-21 94c-18 -28 -41.833 -50.667 -71.5 -68s-61.5 -26 -95.5 -26
c-50.667 0 -86.334 12.833 -107.001 38.5s-31 60.5 -31 104.5v171c0 18.667 -0.166992 34.5 -0.5 47.5s-2.66602 23.667 -6.99902 32s-11.666 14.833 -21.999 19.5s-25.833 8.66699 -46.5 12v19l41.5 -2l41.5 -2l39.5 2l38.5 2v-273zM287.001 609.999l-111 -80h-30l114 147
h55l110 -147h-31z" />
    <glyph glyph-name="udieresis" unicode="&#xfc;" horiz-adv-x="580" 
d="M180 158c0 -14.667 0.667969 -30.168 2.00098 -46.501s4.66602 -31.333 9.99902 -45s13.666 -25 24.999 -34s26.666 -13.5 45.999 -13.5c20 0 38.333 4.16699 55 12.5s31 19.333 43 33s21.5 29.334 28.5 47.001s10.5 36.167 10.5 55.5v134
c0 18.667 -0.166992 34.5 -0.5 47.5s-2.66602 23.667 -6.99902 32s-11.666 14.833 -21.999 19.5s-25.833 8.66699 -46.5 12v20c14 -1.33301 27.833 -2.16602 41.5 -2.49902s27.5 -1.16602 41.5 -2.49902c13.333 1.33301 26.5 2.16602 39.5 2.49902
s25.833 1.16602 38.5 2.49902v-322c0 -6.66699 0.166992 -14 0.5 -22s1.66602 -15.333 3.99902 -22s6 -12.167 11 -16.5s12.167 -6.5 21.5 -6.5c6 0 12.167 0.333008 18.5 1l19.5 2v-23l-139 -36l-21 94c-18 -28 -41.833 -50.667 -71.5 -68s-61.5 -26 -95.5 -26
c-50.667 0 -86.334 12.833 -107.001 38.5s-31 60.5 -31 104.5v171c0 18.667 -0.166992 34.5 -0.5 47.5s-2.66602 23.667 -6.99902 32s-11.666 14.833 -21.999 19.5s-25.833 8.66699 -46.5 12v19l41.5 -2l41.5 -2l39.5 2l38.5 2v-273zM217.001 554.999
c-15.333 0 -27.6641 5.16699 -36.9971 15.5s-14 22.833 -14 37.5c0 14 5.16699 25.667 15.5 35s22.166 14 35.499 14s25.166 -4.83301 35.499 -14.5s15.5 -21.167 15.5 -34.5c0 -14.667 -4.83301 -27.167 -14.5 -37.5s-21.834 -15.5 -36.501 -15.5zM354.003 554.999
c-14.667 0 -26.832 5.16699 -36.499 15.5s-14.5 22.833 -14.5 37.5c0 14 5.16699 25.667 15.5 35s22.166 14 35.499 14s25.166 -4.83301 35.499 -14.5s15.5 -21.167 15.5 -34.5c0 -14.667 -4.66699 -27.167 -14 -37.5s-21.666 -15.5 -36.999 -15.5z" />
    </font>
</defs>
</svg>
